  0
SECTION
  2
HEADER
  9
$ACADVER
  1
AC1015
  9
$ACADMAINTVER
 70
     6
  9
$DWGCODEPAGE
  3
ANSI_1252
  9
$INSBASE
 10
0.0
 20
0.0
 30
0.0
  9
$EXTMIN
 10
-6.125
 20
-1.5785691585
 30
0.0
  9
$EXTMAX
 10
6.125
 20
1.5785691585
 30
0.0
  9
$LIMMIN
 10
0.0
 20
0.0
  9
$LIMMAX
 10
12.0
 20
9.0
  9
$ORTHOMODE
 70
     0
  9
$REGENMODE
 70
     1
  9
$FILLMODE
 70
     1
  9
$QTEXTMODE
 70
     0
  9
$MIRRTEXT
 70
     1
  9
$LTSCALE
 40
1.0
  9
$ATTMODE
 70
     1
  9
$TEXTSIZE
 40
0.125
  9
$TRACEWID
 40
0.05
  9
$TEXTSTYLE
  7
Standard
  9
$CLAYER
  8
0
  9
$CELTYPE
  6
ByLayer
  9
$CECOLOR
 62
   256
  9
$CELTSCALE
 40
1.0
  9
$DISPSILH
 70
     0
  9
$DIMSCALE
 40
1.0
  9
$DIMASZ
 40
0.13
  9
$DIMEXO
 40
0.05
  9
$DIMDLI
 40
0.38
  9
$DIMRND
 40
0.0
  9
$DIMDLE
 40
0.0
  9
$DIMEXE
 40
0.125
  9
$DIMTP
 40
0.0
  9
$DIMTM
 40
0.0
  9
$DIMTXT
 40
0.125
  9
$DIMCEN
 40
0.09
  9
$DIMTSZ
 40
0.0
  9
$DIMTOL
 70
     0
  9
$DIMLIM
 70
     0
  9
$DIMTIH
 70
     1
  9
$DIMTOH
 70
     1
  9
$DIMSE1
 70
     0
  9
$DIMSE2
 70
     0
  9
$DIMTAD
 70
     0
  9
$DIMZIN
 70
     0
  9
$DIMBLK
  1

  9
$DIMASO
 70
     1
  9
$DIMSHO
 70
     1
  9
$DIMPOST
  1

  9
$DIMAPOST
  1

  9
$DIMALT
 70
     0
  9
$DIMALTD
 70
     2
  9
$DIMALTF
 40
25.4
  9
$DIMLFAC
 40
1.0
  9
$DIMTOFL
 70
     0
  9
$DIMTVP
 40
0.0
  9
$DIMTIX
 70
     0
  9
$DIMSOXD
 70
     0
  9
$DIMSAH
 70
     0
  9
$DIMBLK1
  1

  9
$DIMBLK2
  1

  9
$DIMSTYLE
  2
Standard
  9
$DIMCLRD
 70
     0
  9
$DIMCLRE
 70
     0
  9
$DIMCLRT
 70
     0
  9
$DIMTFAC
 40
1.0
  9
$DIMGAP
 40
0.06
  9
$DIMJUST
 70
     0
  9
$DIMSD1
 70
     0
  9
$DIMSD2
 70
     0
  9
$DIMTOLJ
 70
     1
  9
$DIMTZIN
 70
     0
  9
$DIMALTZ
 70
     0
  9
$DIMALTTZ
 70
     0
  9
$DIMUPT
 70
     0
  9
$DIMDEC
 70
     2
  9
$DIMTDEC
 70
     2
  9
$DIMALTU
 70
     2
  9
$DIMALTTD
 70
     2
  9
$DIMTXSTY
  7
Standard
  9
$DIMAUNIT
 70
     0
  9
$DIMADEC
 70
     2
  9
$DIMALTRND
 40
0.0
  9
$DIMAZIN
 70
     0
  9
$DIMDSEP
 70
    46
  9
$DIMATFIT
 70
     3
  9
$DIMFRAC
 70
     0
  9
$DIMLDRBLK
  1

  9
$DIMLUNIT
 70
     2
  9
$DIMLWD
 70
    -2
  9
$DIMLWE
 70
    -2
  9
$DIMTMOVE
 70
     0
  9
$LUNITS
 70
     2
  9
$LUPREC
 70
     2
  9
$SKETCHINC
 40
0.1
  9
$FILLETRAD
 40
0.5
  9
$AUNITS
 70
     0
  9
$AUPREC
 70
     2
  9
$MENU
  1
.
  9
$ELEVATION
 40
0.0
  9
$PELEVATION
 40
0.0
  9
$THICKNESS
 40
0.0
  9
$LIMCHECK
 70
     0
  9
$CHAMFERA
 40
0.0
  9
$CHAMFERB
 40
0.0
  9
$CHAMFERC
 40
0.0
  9
$CHAMFERD
 40
0.0
  9
$SKPOLY
 70
     0
  9
$TDCREATE
 40
2457338.900052674
  9
$TDUCREATE
 40
2457339.233386007
  9
$TDUPDATE
 40
2457338.901105173
  9
$TDUUPDATE
 40
2457339.234438507
  9
$TDINDWG
 40
0.0000000116
  9
$TDUSRTIMER
 40
0.0000000116
  9
$USRTIMER
 70
     1
  9
$ANGBASE
 50
0.0
  9
$ANGDIR
 70
     0
  9
$PDMODE
 70
     0
  9
$PDSIZE
 40
-1.0
  9
$PLINEWID
 40
0.0
  9
$SPLFRAME
 70
     0
  9
$SPLINETYPE
 70
     6
  9
$SPLINESEGS
 70
     8
  9
$HANDSEED
  5
11E
  9
$SURFTAB1
 70
     6
  9
$SURFTAB2
 70
     6
  9
$SURFTYPE
 70
     6
  9
$SURFU
 70
     6
  9
$SURFV
 70
     6
  9
$UCSBASE
  2

  9
$UCSNAME
  2

  9
$UCSORG
 10
0.0
 20
0.0
 30
0.0
  9
$UCSXDIR
 10
1.0
 20
0.0
 30
0.0
  9
$UCSYDIR
 10
0.0
 20
1.0
 30
0.0
  9
$UCSORTHOREF
  2

  9
$UCSORTHOVIEW
 70
     0
  9
$UCSORGTOP
 10
0.0
 20
0.0
 30
0.0
  9
$UCSORGBOTTOM
 10
0.0
 20
0.0
 30
0.0
  9
$UCSORGLEFT
 10
0.0
 20
0.0
 30
0.0
  9
$UCSORGRIGHT
 10
0.0
 20
0.0
 30
0.0
  9
$UCSORGFRONT
 10
0.0
 20
0.0
 30
0.0
  9
$UCSORGBACK
 10
0.0
 20
0.0
 30
0.0
  9
$PUCSBASE
  2

  9
$PUCSNAME
  2

  9
$PUCSORG
 10
0.0
 20
0.0
 30
0.0
  9
$PUCSXDIR
 10
1.0
 20
0.0
 30
0.0
  9
$PUCSYDIR
 10
0.0
 20
1.0
 30
0.0
  9
$PUCSORTHOREF
  2

  9
$PUCSORTHOVIEW
 70
     0
  9
$PUCSORGTOP
 10
0.0
 20
0.0
 30
0.0
  9
$PUCSORGBOTTOM
 10
0.0
 20
0.0
 30
0.0
  9
$PUCSORGLEFT
 10
0.0
 20
0.0
 30
0.0
  9
$PUCSORGRIGHT
 10
0.0
 20
0.0
 30
0.0
  9
$PUCSORGFRONT
 10
0.0
 20
0.0
 30
0.0
  9
$PUCSORGBACK
 10
0.0
 20
0.0
 30
0.0
  9
$USERI1
 70
     0
  9
$USERI2
 70
     0
  9
$USERI3
 70
     0
  9
$USERI4
 70
     0
  9
$USERI5
 70
     0
  9
$USERR1
 40
0.0
  9
$USERR2
 40
0.0
  9
$USERR3
 40
0.0
  9
$USERR4
 40
0.0
  9
$USERR5
 40
0.0
  9
$WORLDVIEW
 70
     1
  9
$SHADEDGE
 70
     3
  9
$SHADEDIF
 70
    70
  9
$TILEMODE
 70
     1
  9
$MAXACTVP
 70
    64
  9
$PINSBASE
 10
0.0
 20
0.0
 30
0.0
  9
$PLIMCHECK
 70
     0
  9
$PEXTMIN
 10
1.0000000000E+20
 20
1.0000000000E+20
 30
1.0000000000E+20
  9
$PEXTMAX
 10
-1.0000000000E+20
 20
-1.0000000000E+20
 30
-1.0000000000E+20
  9
$PLIMMIN
 10
0.0
 20
0.0
  9
$PLIMMAX
 10
12.0
 20
9.0
  9
$UNITMODE
 70
     0
  9
$VISRETAIN
 70
     1
  9
$PLINEGEN
 70
     0
  9
$PSLTSCALE
 70
     1
  9
$TREEDEPTH
 70
  3020
  9
$CMLSTYLE
  2
Standard
  9
$CMLJUST
 70
     0
  9
$CMLSCALE
 40
1.0
  9
$PROXYGRAPHICS
 70
     1
  9
$MEASUREMENT
 70
     0
  9
$CELWEIGHT
370
    -1
  9
$ENDCAPS
280
     0
  9
$JOINSTYLE
280
     0
  9
$LWDISPLAY
290
     1
  9
$INSUNITS
 70
     1
  9
$HYPERLINKBASE
  1

  9
$STYLESHEET
  1

  9
$XEDIT
290
     1
  9
$CEPSNTYPE
380
     0
  9
$PSTYLEMODE
290
     1
  9
$FINGERPRINTGUID
  2
{F538E2F4-2B09-412A-80B5-15A7AA1EE1A3}
  9
$VERSIONGUID
  2
{FAEB1C32-E019-11D5-929B-00C0DF256EC4}
  9
$EXTNAMES
290
     1
  9
$PSVPSCALE
 40
0.0
  9
$OLESTARTUP
290
     0
  0
ENDSEC
  0
SECTION
  2
CLASSES
  0
CLASS
  1
ACDBDICTIONARYWDFLT
  2
AcDbDictionaryWithDefault
  3
ObjectDBX Classes
 90
        0
280
     0
281
     0
  0
CLASS
  1
VISUALSTYLE
  2
AcDbVisualStyle
  3
ObjectDBX Classes
 90
     4095
280
     0
281
     0
  0
CLASS
  1
MATERIAL
  2
AcDbMaterial
  3
ObjectDBX Classes
 90
     1153
280
     0
281
     0
  0
CLASS
  1
SCALE
  2
AcDbScale
  3
ObjectDBX Classes
 90
     1153
280
     0
281
     0
  0
CLASS
  1
TABLESTYLE
  2
AcDbTableStyle
  3
ObjectDBX Classes
 90
     4095
280
     0
281
     0
  0
CLASS
  1
MLEADERSTYLE
  2
AcDbMLeaderStyle
  3
ACDB_MLEADERSTYLE_CLASS
 90
     4095
280
     0
281
     0
  0
CLASS
  1
SUN
  2
AcDbSun
  3
SCENEOE
 90
     1153
280
     0
281
     0
  0
CLASS
  1
ACDBPLACEHOLDER
  2
AcDbPlaceHolder
  3
ObjectDBX Classes
 90
        0
280
     0
281
     0
  0
CLASS
  1
LAYOUT
  2
AcDbLayout
  3
ObjectDBX Classes
 90
        0
280
     0
281
     0
  0
ENDSEC
  0
SECTION
  2
TABLES
  0
TABLE
  2
VPORT
  5
8
330
0
100
AcDbSymbolTable
 70
     1
  0
VPORT
  5
29
330
8
100
AcDbSymbolTableRecord
100
AcDbViewportTableRecord
  2
*Active
 70
     0
 10
0.0
 20
0.0
 11
1.0
 21
1.0
 12
0.0
 22
0.0
 13
0.0
 23
0.0
 14
0.5
 24
0.5
 15
0.5
 25
0.5
 16
0.0
 26
0.0
 36
1.0
 17
0.0
 27
0.0
 37
0.0
 40
3.2202810834
 41
3.8800960775
 42
50.0
 43
0.0
 44
0.0
 50
0.0
 51
0.0
 71
     0
 72
   100
 73
     1
 74
     3
 75
     0
 76
     0
 77
     0
 78
     0
281
     0
 65
     1
110
0.0
120
0.0
130
0.0
111
1.0
121
0.0
131
0.0
112
0.0
122
1.0
132
0.0
 79
     0
146
0.0
  0
ENDTAB
  0
TABLE
  2
LTYPE
  5
5
330
0
100
AcDbSymbolTable
 70
     6
  0
LTYPE
  5
14
330
5
100
AcDbSymbolTableRecord
100
AcDbLinetypeTableRecord
  2
ByBlock
 70
     0
  3

 72
    65
 73
     0
 40
0.0
  0
LTYPE
  5
15
330
5
100
AcDbSymbolTableRecord
100
AcDbLinetypeTableRecord
  2
ByLayer
 70
     0
  3

 72
    65
 73
     0
 40
0.0
  0
LTYPE
  5
16
330
5
100
AcDbSymbolTableRecord
100
AcDbLinetypeTableRecord
  2
Continuous
 70
     0
  3
Solid line
 72
    65
 73
     0
 40
0.0
  0
LTYPE
  5
6E
330
5
100
AcDbSymbolTableRecord
100
AcDbLinetypeTableRecord
  2
HIDDEN
 70
     0
  3
Hidden __ __ __ __ __ __ __ __ __ __ __ __ __ __
 72
    65
 73
     2
 40
0.075
 49
0.05
 74
     0
 49
-0.025
 74
     0
  0
LTYPE
  5
6F
330
5
100
AcDbSymbolTableRecord
100
AcDbLinetypeTableRecord
  2
PHANTOM
 70
     0
  3
Phantom ______  __  __  ______  __  __  ______
 72
    65
 73
     6
 40
0.5
 49
0.25
 74
     0
 49
-0.05
 74
     0
 49
0.05
 74
     0
 49
-0.05
 74
     0
 49
0.05
 74
     0
 49
-0.05
 74
     0
  0
LTYPE
  5
70
330
5
100
AcDbSymbolTableRecord
100
AcDbLinetypeTableRecord
  2
CENTER
 70
     0
  3
Center ____ _ ____ _ ____ _ ____ _ ____ _ ____
 72
    65
 73
     4
 40
0.4
 49
0.25
 74
     0
 49
-0.05
 74
     0
 49
0.05
 74
     0
 49
-0.05
 74
     0
  0
LTYPE
  5
71
330
5
100
AcDbSymbolTableRecord
100
AcDbLinetypeTableRecord
  2
CENTERX2
 70
     0
  3
Center (2x) ________  __  ________  __  _____
 72
    65
 73
     4
 40
0.8
 49
0.5
 74
     0
 49
-0.1
 74
     0
 49
0.1
 74
     0
 49
-0.1
 74
     0
  0
LTYPE
  5
72
330
5
100
AcDbSymbolTableRecord
100
AcDbLinetypeTableRecord
  2
DOT2
 70
     0
  3
Dot (.5x) ........................................
 72
    65
 73
     2
 40
0.025
 49
0.0
 74
     0
 49
-0.025
 74
     0
  0
ENDTAB
  0
TABLE
  2
LAYER
  5
2
330
0
100
AcDbSymbolTable
 70
     1
  0
LAYER
  5
10
330
2
100
AcDbSymbolTableRecord
100
AcDbLayerTableRecord
  2
0
 70
     0
 62
     7
  6
Continuous
370
    -3
390
F
  0
ENDTAB
  0
TABLE
  2
STYLE
  5
3
330
0
100
AcDbSymbolTable
 70
     2
  0
STYLE
  5
11
330
3
100
AcDbSymbolTableRecord
100
AcDbTextStyleTableRecord
  2
Standard
 70
     0
 40
0.0
 41
1.0
 50
0.0
 71
     0
 42
0.125
  3
txt
  4

  0
STYLE
  5
11B
330
3
100
AcDbSymbolTableRecord
100
AcDbTextStyleTableRecord
  2
SLDTEXTSTYLE0
 70
     0
 40
0.0
 41
0.7
 50
0.0
 71
     0
 42
0.125
  3
TXT
  4

  0
ENDTAB
  0
TABLE
  2
VIEW
  5
6
330
0
100
AcDbSymbolTable
 70
     0
  0
ENDTAB
  0
TABLE
  2
UCS
  5
7
330
0
100
AcDbSymbolTable
 70
     0
  0
ENDTAB
  0
TABLE
  2
APPID
  5
9
330
0
100
AcDbSymbolTable
 70
     1
  0
APPID
  5
12
330
9
100
AcDbSymbolTableRecord
100
AcDbRegAppTableRecord
  2
ACAD
 70
     0
  0
ENDTAB
  0
TABLE
  2
DIMSTYLE
  5
A
330
0
100
AcDbSymbolTable
 70
     1
100
AcDbDimStyleTable
  0
DIMSTYLE
105
27
330
A
100
AcDbSymbolTableRecord
100
AcDbDimStyleTableRecord
  2
Standard
 70
     0
178
     0
340
11
  0
ENDTAB
  0
TABLE
  2
BLOCK_RECORD
  5
1
330
0
100
AcDbSymbolTable
 70
     1
  0
BLOCK_RECORD
  5
1F
330
1
100
AcDbSymbolTableRecord
100
AcDbBlockTableRecord
  2
*Model_Space
340
22
  0
BLOCK_RECORD
  5
1B
330
1
100
AcDbSymbolTableRecord
100
AcDbBlockTableRecord
  2
*Paper_Space
340
1E
  0
BLOCK_RECORD
  5
23
330
1
100
AcDbSymbolTableRecord
100
AcDbBlockTableRecord
  2
*Paper_Space0
340
26
  0
ENDTAB
  0
ENDSEC
  0
SECTION
  2
BLOCKS
  0
BLOCK
  5
20
330
1F
100
AcDbEntity
  8
0
100
AcDbBlockBegin
  2
*Model_Space
 70
     0
 10
0.0
 20
0.0
 30
0.0
  3
*Model_Space
  1

  0
ENDBLK
  5
21
330
1F
100
AcDbEntity
  8
0
100
AcDbBlockEnd
  0
BLOCK
  5
1C
330
1B
100
AcDbEntity
 67
     1
  8
0
100
AcDbBlockBegin
  2
*Paper_Space
 70
     0
 10
0.0
 20
0.0
 30
0.0
  3
*Paper_Space
  1

  0
ENDBLK
  5
1D
330
1B
100
AcDbEntity
 67
     1
  8
0
100
AcDbBlockEnd
  0
BLOCK
  5
24
330
23
100
AcDbEntity
  8
0
100
AcDbBlockBegin
  2
*Paper_Space0
 70
     0
 10
0.0
 20
0.0
 30
0.0
  3
*Paper_Space0
  1

  0
ENDBLK
  5
25
330
23
100
AcDbEntity
  8
0
100
AcDbBlockEnd
  0
ENDSEC
  0
SECTION
  2
ENTITIES
  0
SPLINE
  5
73
330
1F
100
AcDbEntity
  8
0
  6
Continuous
 62
     7
370
    15
100
AcDbSpline
210
0.0
220
0.0
230
1.0
 70
     8
 71
     3
 72
    16
 73
    12
 74
     0
 42
0.000000001
 43
0.00000001
 40
0.0
 40
0.0
 40
0.0
 40
0.0
 40
0.1249999999999851
 40
0.1249999999999851
 40
0.2499999999999701
 40
0.2499999999999701
 40
0.4999999999999801
 40
0.4999999999999801
 40
0.7499999999999901
 40
0.7499999999999901
 40
1.0
 40
1.0
 40
1.0
 40
1.0
 10
5.57499999999999
 20
1.078569158506057
 30
0.0
 10
5.57835859725614
 20
1.078569158506057
 30
0.0
 10
5.581657628032431
 20
1.07823420048091
 30
0.0
 10
5.588141922048498
 20
1.076924409412792
 30
0.0
 10
5.591362139279153
 20
1.075931864878402
 30
0.0
 10
5.600508887991863
 20
1.072078684592104
 30
0.0
 10
5.606064603801459
 20
1.068285248038794
 30
0.0
 10
5.615198366174655
 20
1.059007107418592
 30
0.0
 10
5.618848183180582
 20
1.053444605201624
 30
0.0
 10
5.623719542836341
 20
1.041525128649573
 30
0.0
 10
5.624999999999988
 20
1.035068298785335
 30
0.0
 10
5.624999999999989
 20
1.028569158506058
 30
0.0
  0
SPLINE
  5
75
330
1F
100
AcDbEntity
  8
0
  6
Continuous
 62
     7
370
    15
100
AcDbSpline
210
0.0
220
0.0
230
1.0
 70
     8
 71
     3
 72
    14
 73
    10
 74
     0
 42
0.000000001
 43
0.00000001
 40
0.0
 40
0.0
 40
0.0
 40
0.0
 40
0.25
 40
0.25
 40
0.5
 40
0.5
 40
0.75
 40
0.75
 40
1.0
 40
1.0
 40
1.0
 40
1.0
 10
5.306745332725461
 20
1.054463308793403
 30
0.0
 10
5.308948552858072
 20
1.058102640163331
 30
0.0
 10
5.311570720069223
 20
1.061402416864764
 30
0.0
 10
5.317647539043424
 20
1.067328563537214
 30
0.0
 10
5.321115001637345
 20
1.069938615895732
 30
0.0
 10
5.328524924791563
 20
1.074148229507715
 30
0.0
 10
5.332579714018553
 20
1.07580884012659
 30
0.0
 10
5.340893962297942
 20
1.078007174786573
 30
0.0
 10
5.345152741606636
 20
1.078569158506057
 30
0.0
 10
5.349517905489984
 20
1.078569158506056
 30
0.0
  0
SPLINE
  5
7B
330
1F
100
AcDbEntity
  8
0
  6
Continuous
 62
     7
370
    15
100
AcDbSpline
210
0.0
220
0.0
230
1.0
 70
     8
 71
     3
 72
    14
 73
    10
 74
     0
 42
0.000000001
 43
0.00000001
 40
0.0
 40
0.0
 40
0.0
 40
0.0
 40
0.25
 40
0.25
 40
0.5
 40
0.5
 40
0.75
 40
0.75
 40
1.0
 40
1.0
 40
1.0
 40
1.0
 10
5.349568491477791
 20
-1.07856915850589
 30
0.0
 10
5.345202376446695
 20
-1.078569158505889
 30
0.0
 10
5.34093625046162
 20
-1.078006906365056
 30
0.0
 10
5.332596771931454
 20
-1.075798039860292
 30
0.0
 10
5.328556075156636
 20
-1.07414000628936
 30
0.0
 10
5.321134952814079
 20
-1.069918374779198
 30
0.0
 10
5.317660433648066
 20
-1.067296760849643
 30
0.0
 10
5.311598791255397
 20
-1.061375456724105
 30
0.0
 10
5.308954449060898
 20
-1.058041319898573
 30
0.0
 10
5.306756221401099
 20
-1.054397622085445
 30
0.0
  0
SPLINE
  5
7D
330
1F
100
AcDbEntity
  8
0
  6
Continuous
 62
     7
370
    15
100
AcDbSpline
210
0.0
220
0.0
230
1.0
 70
     8
 71
     3
 72
    18
 73
    14
 74
     0
 42
0.000000001
 43
0.00000001
 40
0.0
 40
0.0
 40
0.0
 40
0.0
 40
0.2499999999999987
 40
0.2499999999999987
 40
0.3750000000000056
 40
0.3750000000000056
 40
0.5000000000000124
 40
0.5000000000000124
 40
0.6250000000000192
 40
0.6250000000000192
 40
0.7500000000000261
 40
0.7500000000000261
 40
1.0
 40
1.0
 40
1.0
 40
1.0
 10
5.625000000000012
 20
-1.028569158505888
 30
0.0
 10
5.62500000000001
 20
-1.035071959550351
 30
0.0
 10
5.623748813901628
 20
-1.041438748631397
 30
0.0
 10
5.620075704363223
 20
-1.050448353597651
 30
0.0
 10
5.618574694247953
 20
-1.053302129662997
 30
0.0
 10
5.615022696268826
 20
-1.058713106894151
 30
0.0
 10
5.612943948626252
 20
-1.061293917239026
 30
0.0
 10
5.608367654311956
 20
-1.065949002234978
 30
0.0
 10
5.605867056343222
 20
-1.068041188454844
 30
0.0
 10
5.600430831132898
 20
-1.071744257156351
 30
0.0
 10
5.597484636969589
 20
-1.073349667185324
 30
0.0
 10
5.588379927595074
 20
-1.077194141452115
 30
0.0
 10
5.58172152370778
 20
-1.078569158505888
 30
0.0
 10
5.575000000000013
 20
-1.078569158505889
 30
0.0
  0
SPLINE
  5
7F
330
1F
100
AcDbEntity
  8
0
  6
Continuous
 62
     7
370
    15
100
AcDbSpline
210
0.0
220
0.0
230
1.0
 70
     8
 71
     3
 72
    14
 73
    10
 74
     0
 42
0.000000001
 43
0.00000001
 40
0.0
 40
0.0
 40
0.0
 40
0.0
 40
0.25
 40
0.25
 40
0.5
 40
0.5
 40
0.75
 40
0.75
 40
1.0
 40
1.0
 40
1.0
 40
1.0
 10
-4.573254667274538
 20
1.054463308793298
 30
0.0
 10
-4.571051447141927
 20
1.058102640163226
 30
0.0
 10
-4.568429279930776
 20
1.06140241686466
 30
0.0
 10
-4.562352460956574
 20
1.067328563537109
 30
0.0
 10
-4.558884998362657
 20
1.069938615895626
 30
0.0
 10
-4.551475075208439
 20
1.074148229507608
 30
0.0
 10
-4.54742028598145
 20
1.075808840126483
 30
0.0
 10
-4.539106037702063
 20
1.078007174786467
 30
0.0
 10
-4.534847258393365
 20
1.078569158505951
 30
0.0
 10
-4.530482094510018
 20
1.078569158505952
 30
0.0
  0
SPLINE
  5
85
330
1F
100
AcDbEntity
  8
0
  6
Continuous
 62
     7
370
    15
100
AcDbSpline
210
0.0
220
0.0
230
1.0
 70
     8
 71
     3
 72
    14
 73
    10
 74
     0
 42
0.000000001
 43
0.00000001
 40
0.0
 40
0.0
 40
0.0
 40
0.0
 40
0.25
 40
0.25
 40
0.5
 40
0.5
 40
0.75
 40
0.75
 40
1.0
 40
1.0
 40
1.0
 40
1.0
 10
-4.530482094509995
 20
-1.078569158506044
 30
0.0
 10
-4.534841644189025
 20
-1.078569158506044
 30
0.0
 10
-4.539101500367814
 20
-1.078008568165433
 30
0.0
 10
-4.547429027520462
 20
-1.075806335034171
 30
0.0
 10
-4.551464972392736
 20
-1.074153015104745
 30
0.0
 10
-4.558878201751861
 20
-1.069943428773462
 30
0.0
 10
-4.562350008325659
 20
-1.067329146441699
 30
0.0
 10
-4.568409854812628
 20
-1.061423162739329
 30
0.0
 10
-4.571054070555374
 20
-1.058098306746614
 30
0.0
 10
-4.573254667274517
 20
-1.054463308793392
 30
0.0
  0
SPLINE
  5
87
330
1F
100
AcDbEntity
  8
0
  6
Continuous
 62
     7
370
    15
100
AcDbSpline
210
0.0
220
0.0
230
1.0
 70
     8
 71
     3
 72
    14
 73
    10
 74
     0
 42
0.000000001
 43
0.00000001
 40
0.0
 40
0.0
 40
0.0
 40
0.0
 40
0.25
 40
0.25
 40
0.5
 40
0.5
 40
0.75
 40
0.75
 40
1.0
 40
1.0
 40
1.0
 40
1.0
 10
-1.676756221401078
 20
-1.054397622085568
 30
0.0
 10
-1.678957165546938
 20
-1.058045822641752
 30
0.0
 10
-1.68157880967769
 20
-1.06135408457189
 30
0.0
 10
-1.687658149568527
 20
-1.067296376062295
 30
0.0
 10
-1.691128186002715
 20
-1.069913583951804
 30
0.0
 10
-1.698546195409987
 20
-1.074135325329606
 30
0.0
 10
-1.702606922086413
 20
-1.075800989823927
 30
0.0
 10
-1.710931777349778
 20
-1.078005459894094
 30
0.0
 10
-1.715196551719453
 20
-1.078569158506015
 30
0.0
 10
-1.71956849147777
 20
-1.078569158506015
 30
0.0
  0
SPLINE
  5
8D
330
1F
100
AcDbEntity
  8
0
  6
Continuous
 62
     7
370
    15
100
AcDbSpline
210
0.0
220
0.0
230
1.0
 70
     8
 71
     3
 72
    14
 73
    10
 74
     0
 42
0.000000001
 43
0.00000001
 40
0.0
 40
0.0
 40
0.0
 40
0.0
 40
0.25
 40
0.25
 40
0.5
 40
0.5
 40
0.75
 40
0.75
 40
1.0
 40
1.0
 40
1.0
 40
1.0
 10
-1.719517905490006
 20
1.078569158505981
 30
0.0
 10
-1.715158355810974
 20
1.078569158505981
 30
0.0
 10
-1.710898499632186
 20
1.07800856816537
 30
0.0
 10
-1.702570972479537
 20
1.075806335034106
 30
0.0
 10
-1.698535027607263
 20
1.074153015104681
 30
0.0
 10
-1.691121798248137
 20
1.069943428773398
 30
0.0
 10
-1.687649991674341
 20
1.067329146441634
 30
0.0
 10
-1.681590145187372
 20
1.061423162739264
 30
0.0
 10
-1.678945929444628
 20
1.058098306746551
 30
0.0
 10
-1.676745332725484
 20
1.054463308793328
 30
0.0
  0
SPLINE
  5
8F
330
1F
100
AcDbEntity
  8
0
  6
Continuous
 62
     7
370
    15
100
AcDbSpline
210
0.0
220
0.0
230
1.0
 70
     8
 71
     3
 72
    16
 73
    12
 74
     0
 42
0.000000001
 43
0.00000001
 40
0.0
 40
0.0
 40
0.0
 40
0.0
 40
0.1249999999999952
 40
0.1249999999999952
 40
0.2499999999999903
 40
0.2499999999999903
 40
0.4999999999999936
 40
0.4999999999999936
 40
0.7499999999999968
 40
0.7499999999999968
 40
1.0
 40
1.0
 40
1.0
 40
1.0
 10
4.008790498158713
 20
-1.078569158505954
 30
0.0
 10
4.004223804248895
 20
-1.078569158505953
 30
0.0
 10
3.999766327979748
 20
-1.077955015957414
 30
0.0
 10
3.991062606052862
 20
-1.075538514527919
 30
0.0
 10
3.986880385188146
 20
-1.073734317013441
 30
0.0
 10
3.975394121504679
 20
-1.066837427345025
 30
0.0
 10
3.969017559958258
 20
-1.06012012570686
 30
0.0
 10
3.960638468218618
 20
-1.044654311817568
 30
0.0
 10
3.958555931921296
 20
-1.035872697045027
 30
0.0
 10
3.959067666309084
 20
-1.018346961427698
 30
0.0
 10
3.961643227779712
 20
-1.009679041261484
 30
0.0
 10
3.966368527506023
 20
-1.002104532947628
 30
0.0
  0
SPLINE
  5
91
330
1F
100
AcDbEntity
  8
0
  6
Continuous
 62
     7
370
    15
100
AcDbSpline
210
0.0
220
0.0
230
1.0
 70
     8
 71
     3
 72
    22
 73
    18
 74
     0
 42
0.000000001
 43
0.00000001
 40
0.0
 40
0.0
 40
0.0
 40
0.0
 40
0.125
 40
0.125
 40
0.25
 40
0.25
 40
0.375
 40
0.375
 40
0.5
 40
0.5
 40
0.625
 40
0.625
 40
0.75
 40
0.75
 40
0.875
 40
0.875
 40
1.0
 40
1.0
 40
1.0
 40
1.0
 10
4.793377513393717
 20
-1.001820572346994
 30
0.0
 10
4.795775311318026
 20
-1.005607365848904
 30
0.0
 10
4.79761001104026
 20
-1.009611443193748
 30
0.0
 10
4.800209166685567
 20
-1.018031480111673
 30
0.0
 10
4.800949694658079
 20
-1.022442368084054
 30
0.0
 10
4.801256743258769
 20
-1.031186717043769
 30
0.0
 10
4.800825111486806
 20
-1.03564268682841
 30
0.0
 10
4.798834519584651
 20
-1.044186512139297
 30
0.0
 10
4.797281785838569
 20
-1.048321822195675
 30
0.0
 10
4.79307033555073
 20
-1.056157733914547
 30
0.0
 10
4.790485865436181
 20
-1.059734813144001
 30
0.0
 10
4.784352791852164
 20
-1.066203969832649
 30
0.0
 10
4.780817924264815
 20
-1.06905207447331
 30
0.0
 10
4.773162233102806
 20
-1.073677456616247
 30
0.0
 10
4.768931882391002
 20
-1.075511151352992
 30
0.0
 10
4.760250121285783
 20
-1.077937279582183
 30
0.0
 10
4.755718583504428
 20
-1.078569158505945
 30
0.0
 10
4.751134015213558
 20
-1.078569158505945
 30
0.0
  0
SPLINE
  5
93
330
1F
100
AcDbEntity
  8
0
  6
Continuous
 62
     7
370
    15
100
AcDbSpline
210
0.0
220
0.0
230
1.0
 70
     8
 71
     3
 72
    14
 73
    10
 74
     0
 42
0.000000001
 43
0.00000001
 40
0.0
 40
0.0
 40
0.0
 40
0.0
 40
0.25
 40
0.25
 40
0.5
 40
0.5
 40
0.75
 40
0.75
 40
1.0
 40
1.0
 40
1.0
 40
1.0
 10
4.448376797666223
 20
-0.5004308414939537
 30
0.0
 10
4.452619298670269
 20
-0.5004308414939536
 30
0.0
 10
4.456770505338644
 20
-0.5009622115204178
 30
0.0
 10
4.464896345621304
 20
-0.5030525319493068
 30
0.0
 10
4.468864890947923
 20
-0.504630525949119
 30
0.0
 10
4.476176915252161
 20
-0.5086626199309746
 30
0.0
 10
4.479623507906803
 20
-0.5111736808500876
 30
0.0
 10
4.485709476044594
 20
-0.5169084208210053
 30
0.0
 10
4.488364180010262
 20
-0.520119217473823
 30
0.0
 10
4.490620295846383
 20
-0.5236822553350027
 30
0.0
  0
SPLINE
  5
95
330
1F
100
AcDbEntity
  8
0
  6
Continuous
 62
     7
370
    15
100
AcDbSpline
210
0.0
220
0.0
230
1.0
 70
     8
 71
     3
 72
    14
 73
    10
 74
     0
 42
0.000000001
 43
0.00000001
 40
0.0
 40
0.0
 40
0.0
 40
0.0
 40
0.25
 40
0.25
 40
0.5
 40
0.5
 40
0.75
 40
0.75
 40
1.0
 40
1.0
 40
1.0
 40
1.0
 10
4.264651500459061
 20
-0.5239662159356291
 30
0.0
 10
4.266898757489695
 20
-0.5203639328958602
 30
0.0
 10
4.269552215804592
 20
-0.517116029656531
 30
0.0
 10
4.275650695791262
 20
-0.5113114028637027
 30
0.0
 10
4.279109720676245
 20
-0.5087692491360843
 30
0.0
 10
4.286455929531578
 20
-0.5046861522349554
 30
0.0
 10
4.290448352502671
 20
-0.503087026820069
 30
0.0
 10
4.298623983431042
 20
-0.5009693664393755
 30
0.0
 10
4.302802035688096
 20
-0.5004308414939552
 30
0.0
 10
4.30707347111175
 20
-0.500430841493955
 30
0.0
  0
SPLINE
  5
97
330
1F
100
AcDbEntity
  8
0
  6
Continuous
 62
     7
370
    15
100
AcDbSpline
210
0.0
220
0.0
230
1.0
 70
     8
 71
     3
 72
    14
 73
    10
 74
     0
 42
0.000000001
 43
0.00000001
 40
0.0
 40
0.0
 40
0.0
 40
0.0
 40
0.25
 40
0.25
 40
0.5
 40
0.5
 40
0.75
 40
0.75
 40
1.0
 40
1.0
 40
1.0
 40
1.0
 10
4.490620295846371
 20
0.5236822553351005
 30
0.0
 10
4.488364178535245
 20
0.5201192151444733
 30
0.0
 10
4.485709565106597
 20
0.5169085622644831
 30
0.0
 10
4.479624147570901
 20
0.5111742260842008
 30
0.0
 10
4.476177243683969
 20
0.5086629412399266
 30
0.0
 10
4.468867137730681
 20
0.5046316247489238
 30
0.0
 10
4.464901026823249
 20
0.5030539907451845
 30
0.0
 10
4.456771511313406
 20
0.5009622158926027
 30
0.0
 10
4.452619305163934
 20
0.5004308414940508
 30
0.0
 10
4.44837679766621
 20
0.5004308414940506
 30
0.0
  0
SPLINE
  5
99
330
1F
100
AcDbEntity
  8
0
  6
Continuous
 62
     7
370
    15
100
AcDbSpline
210
0.0
220
0.0
230
1.0
 70
     8
 71
     3
 72
    16
 73
    12
 74
     0
 42
0.000000001
 43
0.00000001
 40
0.0
 40
0.0
 40
0.0
 40
0.0
 40
0.125
 40
0.125
 40
0.25
 40
0.25
 40
0.5
 40
0.5
 40
0.75
 40
0.75
 40
1.0
 40
1.0
 40
1.0
 40
1.0
 10
4.751134015213534
 20
1.07856915850605
 30
0.0
 10
4.755715056193247
 20
1.07856915850605
 30
0.0
 10
4.760186204689768
 20
1.077951221485938
 30
0.0
 10
4.768915914457293
 20
1.075519497564976
 30
0.0
 10
4.773107988595688
 20
1.073704688057384
 30
0.0
 10
4.784619081958266
 20
1.066766494033767
 30
0.0
 10
4.790999576533007
 20
1.06000996785966
 30
0.0
 10
4.79935085966438
 20
1.044472723619875
 30
0.0
 10
4.801405288693904
 20
1.035655919714302
 30
0.0
 10
4.800804437545287
 20
1.018068098219279
 30
0.0
 10
4.79816945981737
 20
1.009388395888314
 30
0.0
 10
4.793377513393695
 20
1.0018205723471
 30
0.0
  0
SPLINE
  5
9B
330
1F
100
AcDbEntity
  8
0
  6
Continuous
 62
     7
370
    15
100
AcDbSpline
210
0.0
220
0.0
230
1.0
 70
     8
 71
     3
 72
    22
 73
    18
 74
     0
 42
0.000000001
 43
0.00000001
 40
0.0
 40
0.0
 40
0.0
 40
0.0
 40
0.125
 40
0.125
 40
0.25
 40
0.25
 40
0.375
 40
0.375
 40
0.5
 40
0.5
 40
0.625
 40
0.625
 40
0.75
 40
0.75
 40
0.875
 40
0.875
 40
1.0
 40
1.0
 40
1.0
 40
1.0
 10
3.966368527506001
 20
1.002104532947715
 30
0.0
 10
3.964004059114998
 20
1.005894702148153
 30
0.0
 10
3.962200385452432
 20
1.009897096159653
 30
0.0
 10
3.959658894163496
 20
1.01830416931419
 30
0.0
 10
3.958944378622927
 20
1.022705494046577
 30
0.0
 10
3.958681907632336
 20
1.031423514673195
 30
0.0
 10
3.95913233508896
 20
1.035862680281146
 30
0.0
 10
3.961152755583581
 20
1.0443734016607
 30
0.0
 10
3.962714199794916
 20
1.048485518659695
 30
0.0
 10
3.966941312879422
 20
1.056287967357417
 30
0.0
 10
3.969529191101004
 20
1.059846576210132
 30
0.0
 10
3.975657214617519
 20
1.066277415054103
 30
0.0
 10
3.979190365208488
 20
1.069111790023774
 30
0.0
 10
3.986829624859173
 20
1.073708862592077
 30
0.0
 10
3.991048531663413
 20
1.075531084635366
 30
0.0
 10
3.999707951828628
 20
1.077942301337524
 30
0.0
 10
4.004220231197109
 20
1.078569158506042
 30
0.0
 10
4.008790498158689
 20
1.078569158506042
 30
0.0
  0
SPLINE
  5
9D
330
1F
100
AcDbEntity
  8
0
  6
Continuous
 62
     7
370
    15
100
AcDbSpline
210
0.0
220
0.0
230
1.0
 70
     8
 71
     3
 72
    14
 73
    10
 74
     0
 42
0.000000001
 43
0.00000001
 40
0.0
 40
0.0
 40
0.0
 40
0.0
 40
0.25
 40
0.25
 40
0.5
 40
0.5
 40
0.75
 40
0.75
 40
1.0
 40
1.0
 40
1.0
 40
1.0
 10
4.307073471111739
 20
0.5004308414940495
 30
0.0
 10
4.302802027352572
 20
0.5004308414940493
 30
0.0
 10
4.298623107969488
 20
0.5009693710267332
 30
0.0
 10
4.290444297861159
 20
0.503088299367255
 30
0.0
 10
4.286453805681859
 20
0.5046870063249881
 30
0.0
 10
4.279105910462273
 20
0.508771693522289
 30
0.0
 10
4.275644544377115
 20
0.51131669516037
 30
0.0
 10
4.269551344678544
 20
0.5171174221703854
 30
0.0
 10
4.266898758729903
 20
0.5203639309079199
 30
0.0
 10
4.26465150045905
 20
0.5239662159357229
 30
0.0
  0
SPLINE
  5
9F
330
1F
100
AcDbEntity
  8
0
  6
Continuous
 62
     7
370
    15
100
AcDbSpline
210
0.0
220
0.0
230
1.0
 70
     8
 71
     3
 72
    14
 73
    10
 74
     0
 42
0.000000001
 43
0.00000001
 40
0.0
 40
0.0
 40
0.0
 40
0.0
 40
0.25
 40
0.25
 40
0.5
 40
0.5
 40
0.75
 40
0.75
 40
1.0
 40
1.0
 40
1.0
 40
1.0
 10
-0.6346515004590593
 20
0.5239662159356703
 30
0.0
 10
-0.6368987574896928
 20
0.5203639328959015
 30
0.0
 10
-0.6395522158045915
 20
0.5171160296565698
 30
0.0
 10
-0.6456506957912617
 20
0.5113114028637422
 30
0.0
 10
-0.6491097206762461
 20
0.5087692491361242
 30
0.0
 10
-0.6564559295315783
 20
0.5046861522349956
 30
0.0
 10
-0.6604483525026706
 20
0.5030870268201095
 30
0.0
 10
-0.6686239834310419
 20
0.5009693664394164
 30
0.0
 10
-0.6728020356880942
 20
0.5004308414939962
 30
0.0
 10
-0.6770734711117478
 20
0.500430841493996
 30
0.0
  0
SPLINE
  5
A1
330
1F
100
AcDbEntity
  8
0
  6
Continuous
 62
     7
370
    15
100
AcDbSpline
210
0.0
220
0.0
230
1.0
 70
     8
 71
     3
 72
    16
 73
    12
 74
     0
 42
0.000000001
 43
0.00000001
 40
0.0
 40
0.0
 40
0.0
 40
0.0
 40
0.125
 40
0.125
 40
0.25
 40
0.25
 40
0.5
 40
0.5
 40
0.75
 40
0.75
 40
1.0
 40
1.0
 40
1.0
 40
1.0
 10
-0.3787904981587106
 20
1.078569158505995
 30
0.0
 10
-0.3742238042488935
 20
1.078569158505995
 30
0.0
 10
-0.3697663279797466
 20
1.077955015957455
 30
0.0
 10
-0.3610626060528601
 20
1.075538514527961
 30
0.0
 10
-0.356880385188144
 20
1.073734317013482
 30
0.0
 10
-0.345394121504676
 20
1.066837427345066
 30
0.0
 10
-0.3390175599582548
 20
1.060120125706901
 30
0.0
 10
-0.3306384682186158
 20
1.044654311817609
 30
0.0
 10
-0.3285559319212942
 20
1.035872697045068
 30
0.0
 10
-0.3290676663090826
 20
1.018346961427738
 30
0.0
 10
-0.3316432277797118
 20
1.009679041261526
 30
0.0
 10
-0.336368527506021
 20
1.002104532947669
 30
0.0
  0
SPLINE
  5
A3
330
1F
100
AcDbEntity
  8
0
  6
Continuous
 62
     7
370
    15
100
AcDbSpline
210
0.0
220
0.0
230
1.0
 70
     8
 71
     3
 72
    22
 73
    18
 74
     0
 42
0.000000001
 43
0.00000001
 40
0.0
 40
0.0
 40
0.0
 40
0.0
 40
0.125
 40
0.125
 40
0.25
 40
0.25
 40
0.375
 40
0.375
 40
0.5
 40
0.5
 40
0.625
 40
0.625
 40
0.75
 40
0.75
 40
0.875
 40
0.875
 40
1.0
 40
1.0
 40
1.0
 40
1.0
 10
-1.163377513393716
 20
1.001820572347036
 30
0.0
 10
-1.165775311318027
 20
1.005607365848947
 30
0.0
 10
-1.167610011040259
 20
1.00961144319379
 30
0.0
 10
-1.170209166685567
 20
1.018031480111715
 30
0.0
 10
-1.170949694658078
 20
1.022442368084096
 30
0.0
 10
-1.171256743258767
 20
1.031186717043811
 30
0.0
 10
-1.170825111486805
 20
1.035642686828451
 30
0.0
 10
-1.168834519584651
 20
1.044186512139338
 30
0.0
 10
-1.167281785838568
 20
1.048321822195716
 30
0.0
 10
-1.163070335550731
 20
1.056157733914588
 30
0.0
 10
-1.16048586543618
 20
1.059734813144042
 30
0.0
 10
-1.154352791852164
 20
1.066203969832691
 30
0.0
 10
-1.150817924264815
 20
1.069052074473352
 30
0.0
 10
-1.143162233102805
 20
1.073677456616289
 30
0.0
 10
-1.138931882391001
 20
1.075511151353034
 30
0.0
 10
-1.130250121285783
 20
1.077937279582225
 30
0.0
 10
-1.125718583504426
 20
1.078569158505987
 30
0.0
 10
-1.121134015213557
 20
1.078569158505987
 30
0.0
  0
SPLINE
  5
A5
330
1F
100
AcDbEntity
  8
0
  6
Continuous
 62
     7
370
    15
100
AcDbSpline
210
0.0
220
0.0
230
1.0
 70
     8
 71
     3
 72
    14
 73
    10
 74
     0
 42
0.000000001
 43
0.00000001
 40
0.0
 40
0.0
 40
0.0
 40
0.0
 40
0.25
 40
0.25
 40
0.5
 40
0.5
 40
0.75
 40
0.75
 40
1.0
 40
1.0
 40
1.0
 40
1.0
 10
-0.8183767976662218
 20
0.5004308414939945
 30
0.0
 10
-0.8226192986702675
 20
0.5004308414939943
 30
0.0
 10
-0.8267705053386434
 20
0.5009622115204585
 30
0.0
 10
-0.8348963456213061
 20
0.5030525319493475
 30
0.0
 10
-0.8388648909479217
 20
0.5046305259491594
 30
0.0
 10
-0.8461769152521595
 20
0.508662619931015
 30
0.0
 10
-0.8496235079068017
 20
0.5111736808501278
 30
0.0
 10
-0.8557094760445932
 20
0.5169084208210448
 30
0.0
 10
-0.8583641800102623
 20
0.5201192174738638
 30
0.0
 10
-0.8606202958463824
 20
0.5236822553350435
 30
0.0
  0
SPLINE
  5
A7
330
1F
100
AcDbEntity
  8
0
  6
Continuous
 62
     7
370
    15
100
AcDbSpline
210
0.0
220
0.0
230
1.0
 70
     8
 71
     3
 72
    16
 73
    12
 74
     0
 42
0.000000001
 43
0.00000001
 40
0.0
 40
0.0
 40
0.0
 40
0.0
 40
0.125
 40
0.125
 40
0.25
 40
0.25
 40
0.5
 40
0.5
 40
0.75
 40
0.75
 40
1.0
 40
1.0
 40
1.0
 40
1.0
 10
-5.128865984786465
 20
1.078569158505945
 30
0.0
 10
-5.124284943806751
 20
1.078569158505945
 30
0.0
 10
-5.119813795310233
 20
1.077951221485834
 30
0.0
 10
-5.111084085542704
 20
1.075519497564871
 30
0.0
 10
-5.106892011404309
 20
1.073704688057279
 30
0.0
 10
-5.095380918041732
 20
1.066766494033663
 30
0.0
 10
-5.08900042346699
 20
1.060009967859555
 30
0.0
 10
-5.080649140335617
 20
1.044472723619769
 30
0.0
 10
-5.078594711306095
 20
1.035655919714195
 30
0.0
 10
-5.079195562454714
 20
1.018068098219172
 30
0.0
 10
-5.081830540182629
 20
1.00938839588821
 30
0.0
 10
-5.086622486606305
 20
1.001820572346995
 30
0.0
  0
SPLINE
  5
A9
330
1F
100
AcDbEntity
  8
0
  6
Continuous
 62
     7
370
    15
100
AcDbSpline
210
0.0
220
0.0
230
1.0
 70
     8
 71
     3
 72
    18
 73
    14
 74
     0
 42
0.000000001
 43
0.00000001
 40
0.0
 40
0.0
 40
0.0
 40
0.0
 40
0.2499999999999986
 40
0.2499999999999986
 40
0.3750000000000054
 40
0.3750000000000054
 40
0.5000000000000123
 40
0.5000000000000123
 40
0.6250000000000192
 40
0.6250000000000192
 40
0.750000000000026
 40
0.750000000000026
 40
1.0
 40
1.0
 40
1.0
 40
1.0
 10
-5.625000000000012
 20
1.02856915850594
 30
0.0
 10
-5.62500000000001
 20
1.035071959550403
 30
0.0
 10
-5.623748813901626
 20
1.041438748631449
 30
0.0
 10
-5.620075704363223
 20
1.050448353597703
 30
0.0
 10
-5.618574694247952
 20
1.05330212966305
 30
0.0
 10
-5.615022696268826
 20
1.058713106894204
 30
0.0
 10
-5.61294394862625
 20
1.061293917239079
 30
0.0
 10
-5.608367654311956
 20
1.065949002235031
 30
0.0
 10
-5.605867056343223
 20
1.068041188454897
 30
0.0
 10
-5.600430831132893
 20
1.071744257156403
 30
0.0
 10
-5.597484636969584
 20
1.073349667185376
 30
0.0
 10
-5.588379927595072
 20
1.077194141452168
 30
0.0
 10
-5.581721523707781
 20
1.07856915850594
 30
0.0
 10
-5.575000000000013
 20
1.07856915850594
 30
0.0
  0
SPLINE
  5
AB
330
1F
100
AcDbEntity
  8
0
  6
Continuous
 62
     7
370
    15
100
AcDbSpline
210
0.0
220
0.0
230
1.0
 70
     8
 71
     3
 72
    14
 73
    10
 74
     0
 42
0.000000001
 43
0.00000001
 40
0.0
 40
0.0
 40
0.0
 40
0.0
 40
0.25
 40
0.25
 40
0.5
 40
0.5
 40
0.75
 40
0.75
 40
1.0
 40
1.0
 40
1.0
 40
1.0
 10
-5.575000000000006
 20
0.500430841493942
 30
0.0
 10
-5.581630532032698
 20
0.500430841493942
 30
0.0
 10
-5.588138351407945
 20
0.5017427643140601
 30
0.0
 10
-5.600267832612636
 20
0.5067881814896219
 30
0.0
 10
-5.605817635461914
 20
0.5105212258107985
 30
0.0
 10
-5.61502091841819
 20
0.5197578864943923
 30
0.0
 10
-5.618728409107957
 20
0.5253320617865743
 30
0.0
 10
-5.623687128788438
 20
0.5373279411947698
 30
0.0
 10
-5.625000000000005
 20
0.5438611100980392
 30
0.0
 10
-5.625000000000005
 20
0.5504308414939413
 30
0.0
  0
SPLINE
  5
AD
330
1F
100
AcDbEntity
  8
0
  6
Continuous
 62
     7
370
    15
100
AcDbSpline
210
0.0
220
0.0
230
1.0
 70
     8
 71
     3
 72
    14
 73
    10
 74
     0
 42
0.000000001
 43
0.00000001
 40
0.0
 40
0.0
 40
0.0
 40
0.0
 40
0.25
 40
0.25
 40
0.5
 40
0.5
 40
0.75
 40
0.75
 40
1.0
 40
1.0
 40
1.0
 40
1.0
 10
-5.389379704153622
 20
0.5236822553349942
 30
0.0
 10
-5.391635821464747
 20
0.5201192151443671
 30
0.0
 10
-5.394290434893396
 20
0.5169085622643774
 30
0.0
 10
-5.400375852429089
 20
0.5111742260840947
 30
0.0
 10
-5.403822756316024
 20
0.5086629412398199
 30
0.0
 10
-5.411132862269311
 20
0.504631624748817
 30
0.0
 10
-5.415098973176743
 20
0.5030539907450778
 30
0.0
 10
-5.423228488686586
 20
0.5009622158924957
 30
0.0
 10
-5.427380694836059
 20
0.5004308414939438
 30
0.0
 10
-5.431623202333783
 20
0.5004308414939436
 30
0.0
  0
SPLINE
  5
B9
330
1F
100
AcDbEntity
  8
0
  6
Continuous
 62
     7
370
    15
100
AcDbSpline
210
0.0
220
0.0
230
1.0
 70
     8
 71
     3
 72
    16
 73
    12
 74
     0
 42
0.000000001
 43
0.00000001
 40
0.0
 40
0.0
 40
0.0
 40
0.0
 40
0.2500000000000027
 40
0.2500000000000027
 40
0.3750000000000028
 40
0.3750000000000028
 40
0.500000000000003
 40
0.500000000000003
 40
0.7500000000000014
 40
0.7500000000000014
 40
1.0
 40
1.0
 40
1.0
 40
1.0
 10
-5.624999999999995
 20
-0.5504308414940601
 30
0.0
 10
-5.624999999999996
 20
-0.5438602452334693
 30
0.0
 10
-5.623715606703242
 20
-0.5374121959530344
 30
0.0
 10
-5.619979467799669
 20
-0.5283509559983184
 30
0.0
 10
-5.61845424985503
 20
-0.5254839347828257
 30
0.0
 10
-5.614848469455651
 20
-0.5200545437116653
 30
0.0
 10
-5.612745438869742
 20
-0.517477507464281
 30
0.0
 10
-5.605843318137321
 20
-0.5105403508619436
 30
0.0
 10
-5.6002702501564
 20
-0.5067954906865881
 30
0.0
 10
-5.588217944620853
 20
-0.501769611309669
 30
0.0
 10
-5.581631488832602
 20
-0.5004308414940594
 30
0.0
 10
-5.574999999999995
 20
-0.5004308414940596
 30
0.0
  0
SPLINE
  5
BB
330
1F
100
AcDbEntity
  8
0
  6
Continuous
 62
     7
370
    15
100
AcDbSpline
210
0.0
220
0.0
230
1.0
 70
     8
 71
     3
 72
    16
 73
    12
 74
     0
 42
0.000000001
 43
0.00000001
 40
0.0
 40
0.0
 40
0.0
 40
0.0
 40
0.1249999999999843
 40
0.1249999999999843
 40
0.2499999999999687
 40
0.2499999999999687
 40
0.4999999999999791
 40
0.4999999999999791
 40
0.7499999999999896
 40
0.7499999999999896
 40
1.0
 40
1.0
 40
1.0
 40
1.0
 10
-5.57499999999999
 20
-1.078569158506055
 30
0.0
 10
-5.578358597256139
 20
-1.078569158506055
 30
0.0
 10
-5.581657628032428
 20
-1.078234200480908
 30
0.0
 10
-5.588141922048494
 20
-1.076924409412791
 30
0.0
 10
-5.591362139279147
 20
-1.075931864878402
 30
0.0
 10
-5.600508887991861
 20
-1.072078684592104
 30
0.0
 10
-5.606064603801457
 20
-1.068285248038794
 30
0.0
 10
-5.615198366174655
 20
-1.059007107418592
 30
0.0
 10
-5.618848183180579
 20
-1.053444605201624
 30
0.0
 10
-5.623719542836342
 20
-1.041525128649572
 30
0.0
 10
-5.62499999999999
 20
-1.035068298785333
 30
0.0
 10
-5.624999999999989
 20
-1.028569158506056
 30
0.0
  0
SPLINE
  5
BD
330
1F
100
AcDbEntity
  8
0
  6
Continuous
 62
     7
370
    15
100
AcDbSpline
210
0.0
220
0.0
230
1.0
 70
     8
 71
     3
 72
    22
 73
    18
 74
     0
 42
0.000000001
 43
0.00000001
 40
0.0
 40
0.0
 40
0.0
 40
0.0
 40
0.125
 40
0.125
 40
0.25
 40
0.25
 40
0.375
 40
0.375
 40
0.5
 40
0.5
 40
0.625
 40
0.625
 40
0.75
 40
0.75
 40
0.875
 40
0.875
 40
1.0
 40
1.0
 40
1.0
 40
1.0
 10
-5.086622486606283
 20
-1.001820572347099
 30
0.0
 10
-5.084224688681972
 20
-1.00560736584901
 30
0.0
 10
-5.082389988959743
 20
-1.009611443193855
 30
0.0
 10
-5.079790833314432
 20
-1.01803148011178
 30
0.0
 10
-5.079050305341923
 20
-1.02244236808416
 30
0.0
 10
-5.078743256741234
 20
-1.031186717043875
 30
0.0
 10
-5.079174888513196
 20
-1.035642686828515
 30
0.0
 10
-5.081165480415351
 20
-1.044186512139403
 30
0.0
 10
-5.082718214161433
 20
-1.048321822195781
 30
0.0
 10
-5.086929664449269
 20
-1.056157733914653
 30
0.0
 10
-5.089514134563822
 20
-1.059734813144106
 30
0.0
 10
-5.095647208147837
 20
-1.066203969832755
 30
0.0
 10
-5.099182075735186
 20
-1.069052074473416
 30
0.0
 10
-5.106837766897194
 20
-1.073677456616353
 30
0.0
 10
-5.111068117608998
 20
-1.075511151353098
 30
0.0
 10
-5.11974987871422
 20
-1.077937279582289
 30
0.0
 10
-5.124281416495578
 20
-1.078569158506051
 30
0.0
 10
-5.128865984786444
 20
-1.078569158506051
 30
0.0
  0
SPLINE
  5
BF
330
1F
100
AcDbEntity
  8
0
  6
Continuous
 62
     7
370
    15
100
AcDbSpline
210
0.0
220
0.0
230
1.0
 70
     8
 71
     3
 72
    14
 73
    10
 74
     0
 42
0.000000001
 43
0.00000001
 40
0.0
 40
0.0
 40
0.0
 40
0.0
 40
0.25
 40
0.25
 40
0.5
 40
0.5
 40
0.75
 40
0.75
 40
1.0
 40
1.0
 40
1.0
 40
1.0
 10
-5.431623202333778
 20
-0.5004308414940583
 30
0.0
 10
-5.427380701329731
 20
-0.5004308414940581
 30
0.0
 10
-5.423229494661357
 20
-0.5009622115205223
 30
0.0
 10
-5.415103654378693
 20
-0.5030525319494116
 30
0.0
 10
-5.411135109052078
 20
-0.5046305259492238
 30
0.0
 10
-5.403823084747838
 20
-0.5086626199310796
 30
0.0
 10
-5.400376492093199
 20
-0.5111736808501915
 30
0.0
 10
-5.394290523955408
 20
-0.5169084208211085
 30
0.0
 10
-5.391635819989737
 20
-0.5201192174739281
 30
0.0
 10
-5.389379704153618
 20
-0.5236822553351079
 30
0.0
  0
SPLINE
  5
C1
330
1F
100
AcDbEntity
  8
0
  6
Continuous
 62
     7
370
    15
100
AcDbSpline
210
0.0
220
0.0
230
1.0
 70
     8
 71
     3
 72
    14
 73
    10
 74
     0
 42
0.000000001
 43
0.00000001
 40
0.0
 40
0.0
 40
0.0
 40
0.0
 40
0.25
 40
0.25
 40
0.5
 40
0.5
 40
0.75
 40
0.75
 40
1.0
 40
1.0
 40
1.0
 40
1.0
 10
-0.8606202958463715
 20
-0.5236822553350599
 30
0.0
 10
-0.8583641785352454
 20
-0.5201192151444328
 30
0.0
 10
-0.8557095651065983
 20
-0.5169085622644435
 30
0.0
 10
-0.8496241475709033
 20
-0.5111742260841609
 30
0.0
 10
-0.84617724368397
 20
-0.5086629412398864
 30
0.0
 10
-0.8388671377306821
 20
-0.5046316247488836
 30
0.0
 10
-0.8349010268232505
 20
-0.503053990745144
 30
0.0
 10
-0.8267715113134081
 20
-0.500962215892562
 30
0.0
 10
-0.8226193051639351
 20
-0.50043084149401
 30
0.0
 10
-0.8183767976662115
 20
-0.5004308414940098
 30
0.0
  0
SPLINE
  5
C3
330
1F
100
AcDbEntity
  8
0
  6
Continuous
 62
     7
370
    15
100
AcDbSpline
210
0.0
220
0.0
230
1.0
 70
     8
 71
     3
 72
    16
 73
    12
 74
     0
 42
0.000000001
 43
0.00000001
 40
0.0
 40
0.0
 40
0.0
 40
0.0
 40
0.1250000000000005
 40
0.1250000000000005
 40
0.2500000000000009
 40
0.2500000000000009
 40
0.5000000000000007
 40
0.5000000000000007
 40
0.7500000000000003
 40
0.7500000000000003
 40
1.0
 40
1.0
 40
1.0
 40
1.0
 10
-1.121134015213534
 20
-1.078569158506009
 30
0.0
 10
-1.125715056193249
 20
-1.078569158506009
 30
0.0
 10
-1.130186204689768
 20
-1.077951221485897
 30
0.0
 10
-1.138915914457294
 20
-1.075519497564934
 30
0.0
 10
-1.143107988595691
 20
-1.073704688057343
 30
0.0
 10
-1.154619081958266
 20
-1.066766494033726
 30
0.0
 10
-1.160999576533009
 20
-1.060009967859618
 30
0.0
 10
-1.169350859664381
 20
-1.044472723619832
 30
0.0
 10
-1.171405288693905
 20
-1.035655919714258
 30
0.0
 10
-1.170804437545285
 20
-1.018068098219235
 30
0.0
 10
-1.16816945981737
 20
-1.009388395888273
 30
0.0
 10
-1.163377513393695
 20
-1.001820572347058
 30
0.0
  0
SPLINE
  5
C5
330
1F
100
AcDbEntity
  8
0
  6
Continuous
 62
     7
370
    15
100
AcDbSpline
210
0.0
220
0.0
230
1.0
 70
     8
 71
     3
 72
    22
 73
    18
 74
     0
 42
0.000000001
 43
0.00000001
 40
0.0
 40
0.0
 40
0.0
 40
0.0
 40
0.125
 40
0.125
 40
0.25
 40
0.25
 40
0.375
 40
0.375
 40
0.5
 40
0.5
 40
0.625
 40
0.625
 40
0.75
 40
0.75
 40
0.875
 40
0.875
 40
1.0
 40
1.0
 40
1.0
 40
1.0
 10
-0.3363685275060003
 20
-1.002104532947674
 30
0.0
 10
-0.3340040591149979
 20
-1.005894702148113
 30
0.0
 10
-0.3322003854524291
 20
-1.009897096159612
 30
0.0
 10
-0.3296588941634947
 20
-1.01830416931415
 30
0.0
 10
-0.3289443786229256
 20
-1.022705494046537
 30
0.0
 10
-0.3286819076323349
 20
-1.031423514673155
 30
0.0
 10
-0.3291323350889581
 20
-1.035862680281105
 30
0.0
 10
-0.3311527555835802
 20
-1.044373401660659
 30
0.0
 10
-0.3327141997949157
 20
-1.048485518659654
 30
0.0
 10
-0.3369413128794225
 20
-1.056287967357377
 30
0.0
 10
-0.3395291911010032
 20
-1.059846576210091
 30
0.0
 10
-0.3456572146175174
 20
-1.066277415054062
 30
0.0
 10
-0.3491903652084864
 20
-1.069111790023733
 30
0.0
 10
-0.3568296248591722
 20
-1.073708862592036
 30
0.0
 10
-0.3610485316634106
 20
-1.075531084635325
 30
0.0
 10
-0.3697079518286279
 20
-1.077942301337483
 30
0.0
 10
-0.3742202311971065
 20
-1.078569158506001
 30
0.0
 10
-0.3787904981586881
 20
-1.078569158506001
 30
0.0
  0
SPLINE
  5
C7
330
1F
100
AcDbEntity
  8
0
  6
Continuous
 62
     7
370
    15
100
AcDbSpline
210
0.0
220
0.0
230
1.0
 70
     8
 71
     3
 72
    14
 73
    10
 74
     0
 42
0.000000001
 43
0.00000001
 40
0.0
 40
0.0
 40
0.0
 40
0.0
 40
0.25
 40
0.25
 40
0.5
 40
0.5
 40
0.75
 40
0.75
 40
1.0
 40
1.0
 40
1.0
 40
1.0
 10
-0.6770734711117373
 20
-0.5004308414940084
 30
0.0
 10
-0.6728020273525729
 20
-0.5004308414940084
 30
0.0
 10
-0.6686231079694868
 20
-0.5009693710266926
 30
0.0
 10
-0.6604442978611573
 20
-0.5030882993672139
 30
0.0
 10
-0.6564538056818563
 20
-0.5046870063249472
 30
0.0
 10
-0.6491059104622726
 20
-0.5087716935222486
 30
0.0
 10
-0.6456445443771125
 20
-0.5113166951603292
 30
0.0
 10
-0.6395513446785428
 20
-0.5171174221703446
 30
0.0
 10
-0.6368987587299024
 20
-0.5203639309078787
 30
0.0
 10
-0.6346515004590484
 20
-0.5239662159356817
 30
0.0
  0
SPLINE
  5
CB
330
1F
100
AcDbEntity
  8
0
  6
Continuous
 62
     7
370
    15
100
AcDbSpline
210
0.0
220
0.0
230
1.0
 70
     8
 71
     3
 72
    14
 73
    10
 74
     0
 42
0.000000001
 43
0.00000001
 40
0.0
 40
0.0
 40
0.0
 40
0.0
 40
0.25
 40
0.25
 40
0.5
 40
0.5
 40
0.75
 40
0.75
 40
1.0
 40
1.0
 40
1.0
 40
1.0
 10
0.2169541942088813
 20
-1.083051451300205
 30
0.0
 10
0.2125672925076581
 20
-1.083051451300205
 30
0.0
 10
0.2082813561578344
 20
-1.082483922462852
 30
0.0
 10
0.1999041885822596
 20
-1.080254042682859
 30
0.0
 10
0.1958487322249925
 20
-1.078581159460293
 30
0.0
 10
0.1884031672858447
 20
-1.074321703447922
 30
0.0
 10
0.1849205509511162
 20
-1.071677256012634
 30
0.0
 10
0.1788540317344284
 20
-1.065708528779195
 30
0.0
 10
0.1762096686852159
 20
-1.062345684470831
 30
0.0
 10
0.1740192450794027
 20
-1.058675466271499
 30
0.0
  0
SPLINE
  5
CD
330
1F
100
AcDbEntity
  8
0
  6
Continuous
 62
     7
370
    15
100
AcDbSpline
210
0.0
220
0.0
230
1.0
 70
     8
 71
     3
 72
    14
 73
    10
 74
     0
 42
0.000000001
 43
0.00000001
 40
0.0
 40
0.0
 40
0.0
 40
0.0
 40
0.25
 40
0.25
 40
0.5
 40
0.5
 40
0.75
 40
0.75
 40
1.0
 40
1.0
 40
1.0
 40
1.0
 10
3.455980754920621
 20
-1.058675466271464
 30
0.0
 10
3.453787311766796
 20
-1.062350743948806
 30
0.0
 10
3.451167730354179
 20
-1.065685131941907
 30
0.0
 10
3.445081261842892
 20
-1.071677450318617
 30
0.0
 10
3.441603480092111
 20
-1.074316996559391
 30
0.0
 10
3.434160487841639
 20
-1.078576786981826
 30
0.0
 10
3.430081271068531
 20
-1.080258386205352
 30
0.0
 10
3.421722961931049
 20
-1.082482299377893
 30
0.0
 10
3.41743922975424
 20
-1.083051451300171
 30
0.0
 10
3.413045805791143
 20
-1.08305145130017
 30
0.0
  0
SPLINE
  5
D3
330
1F
100
AcDbEntity
  8
0
  6
Continuous
 62
     7
370
    15
100
AcDbSpline
210
0.0
220
0.0
230
1.0
 70
     8
 71
     3
 72
    14
 73
    10
 74
     0
 42
0.000000001
 43
0.00000001
 40
0.0
 40
0.0
 40
0.0
 40
0.0
 40
0.25
 40
0.25
 40
0.5
 40
0.5
 40
0.75
 40
0.75
 40
1.0
 40
1.0
 40
1.0
 40
1.0
 10
3.40312414509302
 20
1.074062339315173
 30
0.0
 10
3.407462925449457
 20
1.074062339315173
 30
0.0
 10
3.411702981552906
 20
1.073506990523691
 30
0.0
 10
3.4199928242522
 20
1.071325619264432
 30
0.0
 10
3.424013913302356
 20
1.069687081595626
 30
0.0
 10
3.431402584707318
 20
1.065515075979693
 30
0.0
 10
3.434866021997677
 20
1.062923625184995
 30
0.0
 10
3.440920737732346
 20
1.057064822157276
 30
0.0
 10
3.443564624058414
 20
1.05376864601055
 30
0.0
 10
3.445772752481474
 20
1.050160160830111
 30
0.0
  0
SPLINE
  5
D5
330
1F
100
AcDbEntity
  8
0
  6
Continuous
 62
     7
370
    15
100
AcDbSpline
210
0.0
220
0.0
230
1.0
 70
     8
 71
     3
 72
    14
 73
    10
 74
     0
 42
0.000000001
 43
0.00000001
 40
0.0
 40
0.0
 40
0.0
 40
0.0
 40
0.25
 40
0.25
 40
0.5
 40
0.5
 40
0.75
 40
0.75
 40
1.0
 40
1.0
 40
1.0
 40
1.0
 10
0.1842272475185036
 20
1.050160160830075
 30
0.0
 10
0.1864376986046142
 20
1.053772441666197
 30
0.0
 10
0.1890617057869589
 20
1.057046156101736
 30
0.0
 10
0.1951310602550157
 20
1.062922473848969
 30
0.0
 10
0.1985906229935484
 20
1.065510265698869
 30
0.0
 10
0.2059754676331913
 20
1.06968205827211
 30
0.0
 10
0.2100116137355001
 20
1.071326775345748
 30
0.0
 10
0.2182923244174705
 20
1.073505767067638
 30
0.0
 10
0.2225321368967921
 20
1.074062339315139
 30
0.0
 10
0.2268758549069572
 20
1.074062339315139
 30
0.0
  0
LINE
  5
DF
330
1F
100
AcDbEntity
  8
0
  6
Continuous
 62
     7
370
    15
100
AcDbLine
 10
5.575
 20
1.0785691585
 30
0.0
 11
5.3495179055
 21
1.0785691585
 31
0.0
  0
LINE
  5
E0
330
1F
100
AcDbEntity
  8
0
  6
Continuous
 62
     7
370
    15
100
AcDbLine
 10
5.3067453327
 20
1.0544633088
 30
0.0
 11
4.9713388083
 21
0.5004308415
 31
0.0
  0
LINE
  5
E1
330
1F
100
AcDbEntity
  8
0
  6
Continuous
 62
     7
370
    15
100
AcDbLine
 10
4.73
 20
0.0985691585
 30
0.0
 11
4.9713388083
 21
0.5004308415
 31
0.0
  0
LINE
  5
E2
330
1F
100
AcDbEntity
  8
0
  6
Continuous
 62
     7
370
    15
100
AcDbLine
 10
4.73
 20
-0.1051559133
 30
0.0
 11
4.73
 21
0.0985691585
 31
0.0
  0
LINE
  5
E3
330
1F
100
AcDbEntity
  8
0
  6
Continuous
 62
     7
370
    15
100
AcDbLine
 10
4.9725503783
 20
-0.5004308415
 30
0.0
 11
4.73
 21
-0.1051559133
 31
0.0
  0
LINE
  5
E4
330
1F
100
AcDbEntity
  8
0
  6
Continuous
 62
     7
370
    15
100
AcDbLine
 10
5.3067562214
 20
-1.0543976221
 30
0.0
 11
4.9725503783
 21
-0.5004308415
 31
0.0
  0
LINE
  5
E5
330
1F
100
AcDbEntity
  8
0
  6
Continuous
 62
     7
370
    15
100
AcDbLine
 10
5.575
 20
-1.0785691585
 30
0.0
 11
5.3495684915
 21
-1.0785691585
 31
0.0
  0
LINE
  5
E6
330
1F
100
AcDbEntity
  8
0
  6
Continuous
 62
     7
370
    15
100
AcDbLine
 10
5.625
 20
-1.0285691585
 30
0.0
 11
5.625
 21
1.0285691585
 31
0.0
  0
LINE
  5
E7
330
1F
100
AcDbEntity
  8
0
  6
Continuous
 62
     7
370
    15
100
AcDbLine
 10
-4.9086611917
 20
0.5004308415
 30
0.0
 11
-4.5732546673
 21
1.0544633088
 31
0.0
  0
LINE
  5
E8
330
1F
100
AcDbEntity
  8
0
  6
Continuous
 62
     7
370
    15
100
AcDbLine
 10
-5.15
 20
0.0985691585
 30
0.0
 11
-4.9086611917
 21
0.5004308415
 31
0.0
  0
LINE
  5
E9
330
1F
100
AcDbEntity
  8
0
  6
Continuous
 62
     7
370
    15
100
AcDbLine
 10
-5.15
 20
-0.1051559133
 30
0.0
 11
-5.15
 21
0.0985691585
 31
0.0
  0
LINE
  5
EA
330
1F
100
AcDbEntity
  8
0
  6
Continuous
 62
     7
370
    15
100
AcDbLine
 10
-4.9086611917
 20
-0.5004308415
 30
0.0
 11
-5.15
 21
-0.1051559133
 31
0.0
  0
LINE
  5
EB
330
1F
100
AcDbEntity
  8
0
  6
Continuous
 62
     7
370
    15
100
AcDbLine
 10
-4.9086611917
 20
-0.5004308415
 30
0.0
 11
-4.5732546673
 21
-1.0544633088
 31
0.0
  0
LINE
  5
EC
330
1F
100
AcDbEntity
  8
0
  6
Continuous
 62
     7
370
    15
100
AcDbLine
 10
-4.5304820945
 20
-1.0785691585
 30
0.0
 11
-1.7195684915
 21
-1.0785691585
 31
0.0
  0
LINE
  5
ED
330
1F
100
AcDbEntity
  8
0
  6
Continuous
 62
     7
370
    15
100
AcDbLine
 10
-1.6767562214
 20
-1.0543976221
 30
0.0
 11
-1.3425503783
 21
-0.5004308415
 31
0.0
  0
LINE
  5
EE
330
1F
100
AcDbEntity
  8
0
  6
Continuous
 62
     7
370
    15
100
AcDbLine
 10
-1.1
 20
-0.1051559133
 30
0.0
 11
-1.3425503783
 21
-0.5004308415
 31
0.0
  0
LINE
  5
EF
330
1F
100
AcDbEntity
  8
0
  6
Continuous
 62
     7
370
    15
100
AcDbLine
 10
-1.1
 20
0.0985691585
 30
0.0
 11
-1.1
 21
-0.1051559133
 31
0.0
  0
LINE
  5
F0
330
1F
100
AcDbEntity
  8
0
  6
Continuous
 62
     7
370
    15
100
AcDbLine
 10
-1.3413388083
 20
0.5004308415
 30
0.0
 11
-1.1
 21
0.0985691585
 31
0.0
  0
LINE
  5
F1
330
1F
100
AcDbEntity
  8
0
  6
Continuous
 62
     7
370
    15
100
AcDbLine
 10
-1.6767453327
 20
1.0544633088
 30
0.0
 11
-1.3413388083
 21
0.5004308415
 31
0.0
  0
LINE
  5
F2
330
1F
100
AcDbEntity
  8
0
  6
Continuous
 62
     7
370
    15
100
AcDbLine
 10
-4.5304820945
 20
1.0785691585
 30
0.0
 11
-1.7195179055
 21
1.0785691585
 31
0.0
  0
LINE
  5
F3
330
1F
100
AcDbEntity
  8
0
  6
Continuous
 62
     7
370
    15
100
AcDbLine
 10
4.0087904982
 20
-1.0785691585
 30
0.0
 11
4.7511340152
 21
-1.0785691585
 31
0.0
  0
LINE
  5
F4
330
1F
100
AcDbEntity
  8
0
  6
Continuous
 62
     7
370
    15
100
AcDbLine
 10
4.4906202958
 20
-0.5236822553
 30
0.0
 11
4.7933775134
 21
-1.0018205723
 31
0.0
  0
LINE
  5
F5
330
1F
100
AcDbEntity
  8
0
  6
Continuous
 62
     7
370
    15
100
AcDbLine
 10
4.3070734711
 20
-0.5004308415
 30
0.0
 11
4.4483767977
 21
-0.5004308415
 31
0.0
  0
LINE
  5
F6
330
1F
100
AcDbEntity
  8
0
  6
Continuous
 62
     7
370
    15
100
AcDbLine
 10
4.2646515005
 20
-0.5239662159
 30
0.0
 11
3.9663685275
 21
-1.0021045329
 31
0.0
  0
LINE
  5
F7
330
1F
100
AcDbEntity
  8
0
  6
Continuous
 62
     7
370
    15
100
AcDbLine
 10
4.4906202958
 20
0.5236822553
 30
0.0
 11
4.7933775134
 21
1.0018205723
 31
0.0
  0
LINE
  5
F8
330
1F
100
AcDbEntity
  8
0
  6
Continuous
 62
     7
370
    15
100
AcDbLine
 10
4.7511340152
 20
1.0785691585
 30
0.0
 11
4.0087904982
 21
1.0785691585
 31
0.0
  0
LINE
  5
F9
330
1F
100
AcDbEntity
  8
0
  6
Continuous
 62
     7
370
    15
100
AcDbLine
 10
4.2646515005
 20
0.5239662159
 30
0.0
 11
3.9663685275
 21
1.0021045329
 31
0.0
  0
LINE
  5
FA
330
1F
100
AcDbEntity
  8
0
  6
Continuous
 62
     7
370
    15
100
AcDbLine
 10
4.3070734711
 20
0.5004308415
 30
0.0
 11
4.4483767977
 21
0.5004308415
 31
0.0
  0
LINE
  5
FB
330
1F
100
AcDbEntity
  8
0
  6
Continuous
 62
     7
370
    15
100
AcDbLine
 10
-0.6346515005
 20
0.5239662159
 30
0.0
 11
-0.3363685275
 21
1.0021045329
 31
0.0
  0
LINE
  5
FC
330
1F
100
AcDbEntity
  8
0
  6
Continuous
 62
     7
370
    15
100
AcDbLine
 10
-1.1211340152
 20
1.0785691585
 30
0.0
 11
-0.3787904982
 21
1.0785691585
 31
0.0
  0
LINE
  5
FD
330
1F
100
AcDbEntity
  8
0
  6
Continuous
 62
     7
370
    15
100
AcDbLine
 10
-0.8606202958
 20
0.5236822553
 30
0.0
 11
-1.1633775134
 21
1.0018205723
 31
0.0
  0
LINE
  5
FE
330
1F
100
AcDbEntity
  8
0
  6
Continuous
 62
     7
370
    15
100
AcDbLine
 10
-0.6770734711
 20
0.5004308415
 30
0.0
 11
-0.8183767977
 21
0.5004308415
 31
0.0
  0
LINE
  5
FF
330
1F
100
AcDbEntity
  8
0
  6
Continuous
 62
     7
370
    15
100
AcDbLine
 10
-5.1288659848
 20
1.0785691585
 30
0.0
 11
-5.575
 21
1.0785691585
 31
0.0
  0
LINE
  5
100
330
1F
100
AcDbEntity
  8
0
  6
Continuous
 62
     7
370
    15
100
AcDbLine
 10
-5.625
 20
1.0285691585
 30
0.0
 11
-5.625
 21
0.5504308415
 31
0.0
  0
LINE
  5
101
330
1F
100
AcDbEntity
  8
0
  6
Continuous
 62
     7
370
    15
100
AcDbLine
 10
-5.4316232023
 20
0.5004308415
 30
0.0
 11
-5.575
 21
0.5004308415
 31
0.0
  0
LINE
  5
102
330
1F
100
AcDbEntity
  8
0
  6
Continuous
 62
     7
370
    15
100
AcDbLine
 10
-5.3893797042
 20
0.5236822553
 30
0.0
 11
-5.0866224866
 21
1.0018205723
 31
0.0
  0
LINE
  5
103
330
1F
100
AcDbEntity
  8
0
  6
Continuous
 62
     7
370
    15
100
AcDbLine
 10
-6.125
 20
1.5785691585
 30
0.0
 11
-6.125
 21
-1.5785691585
 31
0.0
  0
LINE
  5
104
330
1F
100
AcDbEntity
  8
0
  6
Continuous
 62
     7
370
    15
100
AcDbLine
 10
6.125
 20
1.5785691585
 30
0.0
 11
-6.125
 21
1.5785691585
 31
0.0
  0
LINE
  5
105
330
1F
100
AcDbEntity
  8
0
  6
Continuous
 62
     7
370
    15
100
AcDbLine
 10
6.125
 20
-1.5785691585
 30
0.0
 11
6.125
 21
1.5785691585
 31
0.0
  0
LINE
  5
106
330
1F
100
AcDbEntity
  8
0
  6
Continuous
 62
     7
370
    15
100
AcDbLine
 10
-6.125
 20
-1.5785691585
 30
0.0
 11
6.125
 21
-1.5785691585
 31
0.0
  0
LINE
  5
107
330
1F
100
AcDbEntity
  8
0
  6
Continuous
 62
     7
370
    15
100
AcDbLine
 10
-5.625
 20
-0.5504308415
 30
0.0
 11
-5.625
 21
-1.0285691585
 31
0.0
  0
LINE
  5
108
330
1F
100
AcDbEntity
  8
0
  6
Continuous
 62
     7
370
    15
100
AcDbLine
 10
-5.1288659848
 20
-1.0785691585
 30
0.0
 11
-5.575
 21
-1.0785691585
 31
0.0
  0
LINE
  5
109
330
1F
100
AcDbEntity
  8
0
  6
Continuous
 62
     7
370
    15
100
AcDbLine
 10
-5.3893797042
 20
-0.5236822553
 30
0.0
 11
-5.0866224866
 21
-1.0018205723
 31
0.0
  0
LINE
  5
10A
330
1F
100
AcDbEntity
  8
0
  6
Continuous
 62
     7
370
    15
100
AcDbLine
 10
-5.4316232023
 20
-0.5004308415
 30
0.0
 11
-5.575
 21
-0.5004308415
 31
0.0
  0
LINE
  5
10B
330
1F
100
AcDbEntity
  8
0
  6
Continuous
 62
     7
370
    15
100
AcDbLine
 10
-0.8606202958
 20
-0.5236822553
 30
0.0
 11
-1.1633775134
 21
-1.0018205723
 31
0.0
  0
LINE
  5
10C
330
1F
100
AcDbEntity
  8
0
  6
Continuous
 62
     7
370
    15
100
AcDbLine
 10
-1.1211340152
 20
-1.0785691585
 30
0.0
 11
-0.3787904982
 21
-1.0785691585
 31
0.0
  0
LINE
  5
10D
330
1F
100
AcDbEntity
  8
0
  6
Continuous
 62
     7
370
    15
100
AcDbLine
 10
-0.6346515005
 20
-0.5239662159
 30
0.0
 11
-0.3363685275
 21
-1.0021045329
 31
0.0
  0
LINE
  5
10E
330
1F
100
AcDbEntity
  8
0
  6
Continuous
 62
     7
370
    15
100
AcDbLine
 10
-0.6770734711
 20
-0.5004308415
 30
0.0
 11
-0.8183767977
 21
-0.5004308415
 31
0.0
  0
LINE
  5
10F
330
1F
100
AcDbEntity
  8
0
  6
Continuous
 62
     7
370
    15
100
AcDbLine
 10
-0.4
 20
-0.1051559133
 30
0.0
 11
-0.1591468332
 21
-0.5004308415
 31
0.0
  0
LINE
  5
110
330
1F
100
AcDbEntity
  8
0
  6
Continuous
 62
     7
370
    15
100
AcDbLine
 10
-0.1591468332
 20
-0.5004308415
 30
0.0
 11
0.1740192451
 21
-1.0586754663
 31
0.0
  0
LINE
  5
111
330
1F
100
AcDbEntity
  8
0
  6
Continuous
 62
     7
370
    15
100
AcDbLine
 10
0.2169541942
 20
-1.0830514513
 30
0.0
 11
3.4130458058
 21
-1.0830514513
 31
0.0
  0
LINE
  5
112
330
1F
100
AcDbEntity
  8
0
  6
Continuous
 62
     7
370
    15
100
AcDbLine
 10
3.4559807549
 20
-1.0586754663
 30
0.0
 11
3.7891468332
 21
-0.5004308415
 31
0.0
  0
LINE
  5
113
330
1F
100
AcDbEntity
  8
0
  6
Continuous
 62
     7
370
    15
100
AcDbLine
 10
3.7891468332
 20
-0.5004308415
 30
0.0
 11
4.03
 21
-0.1051559133
 31
0.0
  0
LINE
  5
114
330
1F
100
AcDbEntity
  8
0
  6
Continuous
 62
     7
370
    15
100
AcDbLine
 10
4.03
 20
-0.1051559133
 30
0.0
 11
4.03
 21
0.0985691585
 31
0.0
  0
LINE
  5
115
330
1F
100
AcDbEntity
  8
0
  6
Continuous
 62
     7
370
    15
100
AcDbLine
 10
4.03
 20
0.0985691585
 30
0.0
 11
3.7821667999
 21
0.5004308415
 31
0.0
  0
LINE
  5
116
330
1F
100
AcDbEntity
  8
0
  6
Continuous
 62
     7
370
    15
100
AcDbLine
 10
3.4457727525
 20
1.0501601608
 30
0.0
 11
3.7821667999
 21
0.5004308415
 31
0.0
  0
LINE
  5
117
330
1F
100
AcDbEntity
  8
0
  6
Continuous
 62
     7
370
    15
100
AcDbLine
 10
0.2268758549
 20
1.0740623393
 30
0.0
 11
3.4031241451
 21
1.0740623393
 31
0.0
  0
LINE
  5
118
330
1F
100
AcDbEntity
  8
0
  6
Continuous
 62
     7
370
    15
100
AcDbLine
 10
-0.1521667999
 20
0.5004308415
 30
0.0
 11
0.1842272475
 21
1.0501601608
 31
0.0
  0
LINE
  5
119
330
1F
100
AcDbEntity
  8
0
  6
Continuous
 62
     7
370
    15
100
AcDbLine
 10
-0.1521667999
 20
0.5004308415
 30
0.0
 11
-0.4
 21
0.0985691585
 31
0.0
  0
LINE
  5
11A
330
1F
100
AcDbEntity
  8
0
  6
Continuous
 62
     7
370
    15
100
AcDbLine
 10
-0.4
 20
0.0985691585
 30
0.0
 11
-0.4
 21
-0.1051559133
 31
0.0
  0
MTEXT
  5
11C
330
1F
100
AcDbEntity
  8
0
  6
Continuous
 62
     7
100
AcDbMText
 10
-6.125
 20
-1.6187095676
 30
0.0
 40
0.1903
 41
0.0
 71
     1
 72
     1
  1
SOLIDWORKS Student Edition.
  7
SLDTEXTSTYLE0
 73
     1
 44
1.0
  0
MTEXT
  5
11D
330
1F
100
AcDbEntity
  8
0
  6
Continuous
 62
     7
100
AcDbMText
 10
-6.125
 20
-1.9041595676
 30
0.0
 40
0.1903
 41
0.0
 71
     1
 72
     1
  1
For Academic Use Only.
  7
SLDTEXTSTYLE0
 73
     1
 44
1.0
  0
ENDSEC
  0
SECTION
  2
OBJECTS
  0
DICTIONARY
  5
C
330
0
100
AcDbDictionary
281
     1
  3
ACAD_GROUP
350
D
  3
ACAD_LAYOUT
350
1A
  3
ACAD_MLINESTYLE
350
17
  3
ACAD_PLOTSETTINGS
350
19
  3
ACAD_PLOTSTYLENAME
350
E
  3
ACAD_SCALELIST
350
47
  0
DICTIONARY
  5
D
102
{ACAD_REACTORS
330
C
102
}
330
C
100
AcDbDictionary
281
     1
  0
DICTIONARY
  5
1A
102
{ACAD_REACTORS
330
C
102
}
330
C
100
AcDbDictionary
281
     1
  3
Layout1
350
1E
  3
Layout2
350
26
  3
Model
350
22
  0
DICTIONARY
  5
17
102
{ACAD_REACTORS
330
C
102
}
330
C
100
AcDbDictionary
281
     1
  3
Standard
350
18
  0
DICTIONARY
  5
19
102
{ACAD_REACTORS
330
C
102
}
330
C
100
AcDbDictionary
281
     1
  0
ACDBDICTIONARYWDFLT
  5
E
102
{ACAD_REACTORS
330
C
102
}
330
C
100
AcDbDictionary
281
     1
  3
Normal
350
F
100
AcDbDictionaryWithDefault
340
F
  0
DICTIONARY
  5
47
102
{ACAD_REACTORS
330
C
102
}
330
C
100
AcDbDictionary
281
     1
  3
A0
350
48
  3
A1
350
49
  3
A2
350
4A
  3
A3
350
4B
  3
A4
350
4C
  3
A5
350
4D
  3
A6
350
4E
  3
A7
350
4F
  3
A8
350
50
  3
A9
350
51
  3
B0
350
52
  3
B1
350
53
  3
B2
350
54
  3
B3
350
55
  3
B4
350
56
  3
B5
350
57
  3
B6
350
58
  3
B7
350
59
  3
B8
350
5A
  3
B9
350
5B
  3
C0
350
5C
  3
C1
350
5D
  3
C2
350
5E
  3
C3
350
5F
  3
C4
350
60
  3
C5
350
61
  3
C6
350
62
  3
C7
350
63
  3
C8
350
64
  3
C9
350
65
  3
D0
350
66
  3
D1
350
67
  3
D2
350
68
  0
LAYOUT
  5
1E
102
{ACAD_REACTORS
330
1A
102
}
330
1A
100
AcDbPlotSettings
  1

  2
none_device
  4

  6

 40
0.0
 41
0.0
 42
0.0
 43
0.0
 44
0.0
 45
0.0
 46
0.0
 47
0.0
 48
0.0
 49
0.0
140
0.0
141
0.0
142
1.0
143
1.0
 70
   688
 72
     0
 73
     0
 74
     5
  7

 75
    16
147
1.0
148
0.0
149
0.0
100
AcDbLayout
  1
Layout1
 70
     1
 71
     1
 10
0.0
 20
0.0
 11
12.0
 21
9.0
 12
0.0
 22
0.0
 32
0.0
 14
1.0000000000E+20
 24
1.0000000000E+20
 34
1.0000000000E+20
 15
-1.0000000000E+20
 25
-1.0000000000E+20
 35
-1.0000000000E+20
146
0.0
 13
0.0
 23
0.0
 33
0.0
 16
1.0
 26
0.0
 36
0.0
 17
0.0
 27
1.0
 37
0.0
 76
     0
330
1B
  0
LAYOUT
  5
26
102
{ACAD_REACTORS
330
1A
102
}
330
1A
100
AcDbPlotSettings
  1

  2
none_device
  4

  6

 40
0.0
 41
0.0
 42
0.0
 43
0.0
 44
0.0
 45
0.0
 46
0.0
 47
0.0
 48
0.0
 49
0.0
140
0.0
141
0.0
142
1.0
143
1.0
 70
   688
 72
     0
 73
     0
 74
     5
  7

 75
    16
147
1.0
148
0.0
149
0.0
100
AcDbLayout
  1
Layout2
 70
     1
 71
     2
 10
0.0
 20
0.0
 11
0.0
 21
0.0
 12
0.0
 22
0.0
 32
0.0
 14
0.0
 24
0.0
 34
0.0
 15
0.0
 25
0.0
 35
0.0
146
0.0
 13
0.0
 23
0.0
 33
0.0
 16
1.0
 26
0.0
 36
0.0
 17
0.0
 27
1.0
 37
0.0
 76
     0
330
23
  0
LAYOUT
  5
22
102
{ACAD_REACTORS
330
1A
102
}
330
1A
100
AcDbPlotSettings
  1

  2
none_device
  4
ANSI_A_(11.00_x_8.50_Inches)
  6

 40
6.35
 41
19.05
 42
6.35000508
 43
19.05000254
 44
279.4
 45
215.9
 46
133.34999746
 47
88.89999873
 48
0.0
 49
0.0
140
0.0
141
0.0
142
0.8889795918
143
1.0
 70
  1696
 72
     0
 73
     0
 74
     0
  7

 75
     0
147
0.5913241897
148
-39.4088153714
149
0.0
100
AcDbLayout
  1
Model
 70
     1
 71
     0
 10
0.0
 20
0.0
 11
12.0
 21
9.0
 12
0.0
 22
0.0
 32
0.0
 14
-6.125
 24
-1.5785691585
 34
0.0
 15
6.125
 25
1.5785691585
 35
0.0
146
0.0
 13
0.0
 23
0.0
 33
0.0
 16
1.0
 26
0.0
 36
0.0
 17
0.0
 27
1.0
 37
0.0
 76
     0
330
1F
331
29
  0
MLINESTYLE
  5
18
102
{ACAD_REACTORS
330
17
102
}
330
17
100
AcDbMlineStyle
  2
Standard
 70
     0
  3

 62
   256
 51
90.0
 52
90.0
 71
     2
 49
0.5
 62
   256
  6
BYLAYER
 49
-0.5
 62
   256
  6
BYLAYER
  0
ACDBPLACEHOLDER
  5
F
102
{ACAD_REACTORS
330
E
102
}
330
E
  0
SCALE
  5
48
102
{ACAD_REACTORS
330
47
102
}
330
47
100
AcDbScale
 70
     0
300
1:1
140
1.0
141
1.0
290
     1
  0
SCALE
  5
49
102
{ACAD_REACTORS
330
47
102
}
330
47
100
AcDbScale
 70
     0
300
1:2
140
1.0
141
2.0
290
     0
  0
SCALE
  5
4A
102
{ACAD_REACTORS
330
47
102
}
330
47
100
AcDbScale
 70
     0
300
1:4
140
1.0
141
4.0
290
     0
  0
SCALE
  5
4B
102
{ACAD_REACTORS
330
47
102
}
330
47
100
AcDbScale
 70
     0
300
1:5
140
1.0
141
5.0
290
     0
  0
SCALE
  5
4C
102
{ACAD_REACTORS
330
47
102
}
330
47
100
AcDbScale
 70
     0
300
1:8
140
1.0
141
8.0
290
     0
  0
SCALE
  5
4D
102
{ACAD_REACTORS
330
47
102
}
330
47
100
AcDbScale
 70
     0
300
1:10
140
1.0
141
10.0
290
     0
  0
SCALE
  5
4E
102
{ACAD_REACTORS
330
47
102
}
330
47
100
AcDbScale
 70
     0
300
1:16
140
1.0
141
16.0
290
     0
  0
SCALE
  5
4F
102
{ACAD_REACTORS
330
47
102
}
330
47
100
AcDbScale
 70
     0
300
1:20
140
1.0
141
20.0
290
     0
  0
SCALE
  5
50
102
{ACAD_REACTORS
330
47
102
}
330
47
100
AcDbScale
 70
     0
300
1:30
140
1.0
141
30.0
290
     0
  0
SCALE
  5
51
102
{ACAD_REACTORS
330
47
102
}
330
47
100
AcDbScale
 70
     0
300
1:40
140
1.0
141
40.0
290
     0
  0
SCALE
  5
52
102
{ACAD_REACTORS
330
47
102
}
330
47
100
AcDbScale
 70
     0
300
1:50
140
1.0
141
50.0
290
     0
  0
SCALE
  5
53
102
{ACAD_REACTORS
330
47
102
}
330
47
100
AcDbScale
 70
     0
300
1:100
140
1.0
141
100.0
290
     0
  0
SCALE
  5
54
102
{ACAD_REACTORS
330
47
102
}
330
47
100
AcDbScale
 70
     0
300
2:1
140
2.0
141
1.0
290
     0
  0
SCALE
  5
55
102
{ACAD_REACTORS
330
47
102
}
330
47
100
AcDbScale
 70
     0
300
4:1
140
4.0
141
1.0
290
     0
  0
SCALE
  5
56
102
{ACAD_REACTORS
330
47
102
}
330
47
100
AcDbScale
 70
     0
300
8:1
140
8.0
141
1.0
290
     0
  0
SCALE
  5
57
102
{ACAD_REACTORS
330
47
102
}
330
47
100
AcDbScale
 70
     0
300
10:1
140
10.0
141
1.0
290
     0
  0
SCALE
  5
58
102
{ACAD_REACTORS
330
47
102
}
330
47
100
AcDbScale
 70
     0
300
100:1
140
100.0
141
1.0
290
     0
  0
SCALE
  5
59
102
{ACAD_REACTORS
330
47
102
}
330
47
100
AcDbScale
 70
     0
300
1/128" = 1'-0"
140
0.0078125
141
12.0
290
     0
  0
SCALE
  5
5A
102
{ACAD_REACTORS
330
47
102
}
330
47
100
AcDbScale
 70
     0
300
1/64" = 1'-0"
140
0.015625
141
12.0
290
     0
  0
SCALE
  5
5B
102
{ACAD_REACTORS
330
47
102
}
330
47
100
AcDbScale
 70
     0
300
1/32" = 1'-0"
140
0.03125
141
12.0
290
     0
  0
SCALE
  5
5C
102
{ACAD_REACTORS
330
47
102
}
330
47
100
AcDbScale
 70
     0
300
1/16" = 1'-0"
140
0.0625
141
12.0
290
     0
  0
SCALE
  5
5D
102
{ACAD_REACTORS
330
47
102
}
330
47
100
AcDbScale
 70
     0
300
3/32" = 1'-0"
140
0.09375
141
12.0
290
     0
  0
SCALE
  5
5E
102
{ACAD_REACTORS
330
47
102
}
330
47
100
AcDbScale
 70
     0
300
1/8" = 1'-0"
140
0.125
141
12.0
290
     0
  0
SCALE
  5
5F
102
{ACAD_REACTORS
330
47
102
}
330
47
100
AcDbScale
 70
     0
300
3/16" = 1'-0"
140
0.1875
141
12.0
290
     0
  0
SCALE
  5
60
102
{ACAD_REACTORS
330
47
102
}
330
47
100
AcDbScale
 70
     0
300
1/4" = 1'-0"
140
0.25
141
12.0
290
     0
  0
SCALE
  5
61
102
{ACAD_REACTORS
330
47
102
}
330
47
100
AcDbScale
 70
     0
300
3/8" = 1'-0"
140
0.375
141
12.0
290
     0
  0
SCALE
  5
62
102
{ACAD_REACTORS
330
47
102
}
330
47
100
AcDbScale
 70
     0
300
1/2" = 1'-0"
140
0.5
141
12.0
290
     0
  0
SCALE
  5
63
102
{ACAD_REACTORS
330
47
102
}
330
47
100
AcDbScale
 70
     0
300
3/4" = 1'-0"
140
0.75
141
12.0
290
     0
  0
SCALE
  5
64
102
{ACAD_REACTORS
330
47
102
}
330
47
100
AcDbScale
 70
     0
300
1" = 1'-0"
140
1.0
141
12.0
290
     0
  0
SCALE
  5
65
102
{ACAD_REACTORS
330
47
102
}
330
47
100
AcDbScale
 70
     0
300
1-1/2" = 1'-0"
140
1.5
141
12.0
290
     0
  0
SCALE
  5
66
102
{ACAD_REACTORS
330
47
102
}
330
47
100
AcDbScale
 70
     0
300
3" = 1'-0"
140
3.0
141
12.0
290
     0
  0
SCALE
  5
67
102
{ACAD_REACTORS
330
47
102
}
330
47
100
AcDbScale
 70
     0
300
6" = 1'-0"
140
6.0
141
12.0
290
     0
  0
SCALE
  5
68
102
{ACAD_REACTORS
330
47
102
}
330
47
100
AcDbScale
 70
     0
300
1'-0" = 1'-0"
140
12.0
141
12.0
290
     0
  0
ENDSEC
  0
EOF
