  0
SECTION
  2
HEADER
  9
$ACADVER
  1
AC1015
  9
$ACADMAINTVER
 70
     6
  9
$DWGCODEPAGE
  3
ANSI_1252
  9
$INSBASE
 10
0.0
 20
0.0
 30
0.0
  9
$EXTMIN
 10
-6.125
 20
-1.5785691585
 30
0.0
  9
$EXTMAX
 10
6.125
 20
1.5785691585
 30
0.0
  9
$LIMMIN
 10
0.0
 20
0.0
  9
$LIMMAX
 10
12.0
 20
9.0
  9
$ORTHOMODE
 70
     0
  9
$REGENMODE
 70
     1
  9
$FILLMODE
 70
     1
  9
$QTEXTMODE
 70
     0
  9
$MIRRTEXT
 70
     1
  9
$LTSCALE
 40
1.0
  9
$ATTMODE
 70
     1
  9
$TEXTSIZE
 40
0.125
  9
$TRACEWID
 40
0.05
  9
$TEXTSTYLE
  7
Standard
  9
$CLAYER
  8
0
  9
$CELTYPE
  6
ByLayer
  9
$CECOLOR
 62
   256
  9
$CELTSCALE
 40
1.0
  9
$DISPSILH
 70
     0
  9
$DIMSCALE
 40
1.0
  9
$DIMASZ
 40
0.13
  9
$DIMEXO
 40
0.05
  9
$DIMDLI
 40
0.38
  9
$DIMRND
 40
0.0
  9
$DIMDLE
 40
0.0
  9
$DIMEXE
 40
0.125
  9
$DIMTP
 40
0.0
  9
$DIMTM
 40
0.0
  9
$DIMTXT
 40
0.125
  9
$DIMCEN
 40
0.09
  9
$DIMTSZ
 40
0.0
  9
$DIMTOL
 70
     0
  9
$DIMLIM
 70
     0
  9
$DIMTIH
 70
     1
  9
$DIMTOH
 70
     1
  9
$DIMSE1
 70
     0
  9
$DIMSE2
 70
     0
  9
$DIMTAD
 70
     0
  9
$DIMZIN
 70
     0
  9
$DIMBLK
  1

  9
$DIMASO
 70
     1
  9
$DIMSHO
 70
     1
  9
$DIMPOST
  1

  9
$DIMAPOST
  1

  9
$DIMALT
 70
     0
  9
$DIMALTD
 70
     2
  9
$DIMALTF
 40
25.4
  9
$DIMLFAC
 40
1.0
  9
$DIMTOFL
 70
     0
  9
$DIMTVP
 40
0.0
  9
$DIMTIX
 70
     0
  9
$DIMSOXD
 70
     0
  9
$DIMSAH
 70
     0
  9
$DIMBLK1
  1

  9
$DIMBLK2
  1

  9
$DIMSTYLE
  2
Standard
  9
$DIMCLRD
 70
     0
  9
$DIMCLRE
 70
     0
  9
$DIMCLRT
 70
     0
  9
$DIMTFAC
 40
1.0
  9
$DIMGAP
 40
0.06
  9
$DIMJUST
 70
     0
  9
$DIMSD1
 70
     0
  9
$DIMSD2
 70
     0
  9
$DIMTOLJ
 70
     1
  9
$DIMTZIN
 70
     0
  9
$DIMALTZ
 70
     0
  9
$DIMALTTZ
 70
     0
  9
$DIMUPT
 70
     0
  9
$DIMDEC
 70
     2
  9
$DIMTDEC
 70
     2
  9
$DIMALTU
 70
     2
  9
$DIMALTTD
 70
     2
  9
$DIMTXSTY
  7
Standard
  9
$DIMAUNIT
 70
     0
  9
$DIMADEC
 70
     2
  9
$DIMALTRND
 40
0.0
  9
$DIMAZIN
 70
     0
  9
$DIMDSEP
 70
    46
  9
$DIMATFIT
 70
     3
  9
$DIMFRAC
 70
     0
  9
$DIMLDRBLK
  1

  9
$DIMLUNIT
 70
     2
  9
$DIMLWD
 70
    -2
  9
$DIMLWE
 70
    -2
  9
$DIMTMOVE
 70
     0
  9
$LUNITS
 70
     2
  9
$LUPREC
 70
     2
  9
$SKETCHINC
 40
0.1
  9
$FILLETRAD
 40
0.5
  9
$AUNITS
 70
     0
  9
$AUPREC
 70
     2
  9
$MENU
  1
.
  9
$ELEVATION
 40
0.0
  9
$PELEVATION
 40
0.0
  9
$THICKNESS
 40
0.0
  9
$LIMCHECK
 70
     0
  9
$CHAMFERA
 40
0.0
  9
$CHAMFERB
 40
0.0
  9
$CHAMFERC
 40
0.0
  9
$CHAMFERD
 40
0.0
  9
$SKPOLY
 70
     0
  9
$TDCREATE
 40
2457338.897574965
  9
$TDUCREATE
 40
2457339.230908298
  9
$TDUPDATE
 40
2457338.898531956
  9
$TDUUPDATE
 40
2457339.231865289
  9
$TDINDWG
 40
0.0000000116
  9
$TDUSRTIMER
 40
0.0000000116
  9
$USRTIMER
 70
     1
  9
$ANGBASE
 50
0.0
  9
$ANGDIR
 70
     0
  9
$PDMODE
 70
     0
  9
$PDSIZE
 40
-1.0
  9
$PLINEWID
 40
0.0
  9
$SPLFRAME
 70
     0
  9
$SPLINETYPE
 70
     6
  9
$SPLINESEGS
 70
     8
  9
$HANDSEED
  5
10E
  9
$SURFTAB1
 70
     6
  9
$SURFTAB2
 70
     6
  9
$SURFTYPE
 70
     6
  9
$SURFU
 70
     6
  9
$SURFV
 70
     6
  9
$UCSBASE
  2

  9
$UCSNAME
  2

  9
$UCSORG
 10
0.0
 20
0.0
 30
0.0
  9
$UCSXDIR
 10
1.0
 20
0.0
 30
0.0
  9
$UCSYDIR
 10
0.0
 20
1.0
 30
0.0
  9
$UCSORTHOREF
  2

  9
$UCSORTHOVIEW
 70
     0
  9
$UCSORGTOP
 10
0.0
 20
0.0
 30
0.0
  9
$UCSORGBOTTOM
 10
0.0
 20
0.0
 30
0.0
  9
$UCSORGLEFT
 10
0.0
 20
0.0
 30
0.0
  9
$UCSORGRIGHT
 10
0.0
 20
0.0
 30
0.0
  9
$UCSORGFRONT
 10
0.0
 20
0.0
 30
0.0
  9
$UCSORGBACK
 10
0.0
 20
0.0
 30
0.0
  9
$PUCSBASE
  2

  9
$PUCSNAME
  2

  9
$PUCSORG
 10
0.0
 20
0.0
 30
0.0
  9
$PUCSXDIR
 10
1.0
 20
0.0
 30
0.0
  9
$PUCSYDIR
 10
0.0
 20
1.0
 30
0.0
  9
$PUCSORTHOREF
  2

  9
$PUCSORTHOVIEW
 70
     0
  9
$PUCSORGTOP
 10
0.0
 20
0.0
 30
0.0
  9
$PUCSORGBOTTOM
 10
0.0
 20
0.0
 30
0.0
  9
$PUCSORGLEFT
 10
0.0
 20
0.0
 30
0.0
  9
$PUCSORGRIGHT
 10
0.0
 20
0.0
 30
0.0
  9
$PUCSORGFRONT
 10
0.0
 20
0.0
 30
0.0
  9
$PUCSORGBACK
 10
0.0
 20
0.0
 30
0.0
  9
$USERI1
 70
     0
  9
$USERI2
 70
     0
  9
$USERI3
 70
     0
  9
$USERI4
 70
     0
  9
$USERI5
 70
     0
  9
$USERR1
 40
0.0
  9
$USERR2
 40
0.0
  9
$USERR3
 40
0.0
  9
$USERR4
 40
0.0
  9
$USERR5
 40
0.0
  9
$WORLDVIEW
 70
     1
  9
$SHADEDGE
 70
     3
  9
$SHADEDIF
 70
    70
  9
$TILEMODE
 70
     1
  9
$MAXACTVP
 70
    64
  9
$PINSBASE
 10
0.0
 20
0.0
 30
0.0
  9
$PLIMCHECK
 70
     0
  9
$PEXTMIN
 10
1.0000000000E+20
 20
1.0000000000E+20
 30
1.0000000000E+20
  9
$PEXTMAX
 10
-1.0000000000E+20
 20
-1.0000000000E+20
 30
-1.0000000000E+20
  9
$PLIMMIN
 10
0.0
 20
0.0
  9
$PLIMMAX
 10
12.0
 20
9.0
  9
$UNITMODE
 70
     0
  9
$VISRETAIN
 70
     1
  9
$PLINEGEN
 70
     0
  9
$PSLTSCALE
 70
     1
  9
$TREEDEPTH
 70
  3020
  9
$CMLSTYLE
  2
Standard
  9
$CMLJUST
 70
     0
  9
$CMLSCALE
 40
1.0
  9
$PROXYGRAPHICS
 70
     1
  9
$MEASUREMENT
 70
     0
  9
$CELWEIGHT
370
    -1
  9
$ENDCAPS
280
     0
  9
$JOINSTYLE
280
     0
  9
$LWDISPLAY
290
     1
  9
$INSUNITS
 70
     1
  9
$HYPERLINKBASE
  1

  9
$STYLESHEET
  1

  9
$XEDIT
290
     1
  9
$CEPSNTYPE
380
     0
  9
$PSTYLEMODE
290
     1
  9
$FINGERPRINTGUID
  2
{31393304-033C-4D89-9D58-65ABC2D04657}
  9
$VERSIONGUID
  2
{FAEB1C32-E019-11D5-929B-00C0DF256EC4}
  9
$EXTNAMES
290
     1
  9
$PSVPSCALE
 40
0.0
  9
$OLESTARTUP
290
     0
  0
ENDSEC
  0
SECTION
  2
CLASSES
  0
CLASS
  1
ACDBDICTIONARYWDFLT
  2
AcDbDictionaryWithDefault
  3
ObjectDBX Classes
 90
        0
280
     0
281
     0
  0
CLASS
  1
VISUALSTYLE
  2
AcDbVisualStyle
  3
ObjectDBX Classes
 90
     4095
280
     0
281
     0
  0
CLASS
  1
MATERIAL
  2
AcDbMaterial
  3
ObjectDBX Classes
 90
     1153
280
     0
281
     0
  0
CLASS
  1
SCALE
  2
AcDbScale
  3
ObjectDBX Classes
 90
     1153
280
     0
281
     0
  0
CLASS
  1
TABLESTYLE
  2
AcDbTableStyle
  3
ObjectDBX Classes
 90
     4095
280
     0
281
     0
  0
CLASS
  1
MLEADERSTYLE
  2
AcDbMLeaderStyle
  3
ACDB_MLEADERSTYLE_CLASS
 90
     4095
280
     0
281
     0
  0
CLASS
  1
SUN
  2
AcDbSun
  3
SCENEOE
 90
     1153
280
     0
281
     0
  0
CLASS
  1
ACDBPLACEHOLDER
  2
AcDbPlaceHolder
  3
ObjectDBX Classes
 90
        0
280
     0
281
     0
  0
CLASS
  1
LAYOUT
  2
AcDbLayout
  3
ObjectDBX Classes
 90
        0
280
     0
281
     0
  0
ENDSEC
  0
SECTION
  2
TABLES
  0
TABLE
  2
VPORT
  5
8
330
0
100
AcDbSymbolTable
 70
     1
  0
VPORT
  5
29
330
8
100
AcDbSymbolTableRecord
100
AcDbViewportTableRecord
  2
*Active
 70
     0
 10
0.0
 20
0.0
 11
1.0
 21
1.0
 12
0.0
 22
0.0
 13
0.0
 23
0.0
 14
0.5
 24
0.5
 15
0.5
 25
0.5
 16
0.0
 26
0.0
 36
1.0
 17
0.0
 27
0.0
 37
0.0
 40
3.2202810834
 41
3.8800960775
 42
50.0
 43
0.0
 44
0.0
 50
0.0
 51
0.0
 71
     0
 72
   100
 73
     1
 74
     3
 75
     0
 76
     0
 77
     0
 78
     0
281
     0
 65
     1
110
0.0
120
0.0
130
0.0
111
1.0
121
0.0
131
0.0
112
0.0
122
1.0
132
0.0
 79
     0
146
0.0
  0
ENDTAB
  0
TABLE
  2
LTYPE
  5
5
330
0
100
AcDbSymbolTable
 70
     6
  0
LTYPE
  5
14
330
5
100
AcDbSymbolTableRecord
100
AcDbLinetypeTableRecord
  2
ByBlock
 70
     0
  3

 72
    65
 73
     0
 40
0.0
  0
LTYPE
  5
15
330
5
100
AcDbSymbolTableRecord
100
AcDbLinetypeTableRecord
  2
ByLayer
 70
     0
  3

 72
    65
 73
     0
 40
0.0
  0
LTYPE
  5
16
330
5
100
AcDbSymbolTableRecord
100
AcDbLinetypeTableRecord
  2
Continuous
 70
     0
  3
Solid line
 72
    65
 73
     0
 40
0.0
  0
LTYPE
  5
6E
330
5
100
AcDbSymbolTableRecord
100
AcDbLinetypeTableRecord
  2
HIDDEN
 70
     0
  3
Hidden __ __ __ __ __ __ __ __ __ __ __ __ __ __
 72
    65
 73
     2
 40
0.075
 49
0.05
 74
     0
 49
-0.025
 74
     0
  0
LTYPE
  5
6F
330
5
100
AcDbSymbolTableRecord
100
AcDbLinetypeTableRecord
  2
PHANTOM
 70
     0
  3
Phantom ______  __  __  ______  __  __  ______
 72
    65
 73
     6
 40
0.5
 49
0.25
 74
     0
 49
-0.05
 74
     0
 49
0.05
 74
     0
 49
-0.05
 74
     0
 49
0.05
 74
     0
 49
-0.05
 74
     0
  0
LTYPE
  5
70
330
5
100
AcDbSymbolTableRecord
100
AcDbLinetypeTableRecord
  2
CENTER
 70
     0
  3
Center ____ _ ____ _ ____ _ ____ _ ____ _ ____
 72
    65
 73
     4
 40
0.4
 49
0.25
 74
     0
 49
-0.05
 74
     0
 49
0.05
 74
     0
 49
-0.05
 74
     0
  0
LTYPE
  5
71
330
5
100
AcDbSymbolTableRecord
100
AcDbLinetypeTableRecord
  2
CENTERX2
 70
     0
  3
Center (2x) ________  __  ________  __  _____
 72
    65
 73
     4
 40
0.8
 49
0.5
 74
     0
 49
-0.1
 74
     0
 49
0.1
 74
     0
 49
-0.1
 74
     0
  0
LTYPE
  5
72
330
5
100
AcDbSymbolTableRecord
100
AcDbLinetypeTableRecord
  2
DOT2
 70
     0
  3
Dot (.5x) ........................................
 72
    65
 73
     2
 40
0.025
 49
0.0
 74
     0
 49
-0.025
 74
     0
  0
ENDTAB
  0
TABLE
  2
LAYER
  5
2
330
0
100
AcDbSymbolTable
 70
     1
  0
LAYER
  5
10
330
2
100
AcDbSymbolTableRecord
100
AcDbLayerTableRecord
  2
0
 70
     0
 62
     7
  6
Continuous
370
    -3
390
F
  0
ENDTAB
  0
TABLE
  2
STYLE
  5
3
330
0
100
AcDbSymbolTable
 70
     2
  0
STYLE
  5
11
330
3
100
AcDbSymbolTableRecord
100
AcDbTextStyleTableRecord
  2
Standard
 70
     0
 40
0.0
 41
1.0
 50
0.0
 71
     0
 42
0.125
  3
txt
  4

  0
STYLE
  5
10B
330
3
100
AcDbSymbolTableRecord
100
AcDbTextStyleTableRecord
  2
SLDTEXTSTYLE0
 70
     0
 40
0.0
 41
0.7
 50
0.0
 71
     0
 42
0.125
  3
TXT
  4

  0
ENDTAB
  0
TABLE
  2
VIEW
  5
6
330
0
100
AcDbSymbolTable
 70
     0
  0
ENDTAB
  0
TABLE
  2
UCS
  5
7
330
0
100
AcDbSymbolTable
 70
     0
  0
ENDTAB
  0
TABLE
  2
APPID
  5
9
330
0
100
AcDbSymbolTable
 70
     1
  0
APPID
  5
12
330
9
100
AcDbSymbolTableRecord
100
AcDbRegAppTableRecord
  2
ACAD
 70
     0
  0
ENDTAB
  0
TABLE
  2
DIMSTYLE
  5
A
330
0
100
AcDbSymbolTable
 70
     1
100
AcDbDimStyleTable
  0
DIMSTYLE
105
27
330
A
100
AcDbSymbolTableRecord
100
AcDbDimStyleTableRecord
  2
Standard
 70
     0
178
     0
340
11
  0
ENDTAB
  0
TABLE
  2
BLOCK_RECORD
  5
1
330
0
100
AcDbSymbolTable
 70
     1
  0
BLOCK_RECORD
  5
1F
330
1
100
AcDbSymbolTableRecord
100
AcDbBlockTableRecord
  2
*Model_Space
340
22
  0
BLOCK_RECORD
  5
1B
330
1
100
AcDbSymbolTableRecord
100
AcDbBlockTableRecord
  2
*Paper_Space
340
1E
  0
BLOCK_RECORD
  5
23
330
1
100
AcDbSymbolTableRecord
100
AcDbBlockTableRecord
  2
*Paper_Space0
340
26
  0
ENDTAB
  0
ENDSEC
  0
SECTION
  2
BLOCKS
  0
BLOCK
  5
20
330
1F
100
AcDbEntity
  8
0
100
AcDbBlockBegin
  2
*Model_Space
 70
     0
 10
0.0
 20
0.0
 30
0.0
  3
*Model_Space
  1

  0
ENDBLK
  5
21
330
1F
100
AcDbEntity
  8
0
100
AcDbBlockEnd
  0
BLOCK
  5
1C
330
1B
100
AcDbEntity
 67
     1
  8
0
100
AcDbBlockBegin
  2
*Paper_Space
 70
     0
 10
0.0
 20
0.0
 30
0.0
  3
*Paper_Space
  1

  0
ENDBLK
  5
1D
330
1B
100
AcDbEntity
 67
     1
  8
0
100
AcDbBlockEnd
  0
BLOCK
  5
24
330
23
100
AcDbEntity
  8
0
100
AcDbBlockBegin
  2
*Paper_Space0
 70
     0
 10
0.0
 20
0.0
 30
0.0
  3
*Paper_Space0
  1

  0
ENDBLK
  5
25
330
23
100
AcDbEntity
  8
0
100
AcDbBlockEnd
  0
ENDSEC
  0
SECTION
  2
ENTITIES
  0
SPLINE
  5
73
330
1F
100
AcDbEntity
  8
0
  6
Continuous
 62
     7
370
    15
100
AcDbSpline
210
0.0
220
0.0
230
1.0
 70
     8
 71
     3
 72
    14
 73
    10
 74
     0
 42
0.000000001
 43
0.00000001
 40
0.0
 40
0.0
 40
0.0
 40
0.0
 40
0.25
 40
0.25
 40
0.5
 40
0.5
 40
0.75
 40
0.75
 40
1.0
 40
1.0
 40
1.0
 40
1.0
 10
4.864593475559674
 20
0.5245366912067068
 30
0.0
 10
4.862365132837279
 20
0.5208558617459912
 30
0.0
 10
4.859714954495509
 20
0.5175332318136612
 30
0.0
 10
4.853591791350212
 20
0.5115872768098664
 30
0.0
 10
4.850109232791901
 20
0.5089831556782863
 30
0.0
 10
4.842691272040001
 20
0.5047956800385366
 30
0.0
 10
4.838647049553766
 20
0.5031535247369774
 30
0.0
 10
4.830379771664874
 20
0.5009838025719683
 30
0.0
 10
4.826150197023646
 20
0.5004308414940538
 30
0.0
 10
4.821820902795152
 20
0.5004308414940537
 30
0.0
  0
SPLINE
  5
75
330
1F
100
AcDbEntity
  8
0
  6
Continuous
 62
     7
370
    15
100
AcDbSpline
210
0.0
220
0.0
230
1.0
 70
     8
 71
     3
 72
    16
 73
    12
 74
     0
 42
0.000000001
 43
0.00000001
 40
0.0
 40
0.0
 40
0.0
 40
0.0
 40
0.1250000000000008
 40
0.1250000000000008
 40
0.2500000000000016
 40
0.2500000000000016
 40
0.5000000000000011
 40
0.5000000000000011
 40
0.7500000000000006
 40
0.7500000000000006
 40
1.0
 40
1.0
 40
1.0
 40
1.0
 10
5.111281756763638
 20
1.078569158506052
 30
0.0
 10
5.115819814737159
 20
1.078569158506052
 30
0.0
 10
5.120249996152941
 20
1.077962556542531
 30
0.0
 10
5.128901821459145
 20
1.075576289959269
 30
0.0
 10
5.133064268493903
 20
1.073793211564909
 30
0.0
 10
5.144500759644885
 20
1.066978389388396
 30
0.0
 10
5.150868730198039
 20
1.060339533977261
 30
0.0
 10
5.159302471091396
 20
1.04501592775504
 30
0.0
 10
5.161440402452673
 20
1.036305158928502
 30
0.0
 10
5.161104485236044
 20
1.01890317860439
 30
0.0
 10
5.158646994847702
 20
1.01026128192853
 30
0.0
 10
5.15405432952816
 20
1.002675008218706
 30
0.0
  0
SPLINE
  5
77
330
1F
100
AcDbEntity
  8
0
  6
Continuous
 62
     7
370
    15
100
AcDbSpline
210
0.0
220
0.0
230
1.0
 70
     8
 71
     3
 72
    22
 73
    18
 74
     0
 42
0.000000001
 43
0.00000001
 40
0.0
 40
0.0
 40
0.0
 40
0.0
 40
0.125
 40
0.125
 40
0.25
 40
0.25
 40
0.375
 40
0.375
 40
0.5
 40
0.5
 40
0.625
 40
0.625
 40
0.75
 40
0.75
 40
0.875
 40
0.875
 40
1.0
 40
1.0
 40
1.0
 40
1.0
 10
4.34594567047182
 20
1.002675008218697
 30
0.0
 10
4.343647538616098
 20
1.006471117028235
 30
0.0
 10
4.341905516291714
 20
1.010469490185697
 30
0.0
 10
4.339478419731435
 20
1.018849632874375
 30
0.0
 10
4.338815479054653
 20
1.023231379336415
 30
0.0
 10
4.338641222986671
 20
1.03189628975549
 30
0.0
 10
4.339128735156674
 20
1.036301490915719
 30
0.0
 10
4.341208050407585
 20
1.044745989266472
 30
0.0
 10
4.342786272549111
 20
1.048811376921529
 30
0.0
 10
4.347044243444862
 20
1.056547204881242
 30
0.0
 10
4.349638765250563
 20
1.060069126161773
 30
0.0
 10
4.355756721389798
 20
1.066424034539559
 30
0.0
 10
4.359285639277242
 20
1.069230483922794
 30
0.0
 10
4.366892520410284
 20
1.073771585250414
 30
0.0
 10
4.371087434629984
 20
1.075570542244125
 30
0.0
 10
4.379703050020939
 20
1.07795237201729
 30
0.0
 10
4.384176531404478
 20
1.078569158506045
 30
0.0
 10
4.38871824323634
 20
1.078569158506045
 30
0.0
  0
SPLINE
  5
79
330
1F
100
AcDbEntity
  8
0
  6
Continuous
 62
     7
370
    15
100
AcDbSpline
210
0.0
220
0.0
230
1.0
 70
     8
 71
     3
 72
    14
 73
    10
 74
     0
 42
0.000000001
 43
0.00000001
 40
0.0
 40
0.0
 40
0.0
 40
0.0
 40
0.25
 40
0.25
 40
0.5
 40
0.5
 40
0.75
 40
0.75
 40
1.0
 40
1.0
 40
1.0
 40
1.0
 10
4.678179097204838
 20
0.5004308414940524
 30
0.0
 10
4.673849763188156
 20
0.5004308414940524
 30
0.0
 10
4.669615437287226
 20
0.5009838277615428
 30
0.0
 10
4.661330782349975
 20
0.5031605789096436
 30
0.0
 10
4.65729683572118
 20
0.5048009967510727
 30
0.0
 10
4.649877762392581
 20
0.5089918981703514
 30
0.0
 10
4.646388134530976
 20
0.5116048809412198
 30
0.0
 10
4.64028224059817
 20
0.5175378516646875
 30
0.0
 10
4.637634873697777
 20
0.5208558509512101
 30
0.0
 10
4.635406524440317
 20
0.5245366912067048
 30
0.0
  0
SPLINE
  5
7B
330
1F
100
AcDbEntity
  8
0
  6
Continuous
 62
     7
370
    15
100
AcDbSpline
210
0.0
220
0.0
230
1.0
 70
     8
 71
     3
 72
    16
 73
    12
 74
     0
 42
0.000000001
 43
0.00000001
 40
0.0
 40
0.0
 40
0.0
 40
0.0
 40
0.1250000000000006
 40
0.1250000000000006
 40
0.2500000000000012
 40
0.2500000000000012
 40
0.5000000000000006
 40
0.5000000000000006
 40
0.7500000000000002
 40
0.7500000000000002
 40
1.0
 40
1.0
 40
1.0
 40
1.0
 10
0.1112817567636372
 20
1.078569158506
 30
0.0
 10
0.1158198147371577
 20
1.078569158506
 30
0.0
 10
0.1202499961529405
 20
1.077962556542479
 30
0.0
 10
0.1289018214591443
 20
1.075576289959217
 30
0.0
 10
0.1330642684939003
 20
1.073793211564857
 30
0.0
 10
0.1445007596448823
 20
1.066978389388344
 30
0.0
 10
0.1508687301980383
 20
1.060339533977208
 30
0.0
 10
0.1593024710913948
 20
1.045015927754987
 30
0.0
 10
0.1614404024526728
 20
1.036305158928449
 30
0.0
 10
0.1611044852360426
 20
1.018903178604338
 30
0.0
 10
0.1586469948477
 20
1.010261281928478
 30
0.0
 10
0.1540543295281596
 20
1.002675008218653
 30
0.0
  0
SPLINE
  5
7D
330
1F
100
AcDbEntity
  8
0
  6
Continuous
 62
     7
370
    15
100
AcDbSpline
210
0.0
220
0.0
230
1.0
 70
     8
 71
     3
 72
    22
 73
    18
 74
     0
 42
0.000000001
 43
0.00000001
 40
0.0
 40
0.0
 40
0.0
 40
0.0
 40
0.125
 40
0.125
 40
0.25
 40
0.25
 40
0.375
 40
0.375
 40
0.5
 40
0.5
 40
0.625
 40
0.625
 40
0.75
 40
0.75
 40
0.875
 40
0.875
 40
1.0
 40
1.0
 40
1.0
 40
1.0
 10
-0.65405432952818
 20
1.002675008218645
 30
0.0
 10
-0.6563524613839015
 20
1.006471117028183
 30
0.0
 10
-0.6580944837082866
 20
1.010469490185645
 30
0.0
 10
-0.6605215802685639
 20
1.018849632874323
 30
0.0
 10
-0.6611845209453473
 20
1.023231379336363
 30
0.0
 10
-0.6613587770133296
 20
1.031896289755438
 30
0.0
 10
-0.6608712648433267
 20
1.036301490915666
 30
0.0
 10
-0.6587919495924153
 20
1.044745989266419
 30
0.0
 10
-0.6572137274508897
 20
1.048811376921477
 30
0.0
 10
-0.6529557565551374
 20
1.056547204881189
 30
0.0
 10
-0.650361234749438
 20
1.060069126161721
 30
0.0
 10
-0.644243278610203
 20
1.066424034539506
 30
0.0
 10
-0.6407143607227588
 20
1.069230483922742
 30
0.0
 10
-0.6331074795897164
 20
1.073771585250362
 30
0.0
 10
-0.6289125653700164
 20
1.075570542244073
 30
0.0
 10
-0.6202969499790617
 20
1.077952372017238
 30
0.0
 10
-0.6158234685955231
 20
1.078569158505992
 30
0.0
 10
-0.6112817567636593
 20
1.078569158505992
 30
0.0
  0
SPLINE
  5
7F
330
1F
100
AcDbEntity
  8
0
  6
Continuous
 62
     7
370
    15
100
AcDbSpline
210
0.0
220
0.0
230
1.0
 70
     8
 71
     3
 72
    14
 73
    10
 74
     0
 42
0.000000001
 43
0.00000001
 40
0.0
 40
0.0
 40
0.0
 40
0.0
 40
0.25
 40
0.25
 40
0.5
 40
0.5
 40
0.75
 40
0.75
 40
1.0
 40
1.0
 40
1.0
 40
1.0
 10
-0.321820902795162
 20
0.5004308414939997
 30
0.0
 10
-0.3261502368118436
 20
0.5004308414939997
 30
0.0
 10
-0.3303845627127746
 20
0.5009838277614901
 30
0.0
 10
-0.3386692176500246
 20
0.503160578909591
 30
0.0
 10
-0.342703164278821
 20
0.5048009967510201
 30
0.0
 10
-0.350122237607419
 20
0.5089918981702991
 30
0.0
 10
-0.3536118654690256
 20
0.5116048809411671
 30
0.0
 10
-0.3597177594018309
 20
0.5175378516646353
 30
0.0
 10
-0.3623651263022232
 20
0.5208558509511576
 30
0.0
 10
-0.3645934755596837
 20
0.5245366912066523
 30
0.0
  0
SPLINE
  5
81
330
1F
100
AcDbEntity
  8
0
  6
Continuous
 62
     7
370
    15
100
AcDbSpline
210
0.0
220
0.0
230
1.0
 70
     8
 71
     3
 72
    14
 73
    10
 74
     0
 42
0.000000001
 43
0.00000001
 40
0.0
 40
0.0
 40
0.0
 40
0.0
 40
0.2499999999999996
 40
0.2499999999999996
 40
0.4999999999999991
 40
0.4999999999999991
 40
0.7499999999999996
 40
0.7499999999999996
 40
1.0
 40
1.0
 40
1.0
 40
1.0
 10
-0.1354065244403268
 20
0.5245366912066547
 30
0.0
 10
-0.1376348671627202
 20
0.5208558617459391
 30
0.0
 10
-0.1402850455044913
 20
0.5175332318136092
 30
0.0
 10
-0.1464082086497865
 20
0.5115872768098145
 30
0.0
 10
-0.1498907672080989
 20
0.508983155678234
 30
0.0
 10
-0.157308727959997
 20
0.5047956800384843
 30
0.0
 10
-0.1613529504462337
 20
0.5031535247369251
 30
0.0
 10
-0.1696202283351246
 20
0.5009838025719159
 30
0.0
 10
-0.173849802976354
 20
0.5004308414940013
 30
0.0
 10
-0.178179097204848
 20
0.5004308414940013
 30
0.0
  0
SPLINE
  5
83
330
1F
100
AcDbEntity
  8
0
  6
Continuous
 62
     7
370
    15
100
AcDbSpline
210
0.0
220
0.0
230
1.0
 70
     8
 71
     3
 72
    14
 73
    10
 74
     0
 42
0.000000001
 43
0.00000001
 40
0.0
 40
0.0
 40
0.0
 40
0.0
 40
0.25
 40
0.25
 40
0.5
 40
0.5
 40
0.75
 40
0.75
 40
1.0
 40
1.0
 40
1.0
 40
1.0
 10
-5.244593475559672
 20
-0.5245366912067085
 30
0.0
 10
-5.242365132837278
 20
-0.5208558617459931
 30
0.0
 10
-5.239714954495509
 20
-0.5175332318136643
 30
0.0
 10
-5.233591791350213
 20
-0.5115872768098695
 30
0.0
 10
-5.2301092327919
 20
-0.5089831556782891
 30
0.0
 10
-5.222691272040004
 20
-0.5047956800385393
 30
0.0
 10
-5.218647049553765
 20
-0.5031535247369799
 30
0.0
 10
-5.210379771664877
 20
-0.5009838025719705
 30
0.0
 10
-5.206150197023643
 20
-0.5004308414940557
 30
0.0
 10
-5.201820902795149
 20
-0.5004308414940558
 30
0.0
  0
SPLINE
  5
85
330
1F
100
AcDbEntity
  8
0
  6
Continuous
 62
     7
370
    15
100
AcDbSpline
210
0.0
220
0.0
230
1.0
 70
     8
 71
     3
 72
    16
 73
    12
 74
     0
 42
0.000000001
 43
0.00000001
 40
0.0
 40
0.0
 40
0.0
 40
0.0
 40
0.1249999999999992
 40
0.1249999999999992
 40
0.2499999999999984
 40
0.2499999999999984
 40
0.499999999999999
 40
0.499999999999999
 40
0.7499999999999996
 40
0.7499999999999996
 40
1.0
 40
1.0
 40
1.0
 40
1.0
 10
-5.491281756763637
 20
-1.078569158506054
 30
0.0
 10
-5.495819814737158
 20
-1.078569158506054
 30
0.0
 10
-5.500249996152941
 20
-1.077962556542532
 30
0.0
 10
-5.508901821459143
 20
-1.07557628995927
 30
0.0
 10
-5.513064268493904
 20
-1.07379321156491
 30
0.0
 10
-5.524500759644883
 20
-1.066978389388396
 30
0.0
 10
-5.53086873019804
 20
-1.060339533977261
 30
0.0
 10
-5.539302471091394
 20
-1.045015927755039
 30
0.0
 10
-5.54144040245267
 20
-1.036305158928501
 30
0.0
 10
-5.541104485236044
 20
-1.01890317860439
 30
0.0
 10
-5.5386469948477
 20
-1.010261281928531
 30
0.0
 10
-5.534054329528158
 20
-1.002675008218706
 30
0.0
  0
SPLINE
  5
87
330
1F
100
AcDbEntity
  8
0
  6
Continuous
 62
     7
370
    15
100
AcDbSpline
210
0.0
220
0.0
230
1.0
 70
     8
 71
     3
 72
    22
 73
    18
 74
     0
 42
0.000000001
 43
0.00000001
 40
0.0
 40
0.0
 40
0.0
 40
0.0
 40
0.125
 40
0.125
 40
0.25
 40
0.25
 40
0.375
 40
0.375
 40
0.5
 40
0.5
 40
0.625
 40
0.625
 40
0.75
 40
0.75
 40
0.875
 40
0.875
 40
1.0
 40
1.0
 40
1.0
 40
1.0
 10
-4.725945670471821
 20
-1.002675008218699
 30
0.0
 10
-4.7236475386161
 20
-1.006471117028237
 30
0.0
 10
-4.721905516291715
 20
-1.0104694901857
 30
0.0
 10
-4.719478419731436
 20
-1.018849632874378
 30
0.0
 10
-4.718815479054653
 20
-1.023231379336418
 30
0.0
 10
-4.718641222986671
 20
-1.031896289755492
 30
0.0
 10
-4.719128735156675
 20
-1.036301490915721
 30
0.0
 10
-4.721208050407586
 20
-1.044745989266475
 30
0.0
 10
-4.722786272549112
 20
-1.048811376921532
 30
0.0
 10
-4.727044243444864
 20
-1.056547204881244
 30
0.0
 10
-4.729638765250563
 20
-1.060069126161775
 30
0.0
 10
-4.735756721389799
 20
-1.066424034539561
 30
0.0
 10
-4.739285639277242
 20
-1.069230483922796
 30
0.0
 10
-4.746892520410284
 20
-1.073771585250417
 30
0.0
 10
-4.751087434629985
 20
-1.075570542244127
 30
0.0
 10
-4.759703050020939
 20
-1.077952372017292
 30
0.0
 10
-4.764176531404479
 20
-1.078569158506047
 30
0.0
 10
-4.768718243236341
 20
-1.078569158506047
 30
0.0
  0
SPLINE
  5
89
330
1F
100
AcDbEntity
  8
0
  6
Continuous
 62
     7
370
    15
100
AcDbSpline
210
0.0
220
0.0
230
1.0
 70
     8
 71
     3
 72
    14
 73
    10
 74
     0
 42
0.000000001
 43
0.00000001
 40
0.0
 40
0.0
 40
0.0
 40
0.0
 40
0.25
 40
0.25
 40
0.5
 40
0.5
 40
0.75
 40
0.75
 40
1.0
 40
1.0
 40
1.0
 40
1.0
 10
-5.05817909720484
 20
-0.500430841494054
 30
0.0
 10
-5.053849763188158
 20
-0.500430841494054
 30
0.0
 10
-5.049615437287227
 20
-0.5009838277615447
 30
0.0
 10
-5.041330782349974
 20
-0.5031605789096456
 30
0.0
 10
-5.037296835721179
 20
-0.5048009967510755
 30
0.0
 10
-5.029877762392579
 20
-0.5089918981703551
 30
0.0
 10
-5.026388134530974
 20
-0.5116048809412231
 30
0.0
 10
-5.020282240598169
 20
-0.5175378516646916
 30
0.0
 10
-5.017634873697776
 20
-0.5208558509512126
 30
0.0
 10
-5.015406524440317
 20
-0.5245366912067075
 30
0.0
  0
SPLINE
  5
95
330
1F
100
AcDbEntity
  8
0
  6
Continuous
 62
     7
370
    15
100
AcDbSpline
210
0.0
220
0.0
230
1.0
 70
     8
 71
     3
 72
    14
 73
    10
 74
     0
 42
0.000000001
 43
0.00000001
 40
0.0
 40
0.0
 40
0.0
 40
0.0
 40
0.25
 40
0.25
 40
0.5
 40
0.5
 40
0.75
 40
0.75
 40
1.0
 40
1.0
 40
1.0
 40
1.0
 10
-5.015406524440326
 20
0.524536691206604
 30
0.0
 10
-5.01763486716272
 20
0.5208558617458884
 30
0.0
 10
-5.02028504550449
 20
0.5175332318135586
 30
0.0
 10
-5.026408208649785
 20
0.5115872768097637
 30
0.0
 10
-5.029890767208099
 20
0.5089831556781836
 30
0.0
 10
-5.037308727959995
 20
0.5047956800384333
 30
0.0
 10
-5.041352950446235
 20
0.5031535247368739
 30
0.0
 10
-5.049620228335124
 20
0.5009838025718646
 30
0.0
 10
-5.053849802976354
 20
0.50043084149395
 30
0.0
 10
-5.058179097204849
 20
0.5004308414939502
 30
0.0
  0
SPLINE
  5
97
330
1F
100
AcDbEntity
  8
0
  6
Continuous
 62
     7
370
    15
100
AcDbSpline
210
0.0
220
0.0
230
1.0
 70
     8
 71
     3
 72
    16
 73
    12
 74
     0
 42
0.000000001
 43
0.00000001
 40
0.0
 40
0.0
 40
0.0
 40
0.0
 40
0.1250000000000001
 40
0.1250000000000001
 40
0.2500000000000001
 40
0.2500000000000001
 40
0.5000000000000001
 40
0.5000000000000001
 40
0.7500000000000001
 40
0.7500000000000001
 40
1.0
 40
1.0
 40
1.0
 40
1.0
 10
-4.768718243236363
 20
1.078569158505949
 30
0.0
 10
-4.764180185262844
 20
1.078569158505949
 30
0.0
 10
-4.75975000384706
 20
1.077962556542428
 30
0.0
 10
-4.751098178540857
 20
1.075576289959166
 30
0.0
 10
-4.746935731506101
 20
1.073793211564806
 30
0.0
 10
-4.735499240355118
 20
1.066978389388293
 30
0.0
 10
-4.729131269801962
 20
1.060339533977157
 30
0.0
 10
-4.720697528908605
 20
1.045015927754937
 30
0.0
 10
-4.718559597547327
 20
1.036305158928398
 30
0.0
 10
-4.718895514763958
 20
1.018903178604287
 30
0.0
 10
-4.721353005152299
 20
1.010261281928426
 30
0.0
 10
-4.725945670471841
 20
1.002675008218602
 30
0.0
  0
SPLINE
  5
99
330
1F
100
AcDbEntity
  8
0
  6
Continuous
 62
     7
370
    15
100
AcDbSpline
210
0.0
220
0.0
230
1.0
 70
     8
 71
     3
 72
    22
 73
    18
 74
     0
 42
0.000000001
 43
0.00000001
 40
0.0
 40
0.0
 40
0.0
 40
0.0
 40
0.125
 40
0.125
 40
0.25
 40
0.25
 40
0.375
 40
0.375
 40
0.5
 40
0.5
 40
0.625
 40
0.625
 40
0.75
 40
0.75
 40
0.875
 40
0.875
 40
1.0
 40
1.0
 40
1.0
 40
1.0
 10
-5.53405432952818
 20
1.002675008218593
 30
0.0
 10
-5.5363524613839
 20
1.006471117028131
 30
0.0
 10
-5.538094483708286
 20
1.010469490185593
 30
0.0
 10
-5.540521580268564
 20
1.018849632874271
 30
0.0
 10
-5.541184520945349
 20
1.023231379336311
 30
0.0
 10
-5.541358777013329
 20
1.031896289755386
 30
0.0
 10
-5.540871264843328
 20
1.036301490915614
 30
0.0
 10
-5.538791949592415
 20
1.044745989266368
 30
0.0
 10
-5.53721372745089
 20
1.048811376921425
 30
0.0
 10
-5.532955756555137
 20
1.056547204881138
 30
0.0
 10
-5.530361234749439
 20
1.060069126161669
 30
0.0
 10
-5.524243278610204
 20
1.066424034539455
 30
0.0
 10
-5.520714360722761
 20
1.06923048392269
 30
0.0
 10
-5.513107479589716
 20
1.07377158525031
 30
0.0
 10
-5.508912565370015
 20
1.075570542244022
 30
0.0
 10
-5.500296949979061
 20
1.077952372017187
 30
0.0
 10
-5.495823468595523
 20
1.078569158505941
 30
0.0
 10
-5.491281756763659
 20
1.078569158505941
 30
0.0
  0
SPLINE
  5
9B
330
1F
100
AcDbEntity
  8
0
  6
Continuous
 62
     7
370
    15
100
AcDbSpline
210
0.0
220
0.0
230
1.0
 70
     8
 71
     3
 72
    14
 73
    10
 74
     0
 42
0.000000001
 43
0.00000001
 40
0.0
 40
0.0
 40
0.0
 40
0.0
 40
0.25
 40
0.25
 40
0.5
 40
0.5
 40
0.75
 40
0.75
 40
1.0
 40
1.0
 40
1.0
 40
1.0
 10
-5.201820902795162
 20
0.5004308414939487
 30
0.0
 10
-5.206150236811844
 20
0.5004308414939487
 30
0.0
 10
-5.210384562712775
 20
0.500983827761439
 30
0.0
 10
-5.218669217650024
 20
0.50316057890954
 30
0.0
 10
-5.222703164278822
 20
0.504800996750969
 30
0.0
 10
-5.23012223760742
 20
0.5089918981702481
 30
0.0
 10
-5.233611865469027
 20
0.5116048809411161
 30
0.0
 10
-5.23971775940183
 20
0.5175378516645839
 30
0.0
 10
-5.242365126302224
 20
0.520855850951107
 30
0.0
 10
-5.244593475559683
 20
0.5245366912066016
 30
0.0
  0
SPLINE
  5
9D
330
1F
100
AcDbEntity
  8
0
  6
Continuous
 62
     7
370
    15
100
AcDbSpline
210
0.0
220
0.0
230
1.0
 70
     8
 71
     3
 72
    10
 73
     6
 74
     0
 42
0.000000001
 43
0.00000001
 40
0.0
 40
0.0
 40
0.0
 40
0.0
 40
0.5
 40
0.5
 40
1.0
 40
1.0
 40
1.0
 40
1.0
 10
-4.77277257276452
 20
-0.1119384360521804
 30
0.0
 10
-4.775139073884824
 20
-0.1080293932667524
 30
0.0
 10
-4.776925296871489
 20
-0.1038915176556005
 30
0.0
 10
-4.779368250095145
 20
-0.0951702407933803
 30
0.0
 10
-4.779999999999999
 20
-0.0906140938889534
 30
0.0
 10
-4.779999999999998
 20
-0.0860442857648336
 30
0.0
  0
SPLINE
  5
9F
330
1F
100
AcDbEntity
  8
0
  6
Continuous
 62
     7
370
    15
100
AcDbSpline
210
0.0
220
0.0
230
1.0
 70
     8
 71
     3
 72
    14
 73
    10
 74
     0
 42
0.000000001
 43
0.00000001
 40
0.0
 40
0.0
 40
0.0
 40
0.0
 40
0.25
 40
0.25
 40
0.5
 40
0.5
 40
0.75
 40
0.75
 40
1.0
 40
1.0
 40
1.0
 40
1.0
 10
-4.159403490907892
 20
-1.078569158506041
 30
0.0
 10
-4.163763040586923
 20
-1.078569158506041
 30
0.0
 10
-4.168022896765711
 20
-1.07800856816543
 30
0.0
 10
-4.176350423918358
 20
-1.075806335034167
 30
0.0
 10
-4.180386368790635
 20
-1.074153015104741
 30
0.0
 10
-4.187799598149761
 20
-1.069943428773458
 30
0.0
 10
-4.191271404723556
 20
-1.067329146441695
 30
0.0
 10
-4.197331251210526
 20
-1.061423162739325
 30
0.0
 10
-4.199975466953271
 20
-1.058098306746611
 30
0.0
 10
-4.202176063672415
 20
-1.054463308793389
 30
0.0
  0
SPLINE
  5
A1
330
1F
100
AcDbEntity
  8
0
  6
Continuous
 62
     7
370
    15
100
AcDbSpline
210
0.0
220
0.0
230
1.0
 70
     8
 71
     3
 72
    14
 73
    10
 74
     0
 42
0.000000001
 43
0.00000001
 40
0.0
 40
0.0
 40
0.0
 40
0.0
 40
0.25
 40
0.25
 40
0.5
 40
0.5
 40
0.75
 40
0.75
 40
1.0
 40
1.0
 40
1.0
 40
1.0
 10
-1.177823936327564
 20
-1.054463308793357
 30
0.0
 10
-1.180027156460175
 20
-1.058102640163285
 30
0.0
 10
-1.182649323671326
 20
-1.061402416864718
 30
0.0
 10
-1.188726142645527
 20
-1.067328563537167
 30
0.0
 10
-1.192193605239445
 20
-1.069938615895685
 30
0.0
 10
-1.199603528393662
 20
-1.074148229507667
 30
0.0
 10
-1.203658317620651
 20
-1.075808840126542
 30
0.0
 10
-1.21197256590004
 20
-1.078007174786526
 30
0.0
 10
-1.216231345208737
 20
-1.07856915850601
 30
0.0
 10
-1.220596509092085
 20
-1.07856915850601
 30
0.0
  0
SPLINE
  5
A3
330
1F
100
AcDbEntity
  8
0
  6
Continuous
 62
     7
370
    15
100
AcDbSpline
210
0.0
220
0.0
230
1.0
 70
     8
 71
     3
 72
    10
 73
     6
 74
     0
 42
0.000000001
 43
0.00000001
 40
0.0
 40
0.0
 40
0.0
 40
0.0
 40
0.5
 40
0.5
 40
1.0
 40
1.0
 40
1.0
 40
1.0
 10
-0.5999999999999993
 20
-0.0860442857647902
 30
0.0
 10
-0.5999999999999992
 20
-0.0906140996548128
 30
0.0
 10
-0.6006149764969573
 20
-0.0950790311472572
 30
0.0
 10
-0.6030418152603664
 20
-0.103804805365313
 30
0.0
 10
-0.6048609254269887
 20
-0.1080293921299499
 30
0.0
 10
-0.6072274272354775
 20
-0.1119384360521374
 30
0.0
  0
SPLINE
  5
A5
330
1F
100
AcDbEntity
  8
0
  6
Continuous
 62
     7
370
    15
100
AcDbSpline
210
0.0
220
0.0
230
1.0
 70
     8
 71
     3
 72
    10
 73
     6
 74
     0
 42
0.000000001
 43
0.00000001
 40
0.0
 40
0.0
 40
0.0
 40
0.0
 40
0.5
 40
0.5
 40
1.0
 40
1.0
 40
1.0
 40
1.0
 10
-0.6072274272354798
 20
0.1119384360521266
 30
0.0
 10
-0.6048609261151753
 20
0.1080293932666984
 30
0.0
 10
-0.6030747031285133
 20
0.1038915176555477
 30
0.0
 10
-0.6006317499048534
 20
0.095170240793327
 30
0.0
 10
-0.6000000000000011
 20
0.0906140938888997
 30
0.0
 10
-0.6000000000000011
 20
0.0860442857647796
 30
0.0
  0
SPLINE
  5
A7
330
1F
100
AcDbEntity
  8
0
  6
Continuous
 62
     7
370
    15
100
AcDbSpline
210
0.0
220
0.0
230
1.0
 70
     8
 71
     3
 72
    14
 73
    10
 74
     0
 42
0.000000001
 43
0.00000001
 40
0.0
 40
0.0
 40
0.0
 40
0.0
 40
0.25
 40
0.25
 40
0.5
 40
0.5
 40
0.75
 40
0.75
 40
1.0
 40
1.0
 40
1.0
 40
1.0
 10
-1.220596509092108
 20
1.078569158505986
 30
0.0
 10
-1.216236959413077
 20
1.078569158505986
 30
0.0
 10
-1.211977103234289
 20
1.078008568165374
 30
0.0
 10
-1.203649576081639
 20
1.075806335034112
 30
0.0
 10
-1.199613631209365
 20
1.074153015104685
 30
0.0
 10
-1.192200401850239
 20
1.069943428773402
 30
0.0
 10
-1.188728595276443
 20
1.067329146441638
 30
0.0
 10
-1.182668748789474
 20
1.061423162739268
 30
0.0
 10
-1.18002453304673
 20
1.058098306746555
 30
0.0
 10
-1.177823936327587
 20
1.054463308793333
 30
0.0
  0
SPLINE
  5
A9
330
1F
100
AcDbEntity
  8
0
  6
Continuous
 62
     7
370
    15
100
AcDbSpline
210
0.0
220
0.0
230
1.0
 70
     8
 71
     3
 72
    14
 73
    10
 74
     0
 42
0.000000001
 43
0.00000001
 40
0.0
 40
0.0
 40
0.0
 40
0.0
 40
0.25
 40
0.25
 40
0.5
 40
0.5
 40
0.75
 40
0.75
 40
1.0
 40
1.0
 40
1.0
 40
1.0
 10
-4.202176063672435
 20
1.054463308793302
 30
0.0
 10
-4.199972843539824
 20
1.058102640163229
 30
0.0
 10
-4.197350676328671
 20
1.061402416864664
 30
0.0
 10
-4.19127385735447
 20
1.067328563537112
 30
0.0
 10
-4.187806394760554
 20
1.06993861589563
 30
0.0
 10
-4.180396471606337
 20
1.074148229507612
 30
0.0
 10
-4.176341682379348
 20
1.075808840126487
 30
0.0
 10
-4.168027434099959
 20
1.078007174786471
 30
0.0
 10
-4.163768654791263
 20
1.078569158505955
 30
0.0
 10
-4.159403490907915
 20
1.078569158505955
 30
0.0
  0
SPLINE
  5
AB
330
1F
100
AcDbEntity
  8
0
  6
Continuous
 62
     7
370
    15
100
AcDbSpline
210
0.0
220
0.0
230
1.0
 70
     8
 71
     3
 72
    10
 73
     6
 74
     0
 42
0.000000001
 43
0.00000001
 40
0.0
 40
0.0
 40
0.0
 40
0.0
 40
0.5
 40
0.5
 40
1.0
 40
1.0
 40
1.0
 40
1.0
 10
-4.780000000000001
 20
0.0860442857647349
 30
0.0
 10
-4.780000000000001
 20
0.0906140996547577
 30
0.0
 10
-4.779385023503045
 20
0.0950790311472024
 30
0.0
 10
-4.776958184739633
 20
0.1038048053652586
 30
0.0
 10
-4.775139074573011
 20
0.1080293921298944
 30
0.0
 10
-4.772772572764523
 20
0.111938436052082
 30
0.0
  0
SPLINE
  5
AD
330
1F
100
AcDbEntity
  8
0
  6
Continuous
 62
     7
370
    15
100
AcDbSpline
210
0.0
220
0.0
230
1.0
 70
     8
 71
     3
 72
    10
 73
     6
 74
     0
 42
0.000000001
 43
0.00000001
 40
0.0
 40
0.0
 40
0.0
 40
0.0
 40
0.5
 40
0.5
 40
1.0
 40
1.0
 40
1.0
 40
1.0
 10
4.392772572764521
 20
0.111938436052179
 30
0.0
 10
4.395139073884826
 20
0.1080293932667507
 30
0.0
 10
4.396925296871489
 20
0.1038915176556001
 30
0.0
 10
4.399368250095146
 20
0.0951702407933793
 30
0.0
 10
4.399999999999999
 20
0.0906140938889521
 30
0.0
 10
4.399999999999999
 20
0.086044285764832
 30
0.0
  0
SPLINE
  5
AF
330
1F
100
AcDbEntity
  8
0
  6
Continuous
 62
     7
370
    15
100
AcDbSpline
210
0.0
220
0.0
230
1.0
 70
     8
 71
     3
 72
    14
 73
    10
 74
     0
 42
0.000000001
 43
0.00000001
 40
0.0
 40
0.0
 40
0.0
 40
0.0
 40
0.25
 40
0.25
 40
0.5
 40
0.5
 40
0.75
 40
0.75
 40
1.0
 40
1.0
 40
1.0
 40
1.0
 10
3.779403490907892
 20
1.078569158506038
 30
0.0
 10
3.783763040586923
 20
1.078569158506038
 30
0.0
 10
3.788022896765712
 20
1.078008568165427
 30
0.0
 10
3.796350423918361
 20
1.075806335034164
 30
0.0
 10
3.800386368790636
 20
1.074153015104738
 30
0.0
 10
3.807799598149762
 20
1.069943428773454
 30
0.0
 10
3.811271404723559
 20
1.067329146441691
 30
0.0
 10
3.817331251210527
 20
1.06142316273932
 30
0.0
 10
3.819975466953272
 20
1.058098306746607
 30
0.0
 10
3.822176063672415
 20
1.054463308793385
 30
0.0
  0
SPLINE
  5
B1
330
1F
100
AcDbEntity
  8
0
  6
Continuous
 62
     7
370
    15
100
AcDbSpline
210
0.0
220
0.0
230
1.0
 70
     8
 71
     3
 72
    14
 73
    10
 74
     0
 42
0.000000001
 43
0.00000001
 40
0.0
 40
0.0
 40
0.0
 40
0.0
 40
0.25
 40
0.25
 40
0.5
 40
0.5
 40
0.75
 40
0.75
 40
1.0
 40
1.0
 40
1.0
 40
1.0
 10
0.6778239363275648
 20
1.054463308793353
 30
0.0
 10
0.6800271564601762
 20
1.05810264016328
 30
0.0
 10
0.6826493236713278
 20
1.061402416864714
 30
0.0
 10
0.6887261426455292
 20
1.067328563537163
 30
0.0
 10
0.6921936052394467
 20
1.069938615895681
 30
0.0
 10
0.6996035283936635
 20
1.074148229507663
 30
0.0
 10
0.7036583176206528
 20
1.075808840126538
 30
0.0
 10
0.7119725659000411
 20
1.078007174786522
 30
0.0
 10
0.7162313452087383
 20
1.078569158506006
 30
0.0
 10
0.7205965090920861
 20
1.078569158506006
 30
0.0
  0
SPLINE
  5
B3
330
1F
100
AcDbEntity
  8
0
  6
Continuous
 62
     7
370
    15
100
AcDbSpline
210
0.0
220
0.0
230
1.0
 70
     8
 71
     3
 72
    10
 73
     6
 74
     0
 42
0.000000001
 43
0.00000001
 40
0.0
 40
0.0
 40
0.0
 40
0.0
 40
0.5
 40
0.5
 40
1.0
 40
1.0
 40
1.0
 40
1.0
 10
0.0999999999999997
 20
0.0860442857647869
 30
0.0
 10
0.0999999999999996
 20
0.0906140996548095
 30
0.0
 10
0.1006149764969576
 20
0.095079031147254
 30
0.0
 10
0.1030418152603668
 20
0.1038048053653098
 30
0.0
 10
0.1048609254269891
 20
0.1080293921299467
 30
0.0
 10
0.1072274272354779
 20
0.1119384360521341
 30
0.0
  0
SPLINE
  5
B5
330
1F
100
AcDbEntity
  8
0
  6
Continuous
 62
     7
370
    15
100
AcDbSpline
210
0.0
220
0.0
230
1.0
 70
     8
 71
     3
 72
    10
 73
     6
 74
     0
 42
0.000000001
 43
0.00000001
 40
0.0
 40
0.0
 40
0.0
 40
0.0
 40
0.5
 40
0.5
 40
1.0
 40
1.0
 40
1.0
 40
1.0
 10
0.1072274272354803
 20
-0.1119384360521293
 30
0.0
 10
0.1048609261151758
 20
-0.1080293932667013
 30
0.0
 10
0.1030747031285133
 20
-0.1038915176555492
 30
0.0
 10
0.1006317499048537
 20
-0.095170240793329
 30
0.0
 10
0.1000000000000015
 20
-0.090614093888902
 30
0.0
 10
0.1000000000000015
 20
-0.0860442857647822
 30
0.0
  0
SPLINE
  5
B7
330
1F
100
AcDbEntity
  8
0
  6
Continuous
 62
     7
370
    15
100
AcDbSpline
210
0.0
220
0.0
230
1.0
 70
     8
 71
     3
 72
    14
 73
    10
 74
     0
 42
0.000000001
 43
0.00000001
 40
0.0
 40
0.0
 40
0.0
 40
0.0
 40
0.25
 40
0.25
 40
0.5
 40
0.5
 40
0.75
 40
0.75
 40
1.0
 40
1.0
 40
1.0
 40
1.0
 10
0.72059650909211
 20
-1.078569158505988
 30
0.0
 10
0.7162369594130789
 20
-1.078569158505988
 30
0.0
 10
0.7119771032342908
 20
-1.078008568165376
 30
0.0
 10
0.7036495760816416
 20
-1.075806335034114
 30
0.0
 10
0.6996136312093673
 20
-1.074153015104687
 30
0.0
 10
0.6922004018502418
 20
-1.069943428773404
 30
0.0
 10
0.6887285952764454
 20
-1.067329146441641
 30
0.0
 10
0.6826687487894764
 20
-1.061423162739271
 30
0.0
 10
0.6800245330467317
 20
-1.058098306746557
 30
0.0
 10
0.6778239363275883
 20
-1.054463308793335
 30
0.0
  0
SPLINE
  5
B9
330
1F
100
AcDbEntity
  8
0
  6
Continuous
 62
     7
370
    15
100
AcDbSpline
210
0.0
220
0.0
230
1.0
 70
     8
 71
     3
 72
    14
 73
    10
 74
     0
 42
0.000000001
 43
0.00000001
 40
0.0
 40
0.0
 40
0.0
 40
0.0
 40
0.25
 40
0.25
 40
0.5
 40
0.5
 40
0.75
 40
0.75
 40
1.0
 40
1.0
 40
1.0
 40
1.0
 10
3.822176063672434
 20
-1.054463308793301
 30
0.0
 10
3.819972843539822
 20
-1.058102640163229
 30
0.0
 10
3.817350676328672
 20
-1.061402416864662
 30
0.0
 10
3.81127385735447
 20
-1.067328563537111
 30
0.0
 10
3.807806394760554
 20
-1.069938615895629
 30
0.0
 10
3.800396471606338
 20
-1.074148229507611
 30
0.0
 10
3.796341682379347
 20
-1.075808840126486
 30
0.0
 10
3.788027434099959
 20
-1.07800717478647
 30
0.0
 10
3.783768654791262
 20
-1.078569158505954
 30
0.0
 10
3.779403490907913
 20
-1.078569158505954
 30
0.0
  0
SPLINE
  5
BB
330
1F
100
AcDbEntity
  8
0
  6
Continuous
 62
     7
370
    15
100
AcDbSpline
210
0.0
220
0.0
230
1.0
 70
     8
 71
     3
 72
    10
 73
     6
 74
     0
 42
0.000000001
 43
0.00000001
 40
0.0
 40
0.0
 40
0.0
 40
0.0
 40
0.5
 40
0.5
 40
1.0
 40
1.0
 40
1.0
 40
1.0
 10
4.400000000000001
 20
-0.0860442857647363
 30
0.0
 10
4.4
 20
-0.090614099654759
 30
0.0
 10
4.399385023503044
 20
-0.0950790311472035
 30
0.0
 10
4.396958184739633
 20
-0.1038048053652595
 30
0.0
 10
4.395139074573013
 20
-0.1080293921298959
 30
0.0
 10
4.392772572764523
 20
-0.1119384360520834
 30
0.0
  0
SPLINE
  5
BD
330
1F
100
AcDbEntity
  8
0
  6
Continuous
 62
     7
370
    15
100
AcDbSpline
210
0.0
220
0.0
230
1.0
 70
     8
 71
     3
 72
    16
 73
    12
 74
     0
 42
0.000000001
 43
0.00000001
 40
0.0
 40
0.0
 40
0.0
 40
0.0
 40
0.1250000000000008
 40
0.1250000000000008
 40
0.2500000000000016
 40
0.2500000000000016
 40
0.5000000000000011
 40
0.5000000000000011
 40
0.7500000000000006
 40
0.7500000000000006
 40
1.0
 40
1.0
 40
1.0
 40
1.0
 10
-0.6112817567636357
 20
-1.078569158506003
 30
0.0
 10
-0.6158198147371562
 20
-1.078569158506003
 30
0.0
 10
-0.6202499961529389
 20
-1.077962556542482
 30
0.0
 10
-0.628901821459143
 20
-1.07557628995922
 30
0.0
 10
-0.6330642684938991
 20
-1.07379321156486
 30
0.0
 10
-0.6445007596448812
 20
-1.066978389388347
 30
0.0
 10
-0.6508687301980373
 20
-1.060339533977211
 30
0.0
 10
-0.6593024710913935
 20
-1.04501592775499
 30
0.0
 10
-0.6614404024526715
 20
-1.036305158928452
 30
0.0
 10
-0.6611044852360409
 20
-1.01890317860434
 30
0.0
 10
-0.6586469948476985
 20
-1.010261281928481
 30
0.0
 10
-0.6540543295281579
 20
-1.002675008218656
 30
0.0
  0
SPLINE
  5
BF
330
1F
100
AcDbEntity
  8
0
  6
Continuous
 62
     7
370
    15
100
AcDbSpline
210
0.0
220
0.0
230
1.0
 70
     8
 71
     3
 72
    22
 73
    18
 74
     0
 42
0.000000001
 43
0.00000001
 40
0.0
 40
0.0
 40
0.0
 40
0.0
 40
0.125
 40
0.125
 40
0.25
 40
0.25
 40
0.375
 40
0.375
 40
0.5
 40
0.5
 40
0.625
 40
0.625
 40
0.75
 40
0.75
 40
0.875
 40
0.875
 40
1.0
 40
1.0
 40
1.0
 40
1.0
 10
0.1540543295281815
 20
-1.002675008218647
 30
0.0
 10
0.1563524613839028
 20
-1.006471117028185
 30
0.0
 10
0.158094483708288
 20
-1.010469490185647
 30
0.0
 10
0.1605215802685654
 20
-1.018849632874326
 30
0.0
 10
0.1611845209453488
 20
-1.023231379336365
 30
0.0
 10
0.1613587770133308
 20
-1.03189628975544
 30
0.0
 10
0.1608712648433281
 20
-1.036301490915669
 30
0.0
 10
0.1587919495924169
 20
-1.044745989266422
 30
0.0
 10
0.1572137274508912
 20
-1.04881137692148
 30
0.0
 10
0.1529557565551388
 20
-1.056547204881192
 30
0.0
 10
0.1503612347494396
 20
-1.060069126161723
 30
0.0
 10
0.1442432786102044
 20
-1.066424034539509
 30
0.0
 10
0.1407143607227603
 20
-1.069230483922744
 30
0.0
 10
0.1331074795897179
 20
-1.073771585250365
 30
0.0
 10
0.128912565370018
 20
-1.075570542244075
 30
0.0
 10
0.1202969499790629
 20
-1.077952372017241
 30
0.0
 10
0.1158234685955244
 20
-1.078569158505995
 30
0.0
 10
0.1112817567636608
 20
-1.078569158505995
 30
0.0
  0
SPLINE
  5
C1
330
1F
100
AcDbEntity
  8
0
  6
Continuous
 62
     7
370
    15
100
AcDbSpline
210
0.0
220
0.0
230
1.0
 70
     8
 71
     3
 72
    14
 73
    10
 74
     0
 42
0.000000001
 43
0.00000001
 40
0.0
 40
0.0
 40
0.0
 40
0.0
 40
0.25
 40
0.25
 40
0.5
 40
0.5
 40
0.75
 40
0.75
 40
1.0
 40
1.0
 40
1.0
 40
1.0
 10
-0.1781790972048374
 20
-0.5004308414940027
 30
0.0
 10
-0.1738497631881556
 20
-0.5004308414940027
 30
0.0
 10
-0.1696154372872244
 20
-0.5009838277614932
 30
0.0
 10
-0.1613307823499737
 20
-0.5031605789095944
 30
0.0
 10
-0.1572968357211771
 20
-0.5048009967510237
 30
0.0
 10
-0.1498777623925789
 20
-0.5089918981703029
 30
0.0
 10
-0.1463881345309721
 20
-0.5116048809411715
 30
0.0
 10
-0.1402822405981668
 20
-0.5175378516646402
 30
0.0
 10
-0.1376348736977764
 20
-0.5208558509511603
 30
0.0
 10
-0.1354065244403157
 20
-0.5245366912066551
 30
0.0
  0
SPLINE
  5
C3
330
1F
100
AcDbEntity
  8
0
  6
Continuous
 62
     7
370
    15
100
AcDbSpline
210
0.0
220
0.0
230
1.0
 70
     8
 71
     3
 72
    14
 73
    10
 74
     0
 42
0.000000001
 43
0.00000001
 40
0.0
 40
0.0
 40
0.0
 40
0.0
 40
0.25
 40
0.25
 40
0.5
 40
0.5
 40
0.75
 40
0.75
 40
1.0
 40
1.0
 40
1.0
 40
1.0
 10
-0.3645934755596718
 20
-0.5245366912066578
 30
0.0
 10
-0.3623651328372784
 20
-0.5208558617459423
 30
0.0
 10
-0.3597149544955079
 20
-0.5175332318136131
 30
0.0
 10
-0.3535917913502127
 20
-0.5115872768098181
 30
0.0
 10
-0.3501092327919004
 20
-0.5089831556782377
 30
0.0
 10
-0.3426912720400023
 20
-0.5047956800384878
 30
0.0
 10
-0.3386470495537652
 20
-0.5031535247369283
 30
0.0
 10
-0.3303797716648741
 20
-0.500983802571919
 30
0.0
 10
-0.3261501970236447
 20
-0.5004308414940045
 30
0.0
 10
-0.3218209027951505
 20
-0.5004308414940044
 30
0.0
  0
SPLINE
  5
C5
330
1F
100
AcDbEntity
  8
0
  6
Continuous
 62
     7
370
    15
100
AcDbSpline
210
0.0
220
0.0
230
1.0
 70
     8
 71
     3
 72
    16
 73
    12
 74
     0
 42
0.000000001
 43
0.00000001
 40
0.0
 40
0.0
 40
0.0
 40
0.0
 40
0.1249999999999985
 40
0.1249999999999985
 40
0.249999999999997
 40
0.249999999999997
 40
0.499999999999998
 40
0.499999999999998
 40
0.749999999999999
 40
0.749999999999999
 40
1.0
 40
1.0
 40
1.0
 40
1.0
 10
4.388718243236364
 20
-1.078569158505949
 30
0.0
 10
4.384180185262843
 20
-1.078569158505949
 30
0.0
 10
4.379750003847059
 20
-1.077962556542428
 30
0.0
 10
4.371098178540855
 20
-1.075576289959165
 30
0.0
 10
4.366935731506102
 20
-1.073793211564806
 30
0.0
 10
4.355499240355116
 20
-1.066978389388292
 30
0.0
 10
4.349131269801962
 20
-1.060339533977156
 30
0.0
 10
4.340697528908605
 20
-1.045015927754935
 30
0.0
 10
4.338559597547328
 20
-1.036305158928397
 30
0.0
 10
4.338895514763959
 20
-1.018903178604285
 30
0.0
 10
4.3413530051523
 20
-1.010261281928426
 30
0.0
 10
4.345945670471841
 20
-1.002675008218602
 30
0.0
  0
SPLINE
  5
C7
330
1F
100
AcDbEntity
  8
0
  6
Continuous
 62
     7
370
    15
100
AcDbSpline
210
0.0
220
0.0
230
1.0
 70
     8
 71
     3
 72
    22
 73
    18
 74
     0
 42
0.000000001
 43
0.00000001
 40
0.0
 40
0.0
 40
0.0
 40
0.0
 40
0.125
 40
0.125
 40
0.25
 40
0.25
 40
0.375
 40
0.375
 40
0.5
 40
0.5
 40
0.625
 40
0.625
 40
0.75
 40
0.75
 40
0.875
 40
0.875
 40
1.0
 40
1.0
 40
1.0
 40
1.0
 10
5.15405432952818
 20
-1.002675008218594
 30
0.0
 10
5.156352461383902
 20
-1.006471117028132
 30
0.0
 10
5.158094483708287
 20
-1.010469490185594
 30
0.0
 10
5.160521580268564
 20
-1.018849632874272
 30
0.0
 10
5.161184520945349
 20
-1.023231379336312
 30
0.0
 10
5.161358777013329
 20
-1.031896289755386
 30
0.0
 10
5.160871264843328
 20
-1.036301490915616
 30
0.0
 10
5.158791949592416
 20
-1.044745989266369
 30
0.0
 10
5.15721372745089
 20
-1.048811376921426
 30
0.0
 10
5.152955756555138
 20
-1.056547204881138
 30
0.0
 10
5.150361234749438
 20
-1.060069126161669
 30
0.0
 10
5.144243278610204
 20
-1.066424034539456
 30
0.0
 10
5.14071436072276
 20
-1.069230483922691
 30
0.0
 10
5.133107479589718
 20
-1.073771585250311
 30
0.0
 10
5.128912565370014
 20
-1.075570542244022
 30
0.0
 10
5.12029694997906
 20
-1.077952372017188
 30
0.0
 10
5.115823468595523
 20
-1.078569158505942
 30
0.0
 10
5.111281756763659
 20
-1.078569158505942
 30
0.0
  0
SPLINE
  5
C9
330
1F
100
AcDbEntity
  8
0
  6
Continuous
 62
     7
370
    15
100
AcDbSpline
210
0.0
220
0.0
230
1.0
 70
     8
 71
     3
 72
    14
 73
    10
 74
     0
 42
0.000000001
 43
0.00000001
 40
0.0
 40
0.0
 40
0.0
 40
0.0
 40
0.25
 40
0.25
 40
0.5
 40
0.5
 40
0.75
 40
0.75
 40
1.0
 40
1.0
 40
1.0
 40
1.0
 10
4.821820902795159
 20
-0.5004308414939495
 30
0.0
 10
4.82615023681184
 20
-0.5004308414939495
 30
0.0
 10
4.830384562712774
 20
-0.50098382776144
 30
0.0
 10
4.838669217650023
 20
-0.503160578909541
 30
0.0
 10
4.842703164278819
 20
-0.5048009967509703
 30
0.0
 10
4.850122237607416
 20
-0.5089918981702493
 30
0.0
 10
4.853611865469023
 20
-0.5116048809411173
 30
0.0
 10
4.859717759401829
 20
-0.5175378516645854
 30
0.0
 10
4.862365126302221
 20
-0.520855850951107
 30
0.0
 10
4.864593475559681
 20
-0.5245366912066017
 30
0.0
  0
SPLINE
  5
CB
330
1F
100
AcDbEntity
  8
0
  6
Continuous
 62
     7
370
    15
100
AcDbSpline
210
0.0
220
0.0
230
1.0
 70
     8
 71
     3
 72
    14
 73
    10
 74
     0
 42
0.000000001
 43
0.00000001
 40
0.0
 40
0.0
 40
0.0
 40
0.0
 40
0.25
 40
0.25
 40
0.5
 40
0.5
 40
0.75
 40
0.75
 40
1.0
 40
1.0
 40
1.0
 40
1.0
 10
4.635406524440327
 20
-0.5245366912066042
 30
0.0
 10
4.637634867162721
 20
-0.5208558617458884
 30
0.0
 10
4.640285045504491
 20
-0.5175332318135593
 30
0.0
 10
4.646408208649786
 20
-0.5115872768097642
 30
0.0
 10
4.649890767208101
 20
-0.5089831556781839
 30
0.0
 10
4.657308727959999
 20
-0.5047956800384338
 30
0.0
 10
4.661352950446235
 20
-0.5031535247368744
 30
0.0
 10
4.669620228335126
 20
-0.5009838025718653
 30
0.0
 10
4.673849802976354
 20
-0.5004308414939508
 30
0.0
 10
4.678179097204849
 20
-0.5004308414939507
 30
0.0
  0
SPLINE
  5
CD
330
1F
100
AcDbEntity
  8
0
  6
Continuous
 62
     7
370
    15
100
AcDbSpline
210
0.0
220
0.0
230
1.0
 70
     8
 71
     3
 72
    10
 73
     6
 74
     0
 42
0.000000001
 43
0.00000001
 40
0.0
 40
0.0
 40
0.0
 40
0.0
 40
0.5
 40
0.5
 40
1.0
 40
1.0
 40
1.0
 40
1.0
 10
5.10722742723548
 20
-0.1119384360520768
 30
0.0
 10
5.104860926115176
 20
-0.1080293932666489
 30
0.0
 10
5.103074703128513
 20
-0.1038915176554964
 30
0.0
 10
5.100631749904853
 20
-0.0951702407932763
 30
0.0
 10
5.100000000000002
 20
-0.0906140938888496
 30
0.0
 10
5.100000000000002
 20
-0.0860442857647299
 30
0.0
  0
SPLINE
  5
CF
330
1F
100
AcDbEntity
  8
0
  6
Continuous
 62
     7
370
    15
100
AcDbSpline
210
0.0
220
0.0
230
1.0
 70
     8
 71
     3
 72
    18
 73
    14
 74
     0
 42
0.000000001
 43
0.00000001
 40
0.0
 40
0.0
 40
0.0
 40
0.0
 40
0.1250000000000047
 40
0.1250000000000047
 40
0.2500000000000093
 40
0.2500000000000093
 40
0.5000000000000062
 40
0.5000000000000062
 40
0.7500000000000032
 40
0.7500000000000032
 40
0.8750000000000017
 40
0.8750000000000017
 40
1.0
 40
1.0
 40
1.0
 40
1.0
 10
5.692417411887264
 20
-0.8994310679815806
 30
0.0
 10
5.692417411887263
 20
-0.9048162590644624
 30
0.0
 10
5.691569528409702
 20
-0.9100586179148814
 30
0.0
 10
5.688188827179736
 20
-0.9202602042657424
 30
0.0
 10
5.685707489295515
 20
-0.925024010034474
 30
0.0
 10
5.676038205260615
 20
-0.9379766279423069
 30
0.0
 10
5.666689398946345
 20
-0.9444822873693471
 30
0.0
 10
5.645741967553665
 20
-0.9504966048312201
 30
0.0
 10
5.634177082394119
 20
-0.9499334320431362
 30
0.0
 10
5.618996169658392
 20
-0.9439399812905673
 30
0.0
 10
5.614258845575723
 20
-0.941099419805373
 30
0.0
 10
5.606012018178925
 20
-0.9341269425111773
 30
0.0
 10
5.602449458156406
 20
-0.9299579546345931
 30
0.0
 10
5.599644839122742
 20
-0.9253252182689287
 30
0.0
  0
SPLINE
  5
D1
330
1F
100
AcDbEntity
  8
0
  6
Continuous
 62
     7
370
    15
100
AcDbSpline
210
0.0
220
0.0
230
1.0
 70
     8
 71
     3
 72
    16
 73
    12
 74
     0
 42
0.000000001
 43
0.00000001
 40
0.0
 40
0.0
 40
0.0
 40
0.0
 40
0.1249999999999909
 40
0.1249999999999909
 40
0.2499999999999818
 40
0.2499999999999818
 40
0.4999999999999879
 40
0.4999999999999879
 40
0.7499999999999939
 40
0.7499999999999939
 40
1.0
 40
1.0
 40
1.0
 40
1.0
 10
5.599644839122723
 20
0.9253252182690487
 30
0.0
 10
5.602448721803464
 20
0.9299567383094568
 30
0.0
 10
5.605920818376836
 20
0.9340381441600261
 30
0.0
 10
5.614225854174007
 20
0.9410830443235002
 30
0.0
 10
5.618873771838936
 20
0.94387957723904
 30
0.0
 10
5.634138256934022
 20
0.9499419325650462
 30
0.0
 10
5.645570062466705
 20
0.9505200144681086
 30
0.0
 10
5.666643553493198
 20
0.9445211303198211
 30
0.0
 10
5.675964530482545
 20
0.9380435027573447
 30
0.0
 10
5.68889899721724
 20
0.9207803422213746
 30
0.0
 10
5.692417411887247
 20
0.9102005361757843
 30
0.0
 10
5.692417411887244
 20
0.8994310679817027
 30
0.0
  0
SPLINE
  5
D3
330
1F
100
AcDbEntity
  8
0
  6
Continuous
 62
     7
370
    15
100
AcDbSpline
210
0.0
220
0.0
230
1.0
 70
     8
 71
     3
 72
    10
 73
     6
 74
     0
 42
0.000000001
 43
0.00000001
 40
0.0
 40
0.0
 40
0.0
 40
0.0
 40
0.5
 40
0.5
 40
1.0
 40
1.0
 40
1.0
 40
1.0
 10
5.1
 20
0.0860442857648398
 30
0.0
 10
5.100000000000001
 20
0.090614099654863
 30
0.0
 10
5.100614976496957
 20
0.0950790311473081
 30
0.0
 10
5.103041815260366
 20
0.103804805365365
 30
0.0
 10
5.10486092542699
 20
0.1080293921299992
 30
0.0
 10
5.107227427235478
 20
0.1119384360521872
 30
0.0
  0
LINE
  5
DB
330
1F
100
AcDbEntity
  8
0
  6
Continuous
 62
     7
370
    15
100
AcDbLine
 10
4.8645934756
 20
0.5245366912
 30
0.0
 11
5.1540543295
 21
1.0026750082
 31
0.0
  0
LINE
  5
DC
330
1F
100
AcDbEntity
  8
0
  6
Continuous
 62
     7
370
    15
100
AcDbLine
 10
4.3887182432
 20
1.0785691585
 30
0.0
 11
5.1112817568
 21
1.0785691585
 31
0.0
  0
LINE
  5
DD
330
1F
100
AcDbEntity
  8
0
  6
Continuous
 62
     7
370
    15
100
AcDbLine
 10
4.6354065244
 20
0.5245366912
 30
0.0
 11
4.3459456705
 21
1.0026750082
 31
0.0
  0
LINE
  5
DE
330
1F
100
AcDbEntity
  8
0
  6
Continuous
 62
     7
370
    15
100
AcDbLine
 10
4.6781790972
 20
0.5004308415
 30
0.0
 11
4.8218209028
 21
0.5004308415
 31
0.0
  0
LINE
  5
DF
330
1F
100
AcDbEntity
  8
0
  6
Continuous
 62
     7
370
    15
100
AcDbLine
 10
-0.6112817568
 20
1.0785691585
 30
0.0
 11
0.1112817568
 21
1.0785691585
 31
0.0
  0
LINE
  5
E0
330
1F
100
AcDbEntity
  8
0
  6
Continuous
 62
     7
370
    15
100
AcDbLine
 10
-0.3645934756
 20
0.5245366912
 30
0.0
 11
-0.6540543295
 21
1.0026750082
 31
0.0
  0
LINE
  5
E1
330
1F
100
AcDbEntity
  8
0
  6
Continuous
 62
     7
370
    15
100
AcDbLine
 10
-0.1781790972
 20
0.5004308415
 30
0.0
 11
-0.3218209028
 21
0.5004308415
 31
0.0
  0
LINE
  5
E2
330
1F
100
AcDbEntity
  8
0
  6
Continuous
 62
     7
370
    15
100
AcDbLine
 10
-0.1354065244
 20
0.5245366912
 30
0.0
 11
0.1540543295
 21
1.0026750082
 31
0.0
  0
LINE
  5
E3
330
1F
100
AcDbEntity
  8
0
  6
Continuous
 62
     7
370
    15
100
AcDbLine
 10
-5.2445934756
 20
-0.5245366912
 30
0.0
 11
-5.5340543295
 21
-1.0026750082
 31
0.0
  0
LINE
  5
E4
330
1F
100
AcDbEntity
  8
0
  6
Continuous
 62
     7
370
    15
100
AcDbLine
 10
-5.4912817568
 20
-1.0785691585
 30
0.0
 11
-4.7687182432
 21
-1.0785691585
 31
0.0
  0
LINE
  5
E5
330
1F
100
AcDbEntity
  8
0
  6
Continuous
 62
     7
370
    15
100
AcDbLine
 10
-5.0154065244
 20
-0.5245366912
 30
0.0
 11
-4.7259456705
 21
-1.0026750082
 31
0.0
  0
LINE
  5
E6
330
1F
100
AcDbEntity
  8
0
  6
Continuous
 62
     7
370
    15
100
AcDbLine
 10
-5.0581790972
 20
-0.5004308415
 30
0.0
 11
-5.2018209028
 21
-0.5004308415
 31
0.0
  0
LINE
  5
E7
330
1F
100
AcDbEntity
  8
0
  6
Continuous
 62
     7
370
    15
100
AcDbLine
 10
-6.125
 20
1.5785691585
 30
0.0
 11
-6.125
 21
-1.5785691585
 31
0.0
  0
LINE
  5
E8
330
1F
100
AcDbEntity
  8
0
  6
Continuous
 62
     7
370
    15
100
AcDbLine
 10
6.125
 20
1.5785691585
 30
0.0
 11
-6.125
 21
1.5785691585
 31
0.0
  0
LINE
  5
E9
330
1F
100
AcDbEntity
  8
0
  6
Continuous
 62
     7
370
    15
100
AcDbLine
 10
6.125
 20
-1.5785691585
 30
0.0
 11
6.125
 21
1.5785691585
 31
0.0
  0
LINE
  5
EA
330
1F
100
AcDbEntity
  8
0
  6
Continuous
 62
     7
370
    15
100
AcDbLine
 10
-6.125
 20
-1.5785691585
 30
0.0
 11
6.125
 21
-1.5785691585
 31
0.0
  0
LINE
  5
EB
330
1F
100
AcDbEntity
  8
0
  6
Continuous
 62
     7
370
    15
100
AcDbLine
 10
-5.0154065244
 20
0.5245366912
 30
0.0
 11
-4.7259456705
 21
1.0026750082
 31
0.0
  0
LINE
  5
EC
330
1F
100
AcDbEntity
  8
0
  6
Continuous
 62
     7
370
    15
100
AcDbLine
 10
-5.4912817568
 20
1.0785691585
 30
0.0
 11
-4.7687182432
 21
1.0785691585
 31
0.0
  0
LINE
  5
ED
330
1F
100
AcDbEntity
  8
0
  6
Continuous
 62
     7
370
    15
100
AcDbLine
 10
-5.2445934756
 20
0.5245366912
 30
0.0
 11
-5.5340543295
 21
1.0026750082
 31
0.0
  0
LINE
  5
EE
330
1F
100
AcDbEntity
  8
0
  6
Continuous
 62
     7
370
    15
100
AcDbLine
 10
-5.2018209028
 20
0.5004308415
 30
0.0
 11
-5.0581790972
 21
0.5004308415
 31
0.0
  0
LINE
  5
EF
330
1F
100
AcDbEntity
  8
0
  6
Continuous
 62
     7
370
    15
100
AcDbLine
 10
-4.7727725728
 20
-0.1119384361
 30
0.0
 11
-4.2021760637
 21
-1.0544633088
 31
0.0
  0
LINE
  5
F0
330
1F
100
AcDbEntity
  8
0
  6
Continuous
 62
     7
370
    15
100
AcDbLine
 10
-4.1594034909
 20
-1.0785691585
 30
0.0
 11
-1.2205965091
 21
-1.0785691585
 31
0.0
  0
LINE
  5
F1
330
1F
100
AcDbEntity
  8
0
  6
Continuous
 62
     7
370
    15
100
AcDbLine
 10
-0.6072274272
 20
-0.1119384361
 30
0.0
 11
-1.1778239363
 21
-1.0544633088
 31
0.0
  0
LINE
  5
F2
330
1F
100
AcDbEntity
  8
0
  6
Continuous
 62
     7
370
    15
100
AcDbLine
 10
-0.6
 20
0.0860442858
 30
0.0
 11
-0.6
 21
-0.0860442858
 31
0.0
  0
LINE
  5
F3
330
1F
100
AcDbEntity
  8
0
  6
Continuous
 62
     7
370
    15
100
AcDbLine
 10
-0.6072274272
 20
0.1119384361
 30
0.0
 11
-1.1778239363
 21
1.0544633088
 31
0.0
  0
LINE
  5
F4
330
1F
100
AcDbEntity
  8
0
  6
Continuous
 62
     7
370
    15
100
AcDbLine
 10
-4.1594034909
 20
1.0785691585
 30
0.0
 11
-1.2205965091
 21
1.0785691585
 31
0.0
  0
LINE
  5
F5
330
1F
100
AcDbEntity
  8
0
  6
Continuous
 62
     7
370
    15
100
AcDbLine
 10
-4.7727725728
 20
0.1119384361
 30
0.0
 11
-4.2021760637
 21
1.0544633088
 31
0.0
  0
LINE
  5
F6
330
1F
100
AcDbEntity
  8
0
  6
Continuous
 62
     7
370
    15
100
AcDbLine
 10
-4.78
 20
0.0860442858
 30
0.0
 11
-4.78
 21
-0.0860442858
 31
0.0
  0
LINE
  5
F7
330
1F
100
AcDbEntity
  8
0
  6
Continuous
 62
     7
370
    15
100
AcDbLine
 10
4.3927725728
 20
0.1119384361
 30
0.0
 11
3.8221760637
 21
1.0544633088
 31
0.0
  0
LINE
  5
F8
330
1F
100
AcDbEntity
  8
0
  6
Continuous
 62
     7
370
    15
100
AcDbLine
 10
0.7205965091
 20
1.0785691585
 30
0.0
 11
3.7794034909
 21
1.0785691585
 31
0.0
  0
LINE
  5
F9
330
1F
100
AcDbEntity
  8
0
  6
Continuous
 62
     7
370
    15
100
AcDbLine
 10
0.1072274272
 20
0.1119384361
 30
0.0
 11
0.6778239363
 21
1.0544633088
 31
0.0
  0
LINE
  5
FA
330
1F
100
AcDbEntity
  8
0
  6
Continuous
 62
     7
370
    15
100
AcDbLine
 10
0.1
 20
-0.0860442858
 30
0.0
 11
0.1
 21
0.0860442858
 31
0.0
  0
LINE
  5
FB
330
1F
100
AcDbEntity
  8
0
  6
Continuous
 62
     7
370
    15
100
AcDbLine
 10
0.1072274272
 20
-0.1119384361
 30
0.0
 11
0.6778239363
 21
-1.0544633088
 31
0.0
  0
LINE
  5
FC
330
1F
100
AcDbEntity
  8
0
  6
Continuous
 62
     7
370
    15
100
AcDbLine
 10
0.7205965091
 20
-1.0785691585
 30
0.0
 11
3.7794034909
 21
-1.0785691585
 31
0.0
  0
LINE
  5
FD
330
1F
100
AcDbEntity
  8
0
  6
Continuous
 62
     7
370
    15
100
AcDbLine
 10
4.3927725728
 20
-0.1119384361
 30
0.0
 11
3.8221760637
 21
-1.0544633088
 31
0.0
  0
LINE
  5
FE
330
1F
100
AcDbEntity
  8
0
  6
Continuous
 62
     7
370
    15
100
AcDbLine
 10
4.4
 20
-0.0860442858
 30
0.0
 11
4.4
 21
0.0860442858
 31
0.0
  0
LINE
  5
FF
330
1F
100
AcDbEntity
  8
0
  6
Continuous
 62
     7
370
    15
100
AcDbLine
 10
-0.6112817568
 20
-1.0785691585
 30
0.0
 11
0.1112817568
 21
-1.0785691585
 31
0.0
  0
LINE
  5
100
330
1F
100
AcDbEntity
  8
0
  6
Continuous
 62
     7
370
    15
100
AcDbLine
 10
-0.1354065244
 20
-0.5245366912
 30
0.0
 11
0.1540543295
 21
-1.0026750082
 31
0.0
  0
LINE
  5
101
330
1F
100
AcDbEntity
  8
0
  6
Continuous
 62
     7
370
    15
100
AcDbLine
 10
-0.3218209028
 20
-0.5004308415
 30
0.0
 11
-0.1781790972
 21
-0.5004308415
 31
0.0
  0
LINE
  5
102
330
1F
100
AcDbEntity
  8
0
  6
Continuous
 62
     7
370
    15
100
AcDbLine
 10
-0.3645934756
 20
-0.5245366912
 30
0.0
 11
-0.6540543295
 21
-1.0026750082
 31
0.0
  0
LINE
  5
103
330
1F
100
AcDbEntity
  8
0
  6
Continuous
 62
     7
370
    15
100
AcDbLine
 10
4.3887182432
 20
-1.0785691585
 30
0.0
 11
5.1112817568
 21
-1.0785691585
 31
0.0
  0
LINE
  5
104
330
1F
100
AcDbEntity
  8
0
  6
Continuous
 62
     7
370
    15
100
AcDbLine
 10
4.8645934756
 20
-0.5245366912
 30
0.0
 11
5.1540543295
 21
-1.0026750082
 31
0.0
  0
LINE
  5
105
330
1F
100
AcDbEntity
  8
0
  6
Continuous
 62
     7
370
    15
100
AcDbLine
 10
4.8218209028
 20
-0.5004308415
 30
0.0
 11
4.6781790972
 21
-0.5004308415
 31
0.0
  0
LINE
  5
106
330
1F
100
AcDbEntity
  8
0
  6
Continuous
 62
     7
370
    15
100
AcDbLine
 10
4.6354065244
 20
-0.5245366912
 30
0.0
 11
4.3459456705
 21
-1.0026750082
 31
0.0
  0
LINE
  5
107
330
1F
100
AcDbEntity
  8
0
  6
Continuous
 62
     7
370
    15
100
AcDbLine
 10
5.1072274272
 20
-0.1119384361
 30
0.0
 11
5.5996448391
 21
-0.9253252183
 31
0.0
  0
LINE
  5
108
330
1F
100
AcDbEntity
  8
0
  6
Continuous
 62
     7
370
    15
100
AcDbLine
 10
5.6924174119
 20
0.899431068
 30
0.0
 11
5.6924174119
 21
-0.899431068
 31
0.0
  0
LINE
  5
109
330
1F
100
AcDbEntity
  8
0
  6
Continuous
 62
     7
370
    15
100
AcDbLine
 10
5.1072274272
 20
0.1119384361
 30
0.0
 11
5.5996448391
 21
0.9253252183
 31
0.0
  0
LINE
  5
10A
330
1F
100
AcDbEntity
  8
0
  6
Continuous
 62
     7
370
    15
100
AcDbLine
 10
5.1
 20
0.0860442858
 30
0.0
 11
5.1
 21
-0.0860442858
 31
0.0
  0
MTEXT
  5
10C
330
1F
100
AcDbEntity
  8
0
  6
Continuous
 62
     7
100
AcDbMText
 10
-6.125
 20
-1.6187095676
 30
0.0
 40
0.1903
 41
0.0
 71
     1
 72
     1
  1
SOLIDWORKS Student Edition.
  7
SLDTEXTSTYLE0
 73
     1
 44
1.0
  0
MTEXT
  5
10D
330
1F
100
AcDbEntity
  8
0
  6
Continuous
 62
     7
100
AcDbMText
 10
-6.125
 20
-1.9041595676
 30
0.0
 40
0.1903
 41
0.0
 71
     1
 72
     1
  1
For Academic Use Only.
  7
SLDTEXTSTYLE0
 73
     1
 44
1.0
  0
ENDSEC
  0
SECTION
  2
OBJECTS
  0
DICTIONARY
  5
C
330
0
100
AcDbDictionary
281
     1
  3
ACAD_GROUP
350
D
  3
ACAD_LAYOUT
350
1A
  3
ACAD_MLINESTYLE
350
17
  3
ACAD_PLOTSETTINGS
350
19
  3
ACAD_PLOTSTYLENAME
350
E
  3
ACAD_SCALELIST
350
47
  0
DICTIONARY
  5
D
102
{ACAD_REACTORS
330
C
102
}
330
C
100
AcDbDictionary
281
     1
  0
DICTIONARY
  5
1A
102
{ACAD_REACTORS
330
C
102
}
330
C
100
AcDbDictionary
281
     1
  3
Layout1
350
1E
  3
Layout2
350
26
  3
Model
350
22
  0
DICTIONARY
  5
17
102
{ACAD_REACTORS
330
C
102
}
330
C
100
AcDbDictionary
281
     1
  3
Standard
350
18
  0
DICTIONARY
  5
19
102
{ACAD_REACTORS
330
C
102
}
330
C
100
AcDbDictionary
281
     1
  0
ACDBDICTIONARYWDFLT
  5
E
102
{ACAD_REACTORS
330
C
102
}
330
C
100
AcDbDictionary
281
     1
  3
Normal
350
F
100
AcDbDictionaryWithDefault
340
F
  0
DICTIONARY
  5
47
102
{ACAD_REACTORS
330
C
102
}
330
C
100
AcDbDictionary
281
     1
  3
A0
350
48
  3
A1
350
49
  3
A2
350
4A
  3
A3
350
4B
  3
A4
350
4C
  3
A5
350
4D
  3
A6
350
4E
  3
A7
350
4F
  3
A8
350
50
  3
A9
350
51
  3
B0
350
52
  3
B1
350
53
  3
B2
350
54
  3
B3
350
55
  3
B4
350
56
  3
B5
350
57
  3
B6
350
58
  3
B7
350
59
  3
B8
350
5A
  3
B9
350
5B
  3
C0
350
5C
  3
C1
350
5D
  3
C2
350
5E
  3
C3
350
5F
  3
C4
350
60
  3
C5
350
61
  3
C6
350
62
  3
C7
350
63
  3
C8
350
64
  3
C9
350
65
  3
D0
350
66
  3
D1
350
67
  3
D2
350
68
  0
LAYOUT
  5
1E
102
{ACAD_REACTORS
330
1A
102
}
330
1A
100
AcDbPlotSettings
  1

  2
none_device
  4

  6

 40
0.0
 41
0.0
 42
0.0
 43
0.0
 44
0.0
 45
0.0
 46
0.0
 47
0.0
 48
0.0
 49
0.0
140
0.0
141
0.0
142
1.0
143
1.0
 70
   688
 72
     0
 73
     0
 74
     5
  7

 75
    16
147
1.0
148
0.0
149
0.0
100
AcDbLayout
  1
Layout1
 70
     1
 71
     1
 10
0.0
 20
0.0
 11
12.0
 21
9.0
 12
0.0
 22
0.0
 32
0.0
 14
1.0000000000E+20
 24
1.0000000000E+20
 34
1.0000000000E+20
 15
-1.0000000000E+20
 25
-1.0000000000E+20
 35
-1.0000000000E+20
146
0.0
 13
0.0
 23
0.0
 33
0.0
 16
1.0
 26
0.0
 36
0.0
 17
0.0
 27
1.0
 37
0.0
 76
     0
330
1B
  0
LAYOUT
  5
26
102
{ACAD_REACTORS
330
1A
102
}
330
1A
100
AcDbPlotSettings
  1

  2
none_device
  4

  6

 40
0.0
 41
0.0
 42
0.0
 43
0.0
 44
0.0
 45
0.0
 46
0.0
 47
0.0
 48
0.0
 49
0.0
140
0.0
141
0.0
142
1.0
143
1.0
 70
   688
 72
     0
 73
     0
 74
     5
  7

 75
    16
147
1.0
148
0.0
149
0.0
100
AcDbLayout
  1
Layout2
 70
     1
 71
     2
 10
0.0
 20
0.0
 11
0.0
 21
0.0
 12
0.0
 22
0.0
 32
0.0
 14
0.0
 24
0.0
 34
0.0
 15
0.0
 25
0.0
 35
0.0
146
0.0
 13
0.0
 23
0.0
 33
0.0
 16
1.0
 26
0.0
 36
0.0
 17
0.0
 27
1.0
 37
0.0
 76
     0
330
23
  0
LAYOUT
  5
22
102
{ACAD_REACTORS
330
1A
102
}
330
1A
100
AcDbPlotSettings
  1

  2
none_device
  4
ANSI_A_(11.00_x_8.50_Inches)
  6

 40
6.35
 41
19.05
 42
6.35000508
 43
19.05000254
 44
279.4
 45
215.9
 46
133.34999746
 47
88.89999873
 48
0.0
 49
0.0
140
0.0
141
0.0
142
0.8889795918
143
1.0
 70
  1696
 72
     0
 73
     0
 74
     0
  7

 75
     0
147
0.5913241897
148
-39.4088153714
149
0.0
100
AcDbLayout
  1
Model
 70
     1
 71
     0
 10
0.0
 20
0.0
 11
12.0
 21
9.0
 12
0.0
 22
0.0
 32
0.0
 14
-6.125
 24
-1.5785691585
 34
0.0
 15
6.125
 25
1.5785691585
 35
0.0
146
0.0
 13
0.0
 23
0.0
 33
0.0
 16
1.0
 26
0.0
 36
0.0
 17
0.0
 27
1.0
 37
0.0
 76
     0
330
1F
331
29
  0
MLINESTYLE
  5
18
102
{ACAD_REACTORS
330
17
102
}
330
17
100
AcDbMlineStyle
  2
Standard
 70
     0
  3

 62
   256
 51
90.0
 52
90.0
 71
     2
 49
0.5
 62
   256
  6
BYLAYER
 49
-0.5
 62
   256
  6
BYLAYER
  0
ACDBPLACEHOLDER
  5
F
102
{ACAD_REACTORS
330
E
102
}
330
E
  0
SCALE
  5
48
102
{ACAD_REACTORS
330
47
102
}
330
47
100
AcDbScale
 70
     0
300
1:1
140
1.0
141
1.0
290
     1
  0
SCALE
  5
49
102
{ACAD_REACTORS
330
47
102
}
330
47
100
AcDbScale
 70
     0
300
1:2
140
1.0
141
2.0
290
     0
  0
SCALE
  5
4A
102
{ACAD_REACTORS
330
47
102
}
330
47
100
AcDbScale
 70
     0
300
1:4
140
1.0
141
4.0
290
     0
  0
SCALE
  5
4B
102
{ACAD_REACTORS
330
47
102
}
330
47
100
AcDbScale
 70
     0
300
1:5
140
1.0
141
5.0
290
     0
  0
SCALE
  5
4C
102
{ACAD_REACTORS
330
47
102
}
330
47
100
AcDbScale
 70
     0
300
1:8
140
1.0
141
8.0
290
     0
  0
SCALE
  5
4D
102
{ACAD_REACTORS
330
47
102
}
330
47
100
AcDbScale
 70
     0
300
1:10
140
1.0
141
10.0
290
     0
  0
SCALE
  5
4E
102
{ACAD_REACTORS
330
47
102
}
330
47
100
AcDbScale
 70
     0
300
1:16
140
1.0
141
16.0
290
     0
  0
SCALE
  5
4F
102
{ACAD_REACTORS
330
47
102
}
330
47
100
AcDbScale
 70
     0
300
1:20
140
1.0
141
20.0
290
     0
  0
SCALE
  5
50
102
{ACAD_REACTORS
330
47
102
}
330
47
100
AcDbScale
 70
     0
300
1:30
140
1.0
141
30.0
290
     0
  0
SCALE
  5
51
102
{ACAD_REACTORS
330
47
102
}
330
47
100
AcDbScale
 70
     0
300
1:40
140
1.0
141
40.0
290
     0
  0
SCALE
  5
52
102
{ACAD_REACTORS
330
47
102
}
330
47
100
AcDbScale
 70
     0
300
1:50
140
1.0
141
50.0
290
     0
  0
SCALE
  5
53
102
{ACAD_REACTORS
330
47
102
}
330
47
100
AcDbScale
 70
     0
300
1:100
140
1.0
141
100.0
290
     0
  0
SCALE
  5
54
102
{ACAD_REACTORS
330
47
102
}
330
47
100
AcDbScale
 70
     0
300
2:1
140
2.0
141
1.0
290
     0
  0
SCALE
  5
55
102
{ACAD_REACTORS
330
47
102
}
330
47
100
AcDbScale
 70
     0
300
4:1
140
4.0
141
1.0
290
     0
  0
SCALE
  5
56
102
{ACAD_REACTORS
330
47
102
}
330
47
100
AcDbScale
 70
     0
300
8:1
140
8.0
141
1.0
290
     0
  0
SCALE
  5
57
102
{ACAD_REACTORS
330
47
102
}
330
47
100
AcDbScale
 70
     0
300
10:1
140
10.0
141
1.0
290
     0
  0
SCALE
  5
58
102
{ACAD_REACTORS
330
47
102
}
330
47
100
AcDbScale
 70
     0
300
100:1
140
100.0
141
1.0
290
     0
  0
SCALE
  5
59
102
{ACAD_REACTORS
330
47
102
}
330
47
100
AcDbScale
 70
     0
300
1/128" = 1'-0"
140
0.0078125
141
12.0
290
     0
  0
SCALE
  5
5A
102
{ACAD_REACTORS
330
47
102
}
330
47
100
AcDbScale
 70
     0
300
1/64" = 1'-0"
140
0.015625
141
12.0
290
     0
  0
SCALE
  5
5B
102
{ACAD_REACTORS
330
47
102
}
330
47
100
AcDbScale
 70
     0
300
1/32" = 1'-0"
140
0.03125
141
12.0
290
     0
  0
SCALE
  5
5C
102
{ACAD_REACTORS
330
47
102
}
330
47
100
AcDbScale
 70
     0
300
1/16" = 1'-0"
140
0.0625
141
12.0
290
     0
  0
SCALE
  5
5D
102
{ACAD_REACTORS
330
47
102
}
330
47
100
AcDbScale
 70
     0
300
3/32" = 1'-0"
140
0.09375
141
12.0
290
     0
  0
SCALE
  5
5E
102
{ACAD_REACTORS
330
47
102
}
330
47
100
AcDbScale
 70
     0
300
1/8" = 1'-0"
140
0.125
141
12.0
290
     0
  0
SCALE
  5
5F
102
{ACAD_REACTORS
330
47
102
}
330
47
100
AcDbScale
 70
     0
300
3/16" = 1'-0"
140
0.1875
141
12.0
290
     0
  0
SCALE
  5
60
102
{ACAD_REACTORS
330
47
102
}
330
47
100
AcDbScale
 70
     0
300
1/4" = 1'-0"
140
0.25
141
12.0
290
     0
  0
SCALE
  5
61
102
{ACAD_REACTORS
330
47
102
}
330
47
100
AcDbScale
 70
     0
300
3/8" = 1'-0"
140
0.375
141
12.0
290
     0
  0
SCALE
  5
62
102
{ACAD_REACTORS
330
47
102
}
330
47
100
AcDbScale
 70
     0
300
1/2" = 1'-0"
140
0.5
141
12.0
290
     0
  0
SCALE
  5
63
102
{ACAD_REACTORS
330
47
102
}
330
47
100
AcDbScale
 70
     0
300
3/4" = 1'-0"
140
0.75
141
12.0
290
     0
  0
SCALE
  5
64
102
{ACAD_REACTORS
330
47
102
}
330
47
100
AcDbScale
 70
     0
300
1" = 1'-0"
140
1.0
141
12.0
290
     0
  0
SCALE
  5
65
102
{ACAD_REACTORS
330
47
102
}
330
47
100
AcDbScale
 70
     0
300
1-1/2" = 1'-0"
140
1.5
141
12.0
290
     0
  0
SCALE
  5
66
102
{ACAD_REACTORS
330
47
102
}
330
47
100
AcDbScale
 70
     0
300
3" = 1'-0"
140
3.0
141
12.0
290
     0
  0
SCALE
  5
67
102
{ACAD_REACTORS
330
47
102
}
330
47
100
AcDbScale
 70
     0
300
6" = 1'-0"
140
6.0
141
12.0
290
     0
  0
SCALE
  5
68
102
{ACAD_REACTORS
330
47
102
}
330
47
100
AcDbScale
 70
     0
300
1'-0" = 1'-0"
140
12.0
141
12.0
290
     0
  0
ENDSEC
  0
EOF
